<?xml version="1.0" encoding="iso-8859-1"?>
<!-- Generator: Adobe Illustrator 17.1.0, SVG Export Plug-In . SVG Version: 6.00 Build 0)  -->
<!DOCTYPE svg PUBLIC "-//W3C//DTD SVG 1.1//EN" "http://www.w3.org/Graphics/SVG/1.1/DTD/svg11.dtd">
<svg version="1.1" id="Capa_1" xmlns="http://www.w3.org/2000/svg" xmlns:xlink="http://www.w3.org/1999/xlink" x="0px" y="0px"
	 viewBox="0 0 305.105 305.105" style="enable-background:new 0 0 305.105 305.105;" xml:space="preserve">
<path d="M231.474,250.105h-37.497v-57.338c0-0.682-0.099-1.339-0.269-1.966c4.397-3.368,8.605-7.041,12.587-11.023
	c23.633-23.633,36.647-55.055,36.647-88.477s-13.015-64.843-36.647-88.477c-2.93-2.928-7.678-2.928-10.607,0
	c-2.929,2.93-2.929,7.678,0,10.607c20.801,20.8,32.255,48.454,32.255,77.869c0,29.416-11.454,57.07-32.255,77.869
	c-20.8,20.801-48.454,32.255-77.869,32.255c-26.902,0-52.33-9.58-72.39-27.128l54.265-54.264c0.002-0.002,0.004-0.003,0.006-0.005
	l46.846-46.846c0,0,0.001-0.001,0.001-0.001l19.647-19.647c2.929-2.93,2.929-7.678,0-10.607c-2.93-2.928-7.678-2.928-10.607,0
	l-16.122,16.122L89.548,38.623c0.471-2.194,0.72-4.451,0.72-6.748c0-8.515-3.315-16.519-9.336-22.538
	C74.911,3.315,66.907,0,58.392,0s-16.519,3.315-22.54,9.336c-12.428,12.429-12.428,32.649,0,45.078
	c6.021,6.021,14.025,9.336,22.54,9.336s16.519-3.315,22.538-9.336c0.728-0.727,1.413-1.485,2.061-2.267l44.973,18.403
	l-30.897,30.897L86.74,76.21c-1.568-3.832-5.946-5.668-9.782-4.101c-3.833,1.568-5.669,5.948-4.101,9.782l12.708,31.056
	l-56.223,56.223c-2.929,2.93-2.929,7.678,0,10.607c23.633,23.633,55.055,36.647,88.477,36.647c21.769,0,42.686-5.526,61.158-15.906
	v49.585h-25.082v-13.553c0-4.143-3.357-7.5-7.5-7.5s-7.5,3.357-7.5,7.5v13.553h-35.721c-25.972,0-47.101,21.129-47.101,47.1v0.4
	c0,4.143,3.357,7.5,7.5,7.5h207.5c4.143,0,7.5-3.357,7.5-7.5v-0.4C278.574,271.234,257.445,250.105,231.474,250.105z M58.392,48.75
	c-4.508,0-8.745-1.756-11.933-4.943c-3.188-3.187-4.942-7.424-4.942-11.932s1.755-8.745,4.942-11.932
	C49.647,16.756,53.885,15,58.392,15c4.507,0,8.745,1.755,11.933,4.943c3.188,3.187,4.942,7.424,4.942,11.932
	s-1.755,8.745-4.943,11.933C67.137,46.995,62.899,48.75,58.392,48.75z M71.865,290.105c3.24-14.295,16.049-25,31.31-25h43.221
	h40.082h44.997c15.261,0,28.068,10.705,31.309,25H71.865z"/>
<g>
</g>
<g>
</g>
<g>
</g>
<g>
</g>
<g>
</g>
<g>
</g>
<g>
</g>
<g>
</g>
<g>
</g>
<g>
</g>
<g>
</g>
<g>
</g>
<g>
</g>
<g>
</g>
<g>
</g>
</svg>
