<?xml version="1.0" encoding="iso-8859-1"?>
<!-- Generator: Adobe Illustrator 17.1.0, SVG Export Plug-In . SVG Version: 6.00 Build 0)  -->
<!DOCTYPE svg PUBLIC "-//W3C//DTD SVG 1.1//EN" "http://www.w3.org/Graphics/SVG/1.1/DTD/svg11.dtd">
<svg version="1.1" id="Capa_1" xmlns="http://www.w3.org/2000/svg" xmlns:xlink="http://www.w3.org/1999/xlink" x="0px" y="0px"
	 viewBox="0 0 296.365 296.365" style="enable-background:new 0 0 296.365 296.365;" xml:space="preserve">
<g>
	<path d="M67.672,41.575H7.5c-4.143,0-7.5,3.357-7.5,7.5s3.357,7.5,7.5,7.5h60.172c4.143,0,7.5-3.357,7.5-7.5
		S71.814,41.575,67.672,41.575z"/>
	<path d="M239.616,41.575h-60.171c-4.143,0-7.5,3.357-7.5,7.5s3.357,7.5,7.5,7.5h60.171c4.143,0,7.5-3.357,7.5-7.5
		S243.759,41.575,239.616,41.575z"/>
	<path d="M138.57,41.575h-30.024c-4.143,0-7.5,3.357-7.5,7.5s3.357,7.5,7.5,7.5h30.024c4.143,0,7.5-3.357,7.5-7.5
		S142.713,41.575,138.57,41.575z"/>
	<path d="M257.25,80.69c1.465,1.464,3.385,2.196,5.304,2.196s3.839-0.732,5.304-2.196l26.312-26.312
		c2.929-2.93,2.929-7.678,0-10.607L267.857,17.46c-2.93-2.928-7.678-2.928-10.607,0c-2.929,2.93-2.929,7.678,0,10.607l21.009,21.008
		L257.25,70.083C254.321,73.013,254.321,77.761,257.25,80.69z"/>
	<path d="M67.672,140.682H7.5c-4.143,0-7.5,3.357-7.5,7.5s3.357,7.5,7.5,7.5h60.172c4.143,0,7.5-3.357,7.5-7.5
		S71.814,140.682,67.672,140.682z"/>
	<path d="M239.616,140.682h-60.171c-4.143,0-7.5,3.357-7.5,7.5s3.357,7.5,7.5,7.5h60.171c4.143,0,7.5-3.357,7.5-7.5
		S243.759,140.682,239.616,140.682z"/>
	<path d="M138.57,140.682h-30.024c-4.143,0-7.5,3.357-7.5,7.5s3.357,7.5,7.5,7.5h30.024c4.143,0,7.5-3.357,7.5-7.5
		S142.713,140.682,138.57,140.682z"/>
	<path d="M267.857,116.567c-2.93-2.928-7.678-2.928-10.607,0c-2.929,2.93-2.929,7.678,0,10.607l21.009,21.008L257.25,169.19
		c-2.929,2.93-2.929,7.678,0,10.607c1.465,1.464,3.385,2.196,5.304,2.196s3.839-0.732,5.304-2.196l26.312-26.312
		c2.929-2.93,2.929-7.678,0-10.607L267.857,116.567z"/>
	<path d="M67.672,239.79H7.5c-4.143,0-7.5,3.357-7.5,7.5s3.357,7.5,7.5,7.5h60.172c4.143,0,7.5-3.357,7.5-7.5
		S71.814,239.79,67.672,239.79z"/>
	<path d="M239.616,239.79h-60.171c-4.143,0-7.5,3.357-7.5,7.5s3.357,7.5,7.5,7.5h60.171c4.143,0,7.5-3.357,7.5-7.5
		S243.759,239.79,239.616,239.79z"/>
	<path d="M138.57,239.79h-30.024c-4.143,0-7.5,3.357-7.5,7.5s3.357,7.5,7.5,7.5h30.024c4.143,0,7.5-3.357,7.5-7.5
		S142.713,239.79,138.57,239.79z"/>
	<path d="M267.857,215.675c-2.93-2.928-7.678-2.928-10.607,0c-2.929,2.93-2.929,7.678,0,10.607l21.009,21.008l-21.009,21.008
		c-2.929,2.93-2.929,7.678,0,10.607c1.465,1.464,3.385,2.196,5.304,2.196s3.839-0.732,5.304-2.196l26.312-26.312
		c2.929-2.93,2.929-7.678,0-10.607L267.857,215.675z"/>
</g>
<g>
</g>
<g>
</g>
<g>
</g>
<g>
</g>
<g>
</g>
<g>
</g>
<g>
</g>
<g>
</g>
<g>
</g>
<g>
</g>
<g>
</g>
<g>
</g>
<g>
</g>
<g>
</g>
<g>
</g>
</svg>
