<?xml version="1.0" encoding="iso-8859-1"?>
<!-- Generator: Adobe Illustrator 17.1.0, SVG Export Plug-In . SVG Version: 6.00 Build 0)  -->
<!DOCTYPE svg PUBLIC "-//W3C//DTD SVG 1.1//EN" "http://www.w3.org/Graphics/SVG/1.1/DTD/svg11.dtd">
<svg version="1.1" id="Capa_1" xmlns="http://www.w3.org/2000/svg" xmlns:xlink="http://www.w3.org/1999/xlink" x="0px" y="0px"
	 viewBox="0 0 307.994 307.994" style="enable-background:new 0 0 307.994 307.994;" xml:space="preserve">
<path d="M271.005,300.105l-10.006-192.708c-0.041-0.791-0.208-1.545-0.473-2.25V81.169C260.526,36.412,224.114,0,179.357,0h-1.488
	c-8.433,0-16.568,1.295-24.22,3.692C145.996,1.295,137.861,0,129.428,0h-1.488C83.183,0,46.771,36.412,46.771,81.169v26.617
	c0,0.473,0.049,0.934,0.133,1.382l-9.914,190.937c-0.107,2.054,0.635,4.062,2.051,5.553s3.382,2.336,5.439,2.336h49.232h120.572
	h49.232c2.057,0,4.023-0.845,5.439-2.336S271.112,302.159,271.005,300.105z M177.869,15h1.488c36.486,0,66.169,29.684,66.169,66.169
	v19.117h-34.929V81.169c0-27.259-13.521-51.405-34.194-66.132C176.892,15.026,177.377,15,177.869,15z M153.648,19.611
	c24.536,9.688,41.949,33.62,41.949,61.558v19.117H111.7V81.169C111.7,53.231,129.113,29.3,153.648,19.611z M127.94,15h1.488
	c0.491,0,0.976,0.026,1.465,0.037C110.221,29.764,96.7,53.91,96.7,81.169v19.117H61.771V81.169C61.771,44.684,91.454,15,127.94,15z
	 M214.283,292.994H93.711H52.378l9.228-177.708h42.111h93.439l6.127,117.993c0.214,4.138,3.762,7.32,7.878,7.102
	c4.137-0.215,7.316-3.742,7.101-7.879l-6.086-117.216h34.212l9.228,177.708H214.283z"/>
<g>
</g>
<g>
</g>
<g>
</g>
<g>
</g>
<g>
</g>
<g>
</g>
<g>
</g>
<g>
</g>
<g>
</g>
<g>
</g>
<g>
</g>
<g>
</g>
<g>
</g>
<g>
</g>
<g>
</g>
</svg>
