<?xml version="1.0" encoding="iso-8859-1"?>
<!-- Generator: Adobe Illustrator 17.1.0, SVG Export Plug-In . SVG Version: 6.00 Build 0)  -->
<!DOCTYPE svg PUBLIC "-//W3C//DTD SVG 1.1//EN" "http://www.w3.org/Graphics/SVG/1.1/DTD/svg11.dtd">
<svg version="1.1" id="Capa_1" xmlns="http://www.w3.org/2000/svg" xmlns:xlink="http://www.w3.org/1999/xlink" x="0px" y="0px"
	 viewBox="0 0 307.994 307.994" style="enable-background:new 0 0 307.994 307.994;" xml:space="preserve">
<g>
	<path d="M291.433,300.105l-10.006-192.708c-0.041-0.79-0.208-1.545-0.473-2.25V81.169C280.955,36.412,244.542,0,199.785,0h-1.488
		c-8.433,0-16.568,1.295-24.22,3.692C166.424,1.295,158.289,0,149.856,0h-1.488c-44.757,0-81.169,36.412-81.169,81.169v26.617
		c0,0.473,0.049,0.934,0.133,1.382l-1.094,21.056c-0.215,4.137,2.965,7.664,7.102,7.879c4.097,0.208,7.663-2.965,7.879-7.102
		l0.815-15.716h42.111h93.439l9.228,177.708H114.139H72.806l0.402-7.731c0.215-4.136-2.965-7.664-7.102-7.879
		c-4.143-0.232-7.664,2.964-7.879,7.102l-0.812,15.62c-0.106,2.054,0.635,4.061,2.051,5.553c1.416,1.491,3.383,2.336,5.439,2.336
		h49.232h120.572h49.231c2.057,0,4.023-0.845,5.439-2.336S291.54,302.159,291.433,300.105z M148.368,15h1.488
		c0.491,0,0.976,0.026,1.465,0.037c-20.673,14.727-34.194,38.873-34.194,66.132v19.117H82.199V81.169
		C82.199,44.684,111.883,15,148.368,15z M132.128,100.286V81.169c0-27.938,17.413-51.869,41.949-61.558
		c24.536,9.688,41.949,33.62,41.949,61.558c0,4.143,3.357,7.5,7.5,7.5s7.5-3.357,7.5-7.5c0-27.259-13.521-51.405-34.194-66.132
		c0.489-0.011,0.974-0.037,1.465-0.037h1.488c36.486,0,66.17,29.684,66.17,66.169v19.117h-41.249H132.128z M241.833,292.994
		l-9.227-177.708h34.21l9.228,177.708H241.833z"/>
	<path d="M132.848,209.144c0-32.063-26.086-58.149-58.149-58.149s-58.148,26.086-58.148,58.149s26.085,58.148,58.148,58.148
		S132.848,241.207,132.848,209.144z M31.551,209.144c0-23.793,19.356-43.149,43.148-43.149c23.793,0,43.149,19.356,43.149,43.149
		c0,23.792-19.356,43.148-43.149,43.148C50.907,252.292,31.551,232.936,31.551,209.144z"/>
	<path d="M80.784,237.004v-1.681c8.978-1.591,14.069-7.193,14.069-15.63c0-11.812-10-15.098-17.303-17.497
		c-4.753-1.563-7.868-2.725-7.868-4.57c0-2.66,3.749-2.947,5.36-2.947c3.588,0,6.442,1.524,7.95,2.982
		c1.58,1.474,3.107,2.19,4.669,2.19c3.432,0,6.224-2.762,6.224-6.157c0-1.268-0.385-2.512-1.148-3.649
		c-2.381-3.363-6.667-5.813-11.953-6.885v-1.878c0-3.166-2.575-5.742-5.741-5.742c-3.128,0-5.673,2.576-5.673,5.742v1.803
		c-6.484,1.378-12.689,5.763-12.689,14.541c0,11.153,9.62,14.331,16.646,16.651c5.798,1.914,8.529,3.073,8.529,5.416
		c0,1.344,0,3.845-6.813,3.845c-3.433,0-6.465-1.433-9.542-4.51c-0.785-0.786-2.248-2.248-4.802-2.248
		c-3.394,0-6.154,2.792-6.154,6.224c0,1.136,0.33,2.291,0.925,3.246c2.719,4.398,7.922,7.732,13.9,9.004v1.75
		c0,3.166,2.545,5.742,5.673,5.742C78.209,242.746,80.784,240.17,80.784,237.004z"/>
</g>
<g>
</g>
<g>
</g>
<g>
</g>
<g>
</g>
<g>
</g>
<g>
</g>
<g>
</g>
<g>
</g>
<g>
</g>
<g>
</g>
<g>
</g>
<g>
</g>
<g>
</g>
<g>
</g>
<g>
</g>
</svg>
