<?xml version="1.0" encoding="iso-8859-1"?>
<!-- Generator: Adobe Illustrator 17.1.0, SVG Export Plug-In . SVG Version: 6.00 Build 0)  -->
<!DOCTYPE svg PUBLIC "-//W3C//DTD SVG 1.1//EN" "http://www.w3.org/Graphics/SVG/1.1/DTD/svg11.dtd">
<svg version="1.1" id="Capa_1" xmlns="http://www.w3.org/2000/svg" xmlns:xlink="http://www.w3.org/1999/xlink" x="0px" y="0px"
	 viewBox="0 0 307.994 307.994" style="enable-background:new 0 0 307.994 307.994;" xml:space="preserve">
<g>
	<path d="M291.433,300.105l-10.006-192.708c-0.041-0.79-0.208-1.545-0.473-2.25V81.169C280.955,36.412,244.542,0,199.785,0h-1.488
		c-8.433,0-16.568,1.295-24.22,3.692C166.424,1.295,158.289,0,149.856,0h-1.488c-44.757,0-81.169,36.412-81.169,81.169v26.617
		c0,0.473,0.049,0.934,0.133,1.382l-1.094,21.056c-0.215,4.137,2.965,7.664,7.102,7.879c0.132,0.007,0.264,0.01,0.396,0.01
		c3.963,0,7.275-3.107,7.483-7.111l0.815-15.716h42.111h100.561h42.11l9.228,177.708h-34.211l-7.237-139.386
		c-0.215-4.139-3.79-7.306-7.879-7.102c-4.137,0.215-7.316,3.742-7.102,7.879l7.197,138.608H114.139H72.806l0.402-7.731
		c0.215-4.136-2.965-7.664-7.102-7.879c-4.109-0.216-7.664,2.964-7.879,7.102l-0.812,15.62c-0.106,2.054,0.635,4.061,2.051,5.553
		c1.416,1.491,3.383,2.336,5.439,2.336h49.232h120.572h49.231c2.057,0,4.023-0.845,5.439-2.336S291.54,302.159,291.433,300.105z
		 M198.297,15h1.488c36.486,0,66.17,29.684,66.17,66.169v19.117h-34.93V81.169c0-27.259-13.521-51.405-34.194-66.132
		C197.32,15.026,197.806,15,198.297,15z M174.077,19.611c24.536,9.688,41.949,33.62,41.949,61.558v19.117h-83.897V81.169
		C132.128,53.231,149.541,29.3,174.077,19.611z M148.368,15h1.488c0.491,0,0.977,0.026,1.465,0.037
		c-20.673,14.727-34.194,38.873-34.194,66.132v19.117H82.199V81.169C82.199,44.684,111.883,15,148.368,15z"/>
	<path d="M132.848,209.144c0-32.063-26.086-58.149-58.149-58.149s-58.148,26.086-58.148,58.149s26.085,58.148,58.148,58.148
		S132.848,241.207,132.848,209.144z M31.551,209.144c0-23.793,19.356-43.149,43.148-43.149c23.793,0,43.149,19.356,43.149,43.149
		c0,23.792-19.356,43.148-43.149,43.148C50.907,252.292,31.551,232.936,31.551,209.144z"/>
	<path d="M100.768,230.038c0.839-1.138,1.282-2.482,1.282-3.888c0-3.762-3.06-6.821-6.821-6.821c-2.424,0-4.131,1.42-5.229,2.512
		c-3.441,3.518-5.931,4.534-11.098,4.534c-5.673,0-9.044-1.678-10.962-5.649h6.158c3.276,0,5.941-2.665,5.941-5.941
		c0-2.236-1.241-4.188-3.071-5.201c1.83-1.014,3.071-2.965,3.071-5.201c0-3.276-2.665-5.941-5.941-5.941h-6.406
		c1.961-4.489,5.523-6.529,11.21-6.529c4.716,0,7.589,1.286,10.596,4.74c1.411,1.634,3.151,2.462,5.17,2.462
		c3.762,0,6.821-3.025,6.821-6.743c0-1.422-0.414-2.702-1.315-4.049c-2.48-3.635-8.543-9.732-21.271-9.732
		c-14.237,0-23.32,6.87-26.382,19.901c-2.915,0.377-5.174,2.876-5.174,5.892c0,2.236,1.241,4.188,3.071,5.201
		c-1.83,1.014-3.071,2.965-3.071,5.201c0,3.056,2.318,5.58,5.289,5.906c3.152,12.615,11.979,19.008,26.267,19.008
		C87.918,239.698,96.291,236.004,100.768,230.038z"/>
</g>
<g>
</g>
<g>
</g>
<g>
</g>
<g>
</g>
<g>
</g>
<g>
</g>
<g>
</g>
<g>
</g>
<g>
</g>
<g>
</g>
<g>
</g>
<g>
</g>
<g>
</g>
<g>
</g>
<g>
</g>
</svg>
