<?xml version="1.0" encoding="iso-8859-1"?>
<!-- Generator: Adobe Illustrator 17.1.0, SVG Export Plug-In . SVG Version: 6.00 Build 0)  -->
<!DOCTYPE svg PUBLIC "-//W3C//DTD SVG 1.1//EN" "http://www.w3.org/Graphics/SVG/1.1/DTD/svg11.dtd">
<svg version="1.1" id="Capa_1" xmlns="http://www.w3.org/2000/svg" xmlns:xlink="http://www.w3.org/1999/xlink" x="0px" y="0px"
	 viewBox="0 0 297.5 297.5" style="enable-background:new 0 0 297.5 297.5;" xml:space="preserve">
<g>
	<path d="M290,258.723h-16.19V186.23c0-4.142-3.358-7.5-7.5-7.5h-53.333c-4.142,0-7.5,3.358-7.5,7.5s3.358,7.5,7.5,7.5h45.833
		v64.993h-38.333v-20.918c0-4.142-3.358-7.5-7.5-7.5s-7.5,3.358-7.5,7.5v20.918h-22.561V145.182c0-4.142-3.358-7.5-7.5-7.5h-53.333
		c-4.142,0-7.5,3.358-7.5,7.5v113.542H92.023v-49.337c0-4.142-3.358-7.5-7.5-7.5s-7.5,3.358-7.5,7.5v49.337H38.69v-41.837h15.06
		c4.142,0,7.5-3.358,7.5-7.5s-3.358-7.5-7.5-7.5H31.19c-4.142,0-7.5,3.358-7.5,7.5v49.337H7.5c-4.142,0-7.5,3.358-7.5,7.5
		s3.358,7.5,7.5,7.5h23.69h53.333h37.561h53.333h37.561h53.333H290c4.142,0,7.5-3.358,7.5-7.5S294.142,258.723,290,258.723z
		 M129.583,258.723V152.682h38.333v106.042H129.583z"/>
	<path d="M49.737,126.015c1.507,0,3.029-0.453,4.349-1.395l93.584-66.749l37.395,41.302c2.59,2.862,6.928,3.29,10.028,0.99
		l65.426-48.54l-0.024,4.116c-0.024,4.142,3.314,7.52,7.456,7.544c0.015,0,0.03,0,0.045,0c4.121,0,7.475-3.329,7.499-7.456
		l0.11-18.774c0.014-0.25,0.016-0.5,0.004-0.75l0.007-1.274c0.021-3.643-2.579-6.775-6.164-7.424l-20.465-3.706
		c-4.077-0.741-7.978,1.967-8.716,6.043c-0.738,4.076,1.968,7.979,6.043,8.716l5.227,0.947l-59.924,44.458l-37.31-41.208
		c-2.554-2.821-6.817-3.283-9.915-1.072l-99.019,70.625c-3.373,2.405-4.156,7.089-1.751,10.461
		C45.088,124.922,47.395,126.015,49.737,126.015z"/>
</g>
<g>
</g>
<g>
</g>
<g>
</g>
<g>
</g>
<g>
</g>
<g>
</g>
<g>
</g>
<g>
</g>
<g>
</g>
<g>
</g>
<g>
</g>
<g>
</g>
<g>
</g>
<g>
</g>
<g>
</g>
</svg>
