<?xml version="1.0" encoding="iso-8859-1"?>
<!-- Generator: Adobe Illustrator 17.1.0, SVG Export Plug-In . SVG Version: 6.00 Build 0)  -->
<!DOCTYPE svg PUBLIC "-//W3C//DTD SVG 1.1//EN" "http://www.w3.org/Graphics/SVG/1.1/DTD/svg11.dtd">
<svg version="1.1" id="Capa_1" xmlns="http://www.w3.org/2000/svg" xmlns:xlink="http://www.w3.org/1999/xlink" x="0px" y="0px"
	 viewBox="0 0 358.889 358.889" style="enable-background:new 0 0 358.889 358.889;" xml:space="preserve">
<path d="M352.046,125.048H329.17c-0.301-0.495-0.658-0.965-1.086-1.394l-94.362-94.361c-4.673-4.674-10.887-7.248-17.495-7.248
	c-6.609,0-12.823,2.574-17.485,7.237l-0.259,0.257c-9.646,9.647-9.646,25.344,0,34.991l41.083,41.083
	c2.898,2.896,7.592,2.896,10.49,0c2.896-2.897,2.896-7.593,0-10.49l-41.083-41.082c-3.863-3.863-3.863-10.149-0.011-14.002
	l0.259-0.258c1.871-1.871,4.359-2.902,7.006-2.902c2.646,0,5.134,1.031,7.005,2.903l85.266,85.266H99.889l60.518-60.518
	c9.646-9.647,9.646-25.344-0.011-35.001l-0.237-0.236c-4.673-4.674-10.887-7.248-17.496-7.248c-6.608,0-12.822,2.574-17.495,7.248
	l-95.755,95.755H6.843c-3.779,0-6.843,3.063-6.843,6.843v38.581c0,3.779,3.063,6.843,6.843,6.843H35.67h54.142v98.624
	c0,3.779,3.063,6.843,6.843,6.843s6.843-3.063,6.843-6.843v-98.624h27.71v98.624c0,3.779,3.063,6.843,6.843,6.843
	s6.843-3.063,6.843-6.843v-98.624h27.709v98.624c0,3.779,3.063,6.843,6.843,6.843s6.843-3.063,6.843-6.843v-98.624h27.709v98.624
	c0,3.779,3.063,6.843,6.843,6.843s6.843-3.063,6.843-6.843v-98.624h27.71v98.624c0,3.779,3.063,6.843,6.843,6.843
	s6.843-3.063,6.843-6.843v-98.624h45.86l-21.75,113.259c-3.626,18.881-20.212,32.585-39.438,32.585H105.14
	c-19.227,0-35.813-13.704-39.438-32.585l-16.219-84.455c-0.713-3.711-4.299-6.147-8.01-5.43c-3.712,0.713-6.143,4.299-5.43,8.01
	l16.219,84.455c4.861,25.316,27.1,43.69,52.878,43.69h148.609c25.778,0,48.017-18.374,52.878-43.69l22.245-115.839h23.174
	c3.779,0,6.843-3.063,6.843-6.843v-38.581C358.889,128.111,355.825,125.048,352.046,125.048z M135.657,39.781
	c1.871-1.871,4.359-2.902,7.005-2.902c2.646,0,5.135,1.031,7.017,2.913l0.237,0.236c3.863,3.863,3.863,10.149,0,14.012
	l-71.008,71.008H50.391L135.657,39.781z M345.203,163.629h-21.984H35.67H13.686v-24.896h331.518V163.629z"/>
<g>
</g>
<g>
</g>
<g>
</g>
<g>
</g>
<g>
</g>
<g>
</g>
<g>
</g>
<g>
</g>
<g>
</g>
<g>
</g>
<g>
</g>
<g>
</g>
<g>
</g>
<g>
</g>
<g>
</g>
</svg>
