<?xml version="1.0" encoding="iso-8859-1"?>
<!-- Generator: Adobe Illustrator 17.1.0, SVG Export Plug-In . SVG Version: 6.00 Build 0)  -->
<!DOCTYPE svg PUBLIC "-//W3C//DTD SVG 1.1//EN" "http://www.w3.org/Graphics/SVG/1.1/DTD/svg11.dtd">
<svg version="1.1" id="Capa_1" xmlns="http://www.w3.org/2000/svg" xmlns:xlink="http://www.w3.org/1999/xlink" x="0px" y="0px"
	 viewBox="0 0 265.537 265.537" style="enable-background:new 0 0 265.537 265.537;" xml:space="preserve">
<g>
	<path d="M226.793,0H38.744C17.38,0,0,17.381,0,38.744v188.049c0,21.363,17.38,38.744,38.744,38.744h188.049
		c21.364,0,38.744-17.381,38.744-38.744V38.744C265.537,17.381,248.157,0,226.793,0z M250.537,226.793
		c0,13.093-10.651,23.744-23.744,23.744H38.744C25.651,250.537,15,239.886,15,226.793V80.897h201.404c4.142,0,7.5-3.357,7.5-7.5
		s-3.358-7.5-7.5-7.5H15V38.744C15,25.651,25.651,15,38.744,15h188.049c13.093,0,23.744,10.651,23.744,23.744V226.793z"/>
	<path d="M39.648,32.948c-1.98,0-3.91,0.8-5.31,2.2c-1.39,1.39-2.19,3.33-2.19,5.3c0,1.98,0.8,3.91,2.19,5.3
		c1.4,1.4,3.33,2.2,5.31,2.2c1.97,0,3.9-0.8,5.3-2.2c1.39-1.39,2.19-3.319,2.19-5.3c0-1.97-0.8-3.91-2.19-5.3
		C43.548,33.748,41.618,32.948,39.648,32.948z"/>
	<path d="M69.908,32.948c-1.98,0-3.91,0.8-5.31,2.2c-1.39,1.39-2.2,3.33-2.2,5.3s0.81,3.91,2.2,5.3c1.4,1.4,3.33,2.2,5.31,2.2
		c1.97,0,3.9-0.8,5.3-2.2c1.39-1.39,2.19-3.33,2.19-5.3s-0.8-3.91-2.19-5.3C73.809,33.748,71.878,32.948,69.908,32.948z"/>
	<path d="M100.168,32.948c-1.98,0-3.91,0.8-5.31,2.2c-1.39,1.39-2.2,3.33-2.2,5.3s0.81,3.91,2.2,5.3c1.4,1.4,3.33,2.2,5.31,2.2
		c1.97,0,3.9-0.8,5.3-2.2c1.39-1.39,2.19-3.33,2.19-5.3s-0.8-3.899-2.19-5.3C104.068,33.748,102.138,32.948,100.168,32.948z"/>
	<path d="M86.997,130.546c-2.929-2.928-7.678-2.928-10.606,0L43.83,163.106c-2.929,2.93-2.929,7.678,0,10.607l32.561,32.561
		c1.464,1.464,3.384,2.196,5.303,2.196s3.839-0.732,5.303-2.196c2.929-2.93,2.929-7.678,0-10.607L59.74,168.41l27.257-27.257
		C89.926,138.224,89.926,133.476,86.997,130.546z"/>
	<path d="M189.146,130.546c-2.929-2.928-7.678-2.928-10.606,0c-2.929,2.93-2.929,7.678,0,10.607l27.257,27.257l-27.257,27.257
		c-2.929,2.93-2.929,7.678,0,10.607c1.464,1.464,3.384,2.196,5.303,2.196s3.839-0.732,5.303-2.196l32.561-32.561
		c2.929-2.93,2.929-7.678,0-10.607L189.146,130.546z"/>
	<path d="M152.366,123.756c-3.702-1.854-8.209-0.352-10.062,3.354l-35.253,70.507c-1.853,3.705-0.351,8.21,3.354,10.063
		c1.077,0.539,2.221,0.794,3.348,0.794c2.751,0,5.4-1.52,6.714-4.147l35.253-70.507
		C157.572,130.113,156.071,125.608,152.366,123.756z"/>
</g>
<g>
</g>
<g>
</g>
<g>
</g>
<g>
</g>
<g>
</g>
<g>
</g>
<g>
</g>
<g>
</g>
<g>
</g>
<g>
</g>
<g>
</g>
<g>
</g>
<g>
</g>
<g>
</g>
<g>
</g>
</svg>
