<?xml version="1.0" encoding="iso-8859-1"?>
<!-- Generator: Adobe Illustrator 17.1.0, SVG Export Plug-In . SVG Version: 6.00 Build 0)  -->
<!DOCTYPE svg PUBLIC "-//W3C//DTD SVG 1.1//EN" "http://www.w3.org/Graphics/SVG/1.1/DTD/svg11.dtd">
<svg version="1.1" id="Capa_1" xmlns="http://www.w3.org/2000/svg" xmlns:xlink="http://www.w3.org/1999/xlink" x="0px" y="0px"
	 viewBox="0 0 323.041 323.041" style="enable-background:new 0 0 323.041 323.041;" xml:space="preserve">
<g>
	<path d="M120.997,216.647c-14.009-6.635-25.329-18.354-32.777-33.023c-0.161-0.414-0.363-0.814-0.6-1.2
		c-5.944-12.18-9.255-26.312-9.255-41.229c0-44.66,30.058-80.993,67.004-80.993c24.394,0,45.778,15.844,57.497,39.461
		c0.129,0.327,0.278,0.642,0.45,0.944c5.748,11.943,9.058,25.803,9.058,40.588c0,4.143,3.358,7.5,7.5,7.5
		c0.925,0,1.807-0.175,2.625-0.481c0.818,0.306,1.7,0.481,2.625,0.481h31.057c4.142,0,7.5-3.357,7.5-7.5s-3.358-7.5-7.5-7.5h-29.055
		c-0.715-10.781-2.962-21.065-6.479-30.561c20.452-4.886,35.708-23.306,35.708-45.233c0-4.143-3.358-7.5-7.5-7.5s-7.5,3.357-7.5,7.5
		c0,15.891-11.825,29.064-27.136,31.203c-9.694-17.496-24.118-31.081-41.136-38.255l20.331-39.943
		c1.879-3.691,0.41-8.207-3.282-10.086c-3.689-1.881-8.207-0.411-10.086,3.281L158.62,46.193c-0.041,0.081-0.072,0.165-0.11,0.247
		c-4.28-0.81-8.668-1.238-13.14-1.238c-4.542,0-8.996,0.441-13.339,1.277c-0.044-0.095-0.08-0.191-0.128-0.285L110.479,4.1
		c-1.879-3.691-6.396-5.16-10.086-3.281c-3.692,1.879-5.161,6.395-3.282,10.086l20.368,40.017
		c-16.949,7.198-31.311,20.76-40.972,38.207c-15.409-2.05-27.338-15.268-27.338-31.229c0-4.143-3.358-7.5-7.5-7.5
		s-7.5,3.357-7.5,7.5c0,21.998,15.355,40.465,35.907,45.279c-3.508,9.483-5.748,19.751-6.462,30.515H34.342
		c-4.142,0-7.5,3.357-7.5,7.5s3.358,7.5,7.5,7.5h29.271c0.839,12.803,3.823,25.008,8.604,36.056l-23.12,23.12
		c-2.929,2.93-2.929,7.678,0,10.607c1.464,1.464,3.384,2.196,5.303,2.196s3.839-0.732,5.303-2.196l19.854-19.854
		c8.764,13.767,20.724,24.81,35.018,31.58c1.037,0.491,2.129,0.724,3.206,0.724c2.808,0,5.501-1.585,6.783-4.292
		C126.338,222.892,124.74,218.42,120.997,216.647z"/>
	<path d="M248.481,218.109c-2.929-2.928-7.678-2.928-10.606,0l-18,18l-18-18c-2.929-2.928-7.678-2.928-10.606,0
		c-2.929,2.93-2.929,7.678,0,10.607l18,18l-18,18c-2.929,2.93-2.929,7.678,0,10.607c1.464,1.464,3.384,2.196,5.303,2.196
		s3.839-0.732,5.303-2.196l18-18l18,18c1.464,1.464,3.384,2.196,5.303,2.196s3.839-0.732,5.303-2.196
		c2.929-2.93,2.929-7.678,0-10.607l-18-18l18-18C251.41,225.787,251.41,221.038,248.481,218.109z"/>
	<path d="M219.875,170.392c-42.085,0-76.325,34.239-76.325,76.324c0,42.086,34.239,76.325,76.325,76.325
		s76.324-34.239,76.324-76.325C296.199,204.631,261.96,170.392,219.875,170.392z M219.875,308.041
		c-33.814,0-61.325-27.511-61.325-61.325s27.51-61.324,61.325-61.324s61.324,27.51,61.324,61.324S253.689,308.041,219.875,308.041z"
		/>
</g>
<g>
</g>
<g>
</g>
<g>
</g>
<g>
</g>
<g>
</g>
<g>
</g>
<g>
</g>
<g>
</g>
<g>
</g>
<g>
</g>
<g>
</g>
<g>
</g>
<g>
</g>
<g>
</g>
<g>
</g>
</svg>
