<?xml version="1.0" encoding="iso-8859-1"?>
<!-- Generator: Adobe Illustrator 17.1.0, SVG Export Plug-In . SVG Version: 6.00 Build 0)  -->
<!DOCTYPE svg PUBLIC "-//W3C//DTD SVG 1.1//EN" "http://www.w3.org/Graphics/SVG/1.1/DTD/svg11.dtd">
<svg version="1.1" id="Capa_1" xmlns="http://www.w3.org/2000/svg" xmlns:xlink="http://www.w3.org/1999/xlink" x="0px" y="0px"
	 viewBox="0 0 359.962 359.962" style="enable-background:new 0 0 359.962 359.962;" xml:space="preserve">
<g>
	<path d="M122.407,110.236c17.535,0,31.8-14.266,31.8-31.8c0-15.679-11.406-28.744-26.356-31.333
		c-1.498-22.334-20.146-40.048-42.853-40.048c-20.781,0-38.163,14.836-42.11,34.473c-2.681-0.657-5.448-0.993-8.252-0.993
		C15.538,40.535,0,56.073,0,75.171s15.538,34.636,34.6,34.636l87.771,0.429C122.383,110.236,122.395,110.236,122.407,110.236z
		 M15,75.171c0-10.828,8.809-19.637,19.637-19.637c3.889,0,7.651,1.139,10.879,3.293c2.382,1.591,5.462,1.685,7.938,0.244
		c2.475-1.441,3.914-4.166,3.707-7.023l-0.017-0.238c-0.051-0.69-0.094-1.287-0.094-1.808c0-15.412,12.538-27.95,27.95-27.95
		s27.95,12.538,27.95,27.95c0,0.994-0.074,2.091-0.225,3.354c-0.269,2.248,0.491,4.497,2.069,6.12
		c1.578,1.623,3.802,2.451,6.06,2.24c0.61-0.056,1.104-0.082,1.555-0.082c9.264,0,16.8,7.536,16.8,16.8
		c0,9.259-7.529,16.793-16.787,16.8l-87.784-0.429C23.809,94.808,15,85.999,15,75.171z"/>
	<path d="M333.606,47.103c-1.496-22.336-20.144-40.048-42.853-40.048c-20.782,0-38.163,14.836-42.11,34.473
		c-2.681-0.657-5.448-0.993-8.252-0.993c-19.099,0-34.636,15.538-34.636,34.637s15.538,34.636,34.6,34.636l42.468,0.208
		c0.013,0,0.025,0,0.037,0c4.125,0,7.479-3.334,7.5-7.463c0.02-4.142-3.321-7.516-7.463-7.537l-42.505-0.208
		c-10.828,0-19.636-8.809-19.636-19.636s8.809-19.637,19.636-19.637c3.89,0,7.652,1.139,10.879,3.293
		c2.382,1.591,5.462,1.686,7.938,0.244c2.475-1.441,3.914-4.166,3.707-7.022l-0.017-0.237c-0.051-0.691-0.094-1.287-0.094-1.808
		c0-15.412,12.538-27.95,27.95-27.95s27.95,12.538,27.95,27.95c0,0.994-0.073,2.091-0.225,3.354c-0.269,2.248,0.491,4.497,2.07,6.12
		c1.578,1.623,3.807,2.446,6.06,2.24c0.61-0.056,1.104-0.082,1.554-0.082c9.264,0,16.8,7.536,16.8,16.8s-7.536,16.8-16.8,16.8
		c-4.142,0-7.5,3.358-7.5,7.5s3.358,7.5,7.5,7.5c17.535,0,31.8-14.266,31.8-31.8C359.962,62.757,348.556,49.692,333.606,47.103z"/>
	<path d="M230.163,289.773c-1.498-22.334-20.146-40.048-42.853-40.048c-11.02,0-21.497,4.168-29.502,11.735
		c-3.01,2.846-3.143,7.593-0.298,10.603c2.846,3.01,7.593,3.143,10.603,0.298c5.208-4.924,12.026-7.636,19.197-7.636
		c15.412,0,27.95,12.538,27.95,27.95c0,0.994-0.073,2.091-0.225,3.354c-0.27,2.249,0.492,4.499,2.071,6.122
		c1.58,1.624,3.805,2.45,6.063,2.238c0.597-0.055,1.104-0.082,1.549-0.082c9.264,0,16.8,7.537,16.8,16.8s-7.536,16.8-16.763,16.8
		l-87.808-0.429c-10.828,0-19.636-8.809-19.636-19.637s8.809-19.637,19.636-19.637c3.889,0,7.651,1.139,10.879,3.294
		c3.446,2.298,8.103,1.372,10.402-2.074c2.3-3.445,1.371-8.102-2.074-10.402c-5.702-3.807-12.344-5.818-19.208-5.818
		c-19.099,0-34.636,15.538-34.636,34.637s15.538,34.637,34.6,34.637l87.808,0.429c17.535,0,31.8-14.266,31.8-31.8
		C256.519,305.429,245.113,292.363,230.163,289.773z"/>
	<path d="M281.423,124.871c-4.142,0-7.5,3.358-7.5,7.5v31.697h-54.872c-3.526-18.674-19.953-32.846-39.636-32.846
		s-36.109,14.172-39.635,32.846H84.908v-31.697c0-4.142-3.358-7.5-7.5-7.5s-7.5,3.358-7.5,7.5v39.197c0,4.142,3.358,7.5,7.5,7.5
		h62.373c3.067,16.242,15.893,29.068,32.135,32.135v21.07c0,4.142,3.358,7.5,7.5,7.5s7.5-3.358,7.5-7.5v-21.07
		c16.242-3.067,29.069-15.894,32.136-32.135h62.372c4.142,0,7.5-3.358,7.5-7.5v-39.197
		C288.923,128.229,285.565,124.871,281.423,124.871z M179.416,196.913c-13.976,0-25.345-11.37-25.345-25.345
		s11.37-25.346,25.345-25.346s25.346,11.37,25.346,25.346S193.391,196.913,179.416,196.913z"/>
</g>
<g>
</g>
<g>
</g>
<g>
</g>
<g>
</g>
<g>
</g>
<g>
</g>
<g>
</g>
<g>
</g>
<g>
</g>
<g>
</g>
<g>
</g>
<g>
</g>
<g>
</g>
<g>
</g>
<g>
</g>
</svg>
