<?xml version="1.0" encoding="iso-8859-1"?>
<!-- Generator: Adobe Illustrator 17.1.0, SVG Export Plug-In . SVG Version: 6.00 Build 0)  -->
<!DOCTYPE svg PUBLIC "-//W3C//DTD SVG 1.1//EN" "http://www.w3.org/Graphics/SVG/1.1/DTD/svg11.dtd">
<svg version="1.1" id="Capa_1" xmlns="http://www.w3.org/2000/svg" xmlns:xlink="http://www.w3.org/1999/xlink" x="0px" y="0px"
	 viewBox="0 0 303.523 303.523" style="enable-background:new 0 0 303.523 303.523;" xml:space="preserve">
<g>
	<path d="M247.113,80.34c0.005-0.331,0.007-0.659,0.007-0.984C247.121,35.599,211.521,0,167.765,0
		c-41.367,0-75.442,31.812-79.042,72.259c-7.285-2.896-15.081-4.396-23.042-4.396c-34.465,0-62.505,28.04-62.505,62.506
		s28.04,62.506,62.469,62.506l40.946,0.2v102.948c0,4.143,3.358,7.5,7.5,7.5s7.5-3.357,7.5-7.5V193.148l28.921,0.141v102.734
		c0,4.143,3.358,7.5,7.5,7.5s7.5-3.357,7.5-7.5V193.363l13.713,0.067c4.17-0.01,7.517-3.321,7.537-7.464
		c0.02-4.142-3.321-7.516-7.463-7.536l-13.787-0.067v-75.088c10.83-3.235,18.75-13.284,18.75-25.152
		c0-14.475-11.776-26.25-26.25-26.25s-26.25,11.775-26.25,26.25c0,11.869,7.92,21.917,18.75,25.152v75.015l-28.921-0.141v-10.873
		c0-1.989-0.79-3.896-2.197-5.304l-19.573-19.573c0.447-1.916,0.69-3.909,0.69-5.958c0-14.475-11.776-26.25-26.25-26.25
		s-26.25,11.775-26.25,26.25s11.776,26.25,26.25,26.25c6.828,0,13.053-2.622,17.727-6.91l14.602,14.601v7.693l-40.909-0.2
		c-26.194,0-47.505-21.312-47.505-47.506c0-26.195,21.311-47.506,47.505-47.506c9.411,0,18.515,2.757,26.328,7.973
		c2.381,1.591,5.462,1.686,7.938,0.244s3.914-4.167,3.707-7.023l-0.033-0.457c-0.109-1.492-0.212-2.901-0.212-4.244
		c0-35.485,28.87-64.355,64.356-64.355s64.356,28.87,64.356,64.355c0,2.32-0.167,4.844-0.51,7.714
		c-0.269,2.248,0.492,4.497,2.07,6.12c1.578,1.622,3.803,2.44,6.06,2.239c1.472-0.135,2.695-0.197,3.851-0.197
		c23.024,0,41.756,18.731,41.756,41.756s-18.731,41.756-41.72,41.756l-13.329-0.064c-0.012,0-0.024,0-0.037,0
		c-4.125,0-7.479,3.334-7.499,7.464c-0.02,4.142,3.322,7.516,7.464,7.536l13.365,0.064c31.295,0,56.756-25.461,56.756-56.756
		C300.347,106.874,276.775,82.164,247.113,80.34z M146.762,78.122c0-6.203,5.047-11.25,11.25-11.25s11.25,5.047,11.25,11.25
		s-5.047,11.25-11.25,11.25S146.762,84.325,146.762,78.122z M74.262,147.69c-6.203,0-11.25-5.047-11.25-11.25
		s5.047-11.25,11.25-11.25s11.25,5.047,11.25,11.25S80.465,147.69,74.262,147.69z"/>
	<path d="M238.256,162.69c14.474,0,26.25-11.775,26.25-26.25s-11.776-26.25-26.25-26.25s-26.25,11.775-26.25,26.25
		c0,3.244,0.596,6.351,1.676,9.221l-16.309,16.31c-1.407,1.407-2.197,3.314-2.197,5.304v128.748c0,4.143,3.358,7.5,7.5,7.5
		s7.5-3.357,7.5-7.5V170.382l12.693-12.693C227.197,160.831,232.512,162.69,238.256,162.69z M238.256,125.19
		c6.203,0,11.25,5.047,11.25,11.25s-5.047,11.25-11.25,11.25s-11.25-5.047-11.25-11.25S232.053,125.19,238.256,125.19z"/>
</g>
<g>
</g>
<g>
</g>
<g>
</g>
<g>
</g>
<g>
</g>
<g>
</g>
<g>
</g>
<g>
</g>
<g>
</g>
<g>
</g>
<g>
</g>
<g>
</g>
<g>
</g>
<g>
</g>
<g>
</g>
</svg>
