<?xml version="1.0" encoding="iso-8859-1"?>
<!-- Generator: Adobe Illustrator 17.1.0, SVG Export Plug-In . SVG Version: 6.00 Build 0)  -->
<!DOCTYPE svg PUBLIC "-//W3C//DTD SVG 1.1//EN" "http://www.w3.org/Graphics/SVG/1.1/DTD/svg11.dtd">
<svg version="1.1" id="Capa_1" xmlns="http://www.w3.org/2000/svg" xmlns:xlink="http://www.w3.org/1999/xlink" x="0px" y="0px"
	 viewBox="0 0 297.172 297.172" style="enable-background:new 0 0 297.172 297.172;" xml:space="preserve">
<g>
	<path d="M243.938,98.917c0.005-0.33,0.008-0.658,0.008-0.983c0-43.757-35.6-79.356-79.356-79.356
		c-41.366,0-75.441,31.813-79.041,72.259c-7.286-2.896-15.081-4.395-23.042-4.395C28.04,86.442,0,114.481,0,148.947
		c0,34.465,28.04,62.505,62.506,62.505c4.143,0,7.5-3.358,7.5-7.5s-3.357-7.5-7.5-7.5C36.312,196.453,15,175.142,15,148.947
		s21.312-47.505,47.506-47.505c9.41,0,18.515,2.757,26.328,7.973c2.383,1.59,5.464,1.684,7.938,0.244
		c2.476-1.441,3.914-4.167,3.707-7.024l-0.032-0.44c-0.109-1.498-0.213-2.913-0.213-4.26c0-35.486,28.87-64.356,64.355-64.356
		c35.486,0,64.356,28.87,64.356,64.356c0,2.317-0.167,4.841-0.511,7.714c-0.269,2.248,0.492,4.497,2.07,6.119
		c1.58,1.623,3.817,2.445,6.06,2.24c1.477-0.135,2.7-0.198,3.851-0.198c23.024,0,41.757,18.731,41.757,41.756
		s-18.732,41.756-41.757,41.756c-4.143,0-7.5,3.358-7.5,7.5s3.357,7.5,7.5,7.5c31.296,0,56.757-25.461,56.757-56.756
		C297.172,125.453,273.6,100.742,243.938,98.917z"/>
	<path d="M235.662,228.699c-3.089-2.758-7.83-2.488-10.589,0.602c-19.448,21.793-47.327,34.293-76.487,34.293
		s-57.039-12.5-76.487-34.293c-2.757-3.089-7.498-3.361-10.589-0.602c-3.091,2.758-3.36,7.499-0.603,10.589
		c22.291,24.979,54.249,39.306,87.679,39.306s65.388-14.326,87.679-39.306C239.022,236.198,238.753,231.457,235.662,228.699z"/>
	<path d="M148.586,209.424c16.362,0,31.595-7.39,41.793-20.273c2.57-3.248,2.021-7.965-1.227-10.536
		c-3.245-2.569-7.964-2.022-10.535,1.226c-7.335,9.268-18.281,14.583-30.031,14.583s-22.696-5.315-30.031-14.583
		c-2.571-3.248-7.288-3.797-10.535-1.226c-3.248,2.571-3.797,7.288-1.227,10.536C116.991,202.034,132.224,209.424,148.586,209.424z"
		/>
	<path d="M95.545,205.451c-2.659-3.175-7.388-3.594-10.564-0.936c-3.176,2.659-3.595,7.389-0.936,10.565
		c16.059,19.179,39.583,30.179,64.541,30.179s48.482-11,64.541-30.179c2.659-3.176,2.24-7.906-0.936-10.565
		c-3.174-2.658-7.906-2.24-10.564,0.936c-13.201,15.767-32.534,24.809-53.041,24.809S108.746,221.218,95.545,205.451z"/>
</g>
<g>
</g>
<g>
</g>
<g>
</g>
<g>
</g>
<g>
</g>
<g>
</g>
<g>
</g>
<g>
</g>
<g>
</g>
<g>
</g>
<g>
</g>
<g>
</g>
<g>
</g>
<g>
</g>
<g>
</g>
</svg>
