<?xml version="1.0" encoding="iso-8859-1"?>
<!-- Generator: Adobe Illustrator 17.1.0, SVG Export Plug-In . SVG Version: 6.00 Build 0)  -->
<!DOCTYPE svg PUBLIC "-//W3C//DTD SVG 1.1//EN" "http://www.w3.org/Graphics/SVG/1.1/DTD/svg11.dtd">
<svg version="1.1" id="Capa_1" xmlns="http://www.w3.org/2000/svg" xmlns:xlink="http://www.w3.org/1999/xlink" x="0px" y="0px"
	 viewBox="0 0 344.859 344.859" style="enable-background:new 0 0 344.859 344.859;" xml:space="preserve">
<g>
	<path d="M337.359,227.82h-88.827c-4.143,0-7.5,3.357-7.5,7.5v29.286h-35.031V252.72c0-4.143-3.357-7.5-7.5-7.5H180.16v-61.164
		l61.54,0.3c25.543,0,46.324-20.781,46.324-46.324c0-24.071-18.453-43.913-41.958-46.12c-0.372-35.048-28.999-63.444-64.134-63.444
		c-32.727,0-59.807,24.638-63.667,56.338c-5.36-1.878-11.024-2.847-16.797-2.847c-28.042,0-50.856,22.814-50.856,50.856
		s22.814,50.856,50.856,50.856c4.143,0,7.5-3.357,7.5-7.5s-3.357-7.5-7.5-7.5c-19.771,0-35.856-16.085-35.856-35.856
		s16.085-35.856,35.856-35.856c7.103,0,13.974,2.081,19.87,6.017c2.384,1.591,5.461,1.685,7.937,0.245
		c2.475-1.44,3.914-4.165,3.708-7.021l-0.029-0.401c-0.082-1.134-0.16-2.204-0.16-3.193c0-27.095,22.044-49.138,49.139-49.138
		s49.138,22.043,49.138,49.138c0,1.762-0.128,3.69-0.391,5.895c-0.268,2.247,0.493,4.495,2.071,6.117
		c1.576,1.621,3.797,2.452,6.058,2.239c1.111-0.102,2.03-0.148,2.892-0.148c17.272,0,31.324,14.052,31.324,31.324
		s-14.052,31.324-31.288,31.324l-101.601-0.496c-0.012,0-0.024,0-0.037,0c-4.125,0-7.479,3.334-7.499,7.464
		c-0.021,4.142,3.321,7.516,7.464,7.536l25.097,0.123v61.237h-18.342c-4.143,0-7.5,3.357-7.5,7.5v38.772c0,4.143,3.357,7.5,7.5,7.5
		h51.683c4.143,0,7.5-3.357,7.5-7.5v-11.886h35.031v29.285c0,4.143,3.357,7.5,7.5,7.5h88.827c4.143,0,7.5-3.357,7.5-7.5V235.32
		C344.859,231.178,341.502,227.82,337.359,227.82z M191.001,283.992h-36.683V260.22h36.683V283.992z M329.859,301.392h-73.827
		V242.82h73.827V301.392z"/>
	<path d="M121.572,264.606h-17.745V235.32c0-4.143-3.357-7.5-7.5-7.5H7.5c-4.143,0-7.5,3.357-7.5,7.5v73.571
		c0,4.143,3.357,7.5,7.5,7.5h88.827c4.143,0,7.5-3.357,7.5-7.5v-29.285h17.745c4.143,0,7.5-3.357,7.5-7.5
		S125.715,264.606,121.572,264.606z M88.827,301.392H15V242.82h73.827V301.392z"/>
</g>
<g>
</g>
<g>
</g>
<g>
</g>
<g>
</g>
<g>
</g>
<g>
</g>
<g>
</g>
<g>
</g>
<g>
</g>
<g>
</g>
<g>
</g>
<g>
</g>
<g>
</g>
<g>
</g>
<g>
</g>
</svg>
