<?xml version="1.0" encoding="iso-8859-1"?>
<!-- Generator: Adobe Illustrator 17.1.0, SVG Export Plug-In . SVG Version: 6.00 Build 0)  -->
<!DOCTYPE svg PUBLIC "-//W3C//DTD SVG 1.1//EN" "http://www.w3.org/Graphics/SVG/1.1/DTD/svg11.dtd">
<svg version="1.1" id="Capa_1" xmlns="http://www.w3.org/2000/svg" xmlns:xlink="http://www.w3.org/1999/xlink" x="0px" y="0px"
	 viewBox="0 0 322.048 322.048" style="enable-background:new 0 0 322.048 322.048;" xml:space="preserve">
<g>
	<path d="M74.907,192.875l177.946,0.869c31.295,0,56.756-25.46,56.756-56.756c0-4.142-3.358-7.5-7.5-7.5s-7.5,3.358-7.5,7.5
		c0,23.024-18.731,41.756-41.719,41.756l-177.946-0.869c-26.194,0-47.505-21.311-47.505-47.505S48.75,82.864,74.944,82.864
		c9.411,0,18.515,2.757,26.328,7.973c2.382,1.59,5.461,1.685,7.938,0.244c2.475-1.441,3.914-4.167,3.707-7.023l-0.033-0.457
		c-0.109-1.492-0.212-2.902-0.212-4.245c0-35.486,28.87-64.356,64.356-64.356s64.356,28.87,64.356,64.356
		c0,2.321-0.167,4.844-0.51,7.714c-0.269,2.247,0.492,4.496,2.069,6.119c1.578,1.622,3.802,2.446,6.058,2.241
		c1.482-0.135,2.707-0.198,3.853-0.198c8.368,0,16.439,2.464,23.341,7.127c3.434,2.318,8.094,1.417,10.414-2.016
		c2.319-3.433,1.416-8.095-2.016-10.414c-8.418-5.687-18.108-8.971-28.216-9.59c0.005-0.33,0.007-0.658,0.007-0.983
		C256.383,35.599,220.784,0,177.027,0c-41.367,0-75.442,31.813-79.042,72.259c-7.285-2.895-15.081-4.395-23.042-4.395
		c-34.465,0-62.505,28.04-62.505,62.505C12.438,164.835,40.479,192.875,74.907,192.875z"/>
	<path d="M104.758,202.247c-4.142,0-7.5,3.358-7.5,7.5v29.632c0,19.297-15.699,34.996-34.997,34.996H45.297l3.015-3.638
		c2.643-3.189,2.2-7.917-0.989-10.561c-3.189-2.643-7.917-2.2-10.561,0.989l-13.271,16.014c-2.325,2.805-2.297,6.875,0.065,9.648
		l13.485,15.833c1.484,1.742,3.592,2.637,5.713,2.637c1.72,0,3.448-0.588,4.859-1.79c3.154-2.686,3.533-7.419,0.847-10.573
		l-3.033-3.561h16.834c27.568,0,49.997-22.428,49.997-49.996v-29.632C112.258,205.604,108.9,202.247,104.758,202.247z"/>
	<path d="M285.888,261.165c-2.644-3.19-7.372-3.632-10.561-0.989c-3.189,2.643-3.632,7.371-0.989,10.561l3.015,3.638h-16.965
		c-19.297,0-34.997-15.699-34.997-34.996c0-4.142-3.358-7.5-7.5-7.5s-7.5,3.358-7.5,7.5c0,27.568,22.428,49.996,49.997,49.996
		h16.834l-3.033,3.561c-2.686,3.153-2.307,7.887,0.847,10.573c1.412,1.202,3.14,1.791,4.859,1.79c2.121,0,4.23-0.896,5.713-2.637
		l13.485-15.833c2.362-2.773,2.39-6.843,0.065-9.648L285.888,261.165z"/>
	<path d="M172.162,295.502l-3.638,3.015v-88.77c0-4.142-3.358-7.5-7.5-7.5s-7.5,3.358-7.5,7.5v88.639l-3.561-3.033
		c-3.154-2.686-7.887-2.307-10.573,0.846c-2.686,3.153-2.307,7.887,0.846,10.573l15.833,13.486c1.401,1.193,3.132,1.791,4.863,1.791
		c1.698,0,3.397-0.574,4.786-1.725l16.014-13.271c3.189-2.643,3.632-7.371,0.989-10.561
		C180.079,293.301,175.351,292.859,172.162,295.502z"/>
</g>
<g>
</g>
<g>
</g>
<g>
</g>
<g>
</g>
<g>
</g>
<g>
</g>
<g>
</g>
<g>
</g>
<g>
</g>
<g>
</g>
<g>
</g>
<g>
</g>
<g>
</g>
<g>
</g>
<g>
</g>
</svg>
