<?xml version="1.0" encoding="iso-8859-1"?>
<!-- Generator: Adobe Illustrator 17.1.0, SVG Export Plug-In . SVG Version: 6.00 Build 0)  -->
<!DOCTYPE svg PUBLIC "-//W3C//DTD SVG 1.1//EN" "http://www.w3.org/Graphics/SVG/1.1/DTD/svg11.dtd">
<svg version="1.1" id="Capa_1" xmlns="http://www.w3.org/2000/svg" xmlns:xlink="http://www.w3.org/1999/xlink" x="0px" y="0px"
	 viewBox="0 0 319.185 319.185" style="enable-background:new 0 0 319.185 319.185;" xml:space="preserve">
<g>
	<path d="M86.481,75.865c-2.929-2.928-7.678-2.928-10.606,0c-46.162,46.162-46.162,121.273,0,167.436
		c23.081,23.08,53.399,34.621,83.717,34.621s60.636-11.541,83.717-34.621c46.162-46.162,46.162-121.273,0-167.436
		C215.014,47.57,174.7,35.531,135.468,43.66c-4.056,0.84-6.663,4.81-5.823,8.865c0.84,4.057,4.813,6.665,8.866,5.822
		c34.271-7.096,69.482,3.414,94.192,28.125c40.313,40.313,40.313,105.907,0,146.221c-40.313,40.314-105.908,40.314-146.222,0
		c-40.313-40.313-40.313-105.907,0-146.221C89.41,83.543,89.41,78.795,86.481,75.865z"/>
	<path d="M272.434,46.74C242.293,16.6,202.219,0,159.592,0S76.891,16.6,46.75,46.74c-62.221,62.222-62.221,163.464,0,225.686
		c30.273,30.272,70.843,46.759,112.756,46.759c10.551,0,21.188-1.045,31.767-3.177c4.06-0.819,6.688-4.774,5.87-8.835
		c-0.818-4.061-4.77-6.689-8.834-5.87c-47.664,9.613-96.618-5.15-130.951-39.484c-56.373-56.372-56.373-148.098,0-204.471
		C84.664,30.039,120.972,15,159.592,15s74.928,15.039,102.236,42.348c56.373,56.373,56.373,148.098,0,204.471
		c-2.929,2.93-2.929,7.678,0,10.607c2.929,2.928,7.678,2.928,10.606,0C334.656,210.204,334.656,108.962,272.434,46.74z"/>
	<path d="M104.527,223.506l64.712-35.402c4.334-1.462,8.309-3.907,11.638-7.236c3.333-3.333,5.78-7.312,7.241-11.652l36.575-63.168
		c1.686-2.911,1.227-6.589-1.124-8.996c-2.35-2.408-6.015-2.955-8.967-1.342l-64.566,35.322c-4.37,1.458-8.377,3.914-11.729,7.266
		c-3.307,3.307-5.743,7.251-7.208,11.552l-36.663,63.318c-1.686,2.911-1.227,6.589,1.124,8.996c1.449,1.484,3.396,2.262,5.37,2.262
		C102.157,224.426,103.395,224.125,104.527,223.506z M198.273,121.741l-12.902,22.283c-1.247-2.058-2.749-3.981-4.494-5.727
		c-1.603-1.603-3.359-2.995-5.229-4.179L198.273,121.741z M148.914,148.905c2.852-2.853,6.645-4.424,10.678-4.424
		s7.826,1.571,10.678,4.424c2.853,2.852,4.423,6.645,4.423,10.678s-1.571,7.826-4.423,10.678c-2.852,2.853-6.645,4.424-10.678,4.424
		s-7.826-1.571-10.678-4.424c-2.853-2.852-4.423-6.645-4.423-10.678S146.061,151.757,148.914,148.905z M133.8,175.121
		c1.25,2.066,2.756,3.997,4.508,5.748c1.608,1.607,3.37,3.003,5.246,4.189l-22.697,12.417L133.8,175.121z"/>
</g>
<g>
</g>
<g>
</g>
<g>
</g>
<g>
</g>
<g>
</g>
<g>
</g>
<g>
</g>
<g>
</g>
<g>
</g>
<g>
</g>
<g>
</g>
<g>
</g>
<g>
</g>
<g>
</g>
<g>
</g>
</svg>
