<?xml version="1.0" encoding="iso-8859-1"?>
<!-- Generator: Adobe Illustrator 17.1.0, SVG Export Plug-In . SVG Version: 6.00 Build 0)  -->
<!DOCTYPE svg PUBLIC "-//W3C//DTD SVG 1.1//EN" "http://www.w3.org/Graphics/SVG/1.1/DTD/svg11.dtd">
<svg version="1.1" id="Capa_1" xmlns="http://www.w3.org/2000/svg" xmlns:xlink="http://www.w3.org/1999/xlink" x="0px" y="0px"
	 viewBox="0 0 337.555 337.555" style="enable-background:new 0 0 337.555 337.555;" xml:space="preserve">
<g>
	<path d="M305.521,187.978c4.142,0,7.5-3.357,7.5-7.5V7.5c0-4.143-3.358-7.5-7.5-7.5H32.034c-4.142,0-7.5,3.357-7.5,7.5v172.978
		c0,4.143,3.358,7.5,7.5,7.5h102.588h60.812v43.794h-53.312v-14.284c0-4.143-3.358-7.5-7.5-7.5s-7.5,3.357-7.5,7.5v14.284H57.235
		c-18.031,0-32.701,14.67-32.701,32.701v24.303c0,4.143,3.358,7.5,7.5,7.5s7.5-3.357,7.5-7.5v-24.303
		c0-9.761,7.941-17.701,17.701-17.701h77.387h68.312h77.387c9.76,0,17.701,7.94,17.701,17.701v58.082H32.034
		c-4.142,0-7.5,3.357-7.5,7.5s3.358,7.5,7.5,7.5h273.487c4.142,0,7.5-3.357,7.5-7.5v-65.582c0-18.031-14.67-32.701-32.701-32.701
		h-69.887v-43.794H305.521z M134.622,172.978H39.534V15h258.487v157.978h-95.088H134.622z"/>
	<path d="M229.278,154.245c0-4.143-3.358-7.5-7.5-7.5H63.548V41.232h210.458v113.013c0,4.143,3.358,7.5,7.5,7.5s7.5-3.357,7.5-7.5
		V33.732c0-4.143-3.358-7.5-7.5-7.5H56.048c-4.142,0-7.5,3.357-7.5,7.5v120.513c0,4.143,3.358,7.5,7.5,7.5h165.729
		C225.92,161.745,229.278,158.388,229.278,154.245z"/>
	<rect x="177.437" y="277.163" width="97.63" height="15"/>
	<path d="M151.307,289.967c1.4-1.399,2.2-3.33,2.2-5.3c0-1.979-0.8-3.91-2.2-5.31c-1.4-1.391-3.33-2.19-5.3-2.19
		c-1.98,0-3.91,0.8-5.31,2.19c-1.39,1.399-2.19,3.33-2.19,5.31c0,1.97,0.8,3.9,2.19,5.3c1.4,1.4,3.33,2.2,5.31,2.2
		C147.977,292.167,149.907,291.367,151.307,289.967z"/>
</g>
<g>
</g>
<g>
</g>
<g>
</g>
<g>
</g>
<g>
</g>
<g>
</g>
<g>
</g>
<g>
</g>
<g>
</g>
<g>
</g>
<g>
</g>
<g>
</g>
<g>
</g>
<g>
</g>
<g>
</g>
</svg>
