<?xml version="1.0" encoding="iso-8859-1"?>
<!-- Generator: Adobe Illustrator 17.1.0, SVG Export Plug-In . SVG Version: 6.00 Build 0)  -->
<!DOCTYPE svg PUBLIC "-//W3C//DTD SVG 1.1//EN" "http://www.w3.org/Graphics/SVG/1.1/DTD/svg11.dtd">
<svg version="1.1" id="Capa_1" xmlns="http://www.w3.org/2000/svg" xmlns:xlink="http://www.w3.org/1999/xlink" x="0px" y="0px"
	 viewBox="0 0 254.407 254.407" style="enable-background:new 0 0 254.407 254.407;" xml:space="preserve">
<g>
	<path d="M245.207,138.294h-7.75c-1.208-7.69-4.247-14.777-8.649-20.812l5.5-5.5c2.929-2.929,2.929-7.678,0-10.607
		c-2.929-2.928-7.678-2.929-10.607,0l-5.501,5.5c-6.034-4.402-13.121-7.441-20.812-8.649v-7.75c0-4.142-3.358-7.5-7.5-7.5
		s-7.5,3.358-7.5,7.5v7.75c-7.69,1.208-14.778,4.247-20.812,8.649l-5.5-5.5c-2.929-2.929-7.678-2.929-10.606,0
		c-2.929,2.929-2.929,7.678,0,10.606l5.5,5.5c-4.402,6.034-7.441,13.122-8.649,20.812h-7.75c-4.142,0-7.5,3.358-7.5,7.5
		s3.358,7.5,7.5,7.5h7.75c1.208,7.69,4.247,14.778,8.649,20.812l-5.5,5.5c-2.929,2.929-2.929,7.677,0,10.606
		c1.464,1.465,3.384,2.197,5.303,2.197c1.919,0,3.839-0.732,5.303-2.196l5.5-5.5c6.034,4.402,13.121,7.441,20.812,8.649v7.75
		c0,4.142,3.358,7.5,7.5,7.5s7.5-3.358,7.5-7.5v-7.75c7.69-1.208,14.778-4.247,20.812-8.649l5.5,5.5
		c1.464,1.465,3.384,2.197,5.303,2.197s3.839-0.732,5.303-2.197c2.929-2.929,2.929-7.678,0-10.606l-5.5-5.5
		c4.402-6.034,7.441-13.121,8.649-20.812h7.75c4.142,0,7.5-3.358,7.5-7.5S249.349,138.294,245.207,138.294z M189.889,178.949
		c-18.282,0-33.155-14.873-33.155-33.155s14.873-33.155,33.155-33.155s33.155,14.873,33.155,33.155S208.171,178.949,189.889,178.949
		z"/>
	<path d="M189.894,138.293c-1.98,0-3.91,0.8-5.31,2.2c-1.39,1.39-2.19,3.33-2.19,5.3s0.8,3.91,2.19,5.3c1.4,1.4,3.33,2.2,5.31,2.2
		c1.97,0,3.9-0.8,5.3-2.2c1.4-1.39,2.2-3.33,2.2-5.3s-0.8-3.91-2.2-5.3C193.793,139.093,191.863,138.293,189.894,138.293z"/>
	<path d="M189.889,221.271c-4.142,0-7.5,3.358-7.5,7.5v10.637H16.7V79.141c0-0.31-0.024-0.613-0.061-0.913L69.26,25.606V67.56H42.98
		c-4.142,0-7.5,3.358-7.5,7.5s3.358,7.5,7.5,7.5h33.78c4.142,0,7.5-3.358,7.5-7.5V15h98.129v49.631c0,4.142,3.358,7.5,7.5,7.5
		s7.5-3.358,7.5-7.5V7.5c0-4.142-3.358-7.5-7.5-7.5H80.841c-0.714,0-1.402,0.106-2.056,0.293c-2.586-0.727-5.395-0.029-7.328,1.904
		l-67.56,67.56c-1.99,1.99-2.625,4.82-1.91,7.349C1.805,77.754,1.7,78.434,1.7,79.141v167.767c0,4.142,3.358,7.5,7.5,7.5h180.689
		c4.142,0,7.5-3.358,7.5-7.5v-18.137C197.389,224.628,194.031,221.271,189.889,221.271z"/>
</g>
<g>
</g>
<g>
</g>
<g>
</g>
<g>
</g>
<g>
</g>
<g>
</g>
<g>
</g>
<g>
</g>
<g>
</g>
<g>
</g>
<g>
</g>
<g>
</g>
<g>
</g>
<g>
</g>
<g>
</g>
</svg>
