<?xml version="1.0" encoding="iso-8859-1"?>
<!-- Generator: Adobe Illustrator 17.1.0, SVG Export Plug-In . SVG Version: 6.00 Build 0)  -->
<!DOCTYPE svg PUBLIC "-//W3C//DTD SVG 1.1//EN" "http://www.w3.org/Graphics/SVG/1.1/DTD/svg11.dtd">
<svg version="1.1" id="Capa_1" xmlns="http://www.w3.org/2000/svg" xmlns:xlink="http://www.w3.org/1999/xlink" x="0px" y="0px"
	 viewBox="0 0 292.544 292.544" style="enable-background:new 0 0 292.544 292.544;" xml:space="preserve">
<path d="M255.345,135.413l35.64-46.256c1.745-2.264,2.051-5.323,0.789-7.888s-3.872-4.189-6.73-4.189h-89.167V33.747
	c0-4.143-3.358-7.5-7.5-7.5H83.811c-4.142,0-7.5,3.357-7.5,7.5s3.358,7.5,7.5,7.5h97.066v86.666H55.883V33.747V11.296
	c0-4.143-3.358-7.5-7.5-7.5H7.5c-4.142,0-7.5,3.357-7.5,7.5v269.951c0,4.143,3.358,7.5,7.5,7.5h40.883c4.142,0,7.5-3.357,7.5-7.5
	V142.913h77.181v40c0,0.065,0.008,0.127,0.01,0.192c0.005,0.179,0.01,0.358,0.027,0.536c0.011,0.116,0.032,0.228,0.048,0.342
	c0.018,0.128,0.034,0.256,0.059,0.384c0.024,0.124,0.058,0.245,0.088,0.366c0.029,0.116,0.055,0.232,0.089,0.346
	c0.036,0.12,0.08,0.235,0.122,0.352c0.041,0.114,0.079,0.229,0.125,0.341c0.046,0.11,0.098,0.216,0.149,0.324
	c0.054,0.114,0.105,0.229,0.165,0.341c0.055,0.104,0.118,0.202,0.177,0.303c0.065,0.109,0.128,0.22,0.199,0.327
	c0.071,0.106,0.149,0.207,0.226,0.309c0.07,0.094,0.136,0.19,0.211,0.281c0.108,0.132,0.226,0.257,0.343,0.382
	c0.049,0.052,0.092,0.108,0.143,0.16c0.003,0.003,0.007,0.006,0.01,0.009c0.174,0.175,0.357,0.341,0.547,0.498
	c0.084,0.069,0.173,0.129,0.26,0.194c0.109,0.083,0.216,0.168,0.33,0.244c0.108,0.073,0.221,0.135,0.331,0.201
	c0.1,0.06,0.197,0.123,0.299,0.178c0.113,0.061,0.229,0.111,0.344,0.166c0.107,0.051,0.212,0.105,0.322,0.15
	c0.112,0.046,0.226,0.083,0.339,0.124c0.118,0.042,0.235,0.088,0.356,0.125c0.112,0.034,0.225,0.058,0.338,0.087
	c0.125,0.032,0.249,0.067,0.376,0.092c0.129,0.025,0.259,0.041,0.389,0.059c0.113,0.016,0.224,0.038,0.338,0.049
	c0.246,0.024,0.494,0.038,0.741,0.038c0.246,0,0.493-0.013,0.738-0.037c0.113-0.011,0.222-0.032,0.333-0.048
	c0.13-0.019,0.261-0.034,0.39-0.06c0.128-0.025,0.252-0.06,0.377-0.092c0.111-0.028,0.222-0.052,0.332-0.085
	c0.125-0.038,0.245-0.084,0.367-0.128c0.108-0.039,0.217-0.075,0.323-0.119c0.117-0.048,0.229-0.104,0.343-0.158
	c0.107-0.051,0.215-0.098,0.319-0.154c0.113-0.06,0.22-0.128,0.329-0.194c0.1-0.06,0.201-0.117,0.299-0.182
	c0.121-0.08,0.234-0.169,0.35-0.256c0.079-0.06,0.161-0.115,0.238-0.178c0.162-0.132,0.317-0.274,0.467-0.42
	c0.025-0.024,0.053-0.045,0.078-0.07l0.01-0.01c0.005-0.004,0.01-0.009,0.014-0.014l47.789-47.476
	c0.002-0.001,0.003-0.003,0.004-0.005c0.177-0.176,0.346-0.361,0.505-0.555c0.048-0.059,0.089-0.121,0.135-0.181
	c0.103-0.134,0.207-0.267,0.302-0.408c0.066-0.098,0.122-0.2,0.182-0.3c0.066-0.109,0.135-0.216,0.195-0.328
	c0.057-0.106,0.105-0.216,0.156-0.324c0.054-0.113,0.111-0.224,0.159-0.34c0.044-0.105,0.079-0.214,0.117-0.321
	c0.045-0.123,0.093-0.245,0.131-0.371c0.033-0.108,0.056-0.218,0.084-0.327c0.033-0.128,0.069-0.254,0.095-0.384
	c0.027-0.134,0.042-0.27,0.062-0.405c0.015-0.107,0.037-0.212,0.047-0.321c0.025-0.246,0.037-0.492,0.037-0.739
	c0,0,0.001-0.008,0.001-0.012V92.08h73.92l-29.861,38.756c-2.079,2.697-2.079,6.457,0,9.154l29.861,38.757h-93.858
	c-4.142,0-7.5,3.357-7.5,7.5s3.358,7.5,7.5,7.5h109.105c2.858,0,5.468-1.625,6.73-4.189s0.956-5.624-0.789-7.888L255.345,135.413z
	 M40.883,273.747H15V18.796h25.883v14.951v101.666V273.747z M170.187,142.913l-22.122,21.978v-21.978H170.187z"/>
<g>
</g>
<g>
</g>
<g>
</g>
<g>
</g>
<g>
</g>
<g>
</g>
<g>
</g>
<g>
</g>
<g>
</g>
<g>
</g>
<g>
</g>
<g>
</g>
<g>
</g>
<g>
</g>
<g>
</g>
</svg>
