<?xml version="1.0" encoding="iso-8859-1"?>
<!-- Generator: Adobe Illustrator 17.1.0, SVG Export Plug-In . SVG Version: 6.00 Build 0)  -->
<!DOCTYPE svg PUBLIC "-//W3C//DTD SVG 1.1//EN" "http://www.w3.org/Graphics/SVG/1.1/DTD/svg11.dtd">
<svg version="1.1" id="Capa_1" xmlns="http://www.w3.org/2000/svg" xmlns:xlink="http://www.w3.org/1999/xlink" x="0px" y="0px"
	 viewBox="0 0 321.842 321.842" style="enable-background:new 0 0 321.842 321.842;" xml:space="preserve">
<g>
	<path d="M207.585,275.382c-6.567,3.582-13.446,6.566-20.53,8.955l-32.796-119.09l22.083-9.428c3.81-1.626,5.58-6.033,3.953-9.843
		c-1.625-3.808-6.031-5.579-9.842-3.953l-12.396,5.292l37.687-106.533c6.678,2.805,13.141,6.162,19.31,10.081
		c3.496,2.221,8.129,1.188,10.353-2.309c2.221-3.496,1.187-8.131-2.31-10.352c-23.242-14.765-50.147-22.57-77.808-22.57
		C65.177,15.632,0,80.808,0,160.921c0,54.655,30.341,102.351,75.059,127.149c0.24,0.17,0.49,0.332,0.755,0.476
		c0.235,0.128,0.477,0.234,0.719,0.334c20.481,11.049,43.899,17.329,68.757,17.329c24.273,0,48.299-6.107,69.479-17.66
		c3.636-1.983,4.976-6.539,2.992-10.175C215.778,274.739,211.225,273.397,207.585,275.382z M181.607,35.769l-39.422,111.44
		l-83.52-83.52c23.04-20.548,53.396-33.058,86.624-33.058C157.673,30.632,169.887,32.376,181.607,35.769z M15,160.921
		c0-33.228,12.51-63.584,33.058-86.624l87.963,87.963L76.532,271.541C39.618,248.513,15,207.541,15,160.921z M89.693,278.735
		l53.299-97.908l29.6,107.483c-8.943,1.911-18.101,2.899-27.303,2.899C125.413,291.21,106.565,286.729,89.693,278.735z"/>
	<path d="M254.851,52.408c-36.939,0-66.991,30.052-66.991,66.992c0,34.405,26.068,62.835,59.491,66.574v15.793h-9.816
		c-4.143,0-7.5,3.358-7.5,7.5v60.782c0,13.588,11.055,24.644,24.644,24.644h0.346c13.589,0,24.644-11.055,24.644-24.644v-60.782
		c0-4.142-3.357-7.5-7.5-7.5h-9.816v-22.876c0-4.142-3.357-7.5-7.5-7.5c-28.668,0-51.991-23.323-51.991-51.991
		c0-28.668,23.323-51.992,51.991-51.992s51.991,23.323,51.991,51.992c0,13.638-5.241,26.525-14.759,36.289
		c-2.892,2.966-2.831,7.714,0.135,10.606c2.968,2.892,7.715,2.83,10.605-0.135c12.265-12.581,19.019-29.187,19.019-46.759
		C321.842,82.46,291.79,52.408,254.851,52.408z M264.667,270.049c0,5.317-4.326,9.644-9.644,9.644h-0.346
		c-5.317,0-9.644-4.326-9.644-9.644v-53.282h19.633V270.049z"/>
</g>
<g>
</g>
<g>
</g>
<g>
</g>
<g>
</g>
<g>
</g>
<g>
</g>
<g>
</g>
<g>
</g>
<g>
</g>
<g>
</g>
<g>
</g>
<g>
</g>
<g>
</g>
<g>
</g>
<g>
</g>
</svg>
