<?xml version="1.0" encoding="iso-8859-1"?>
<!-- Generator: Adobe Illustrator 17.1.0, SVG Export Plug-In . SVG Version: 6.00 Build 0)  -->
<!DOCTYPE svg PUBLIC "-//W3C//DTD SVG 1.1//EN" "http://www.w3.org/Graphics/SVG/1.1/DTD/svg11.dtd">
<svg version="1.1" id="Capa_1" xmlns="http://www.w3.org/2000/svg" xmlns:xlink="http://www.w3.org/1999/xlink" x="0px" y="0px"
	 viewBox="0 0 320.98 320.98" style="enable-background:new 0 0 320.98 320.98;" xml:space="preserve">
<path d="M320.875,153.142c0.011-0.063,0.02-0.125,0.029-0.188c0.095-0.659,0.104-1.339,0.015-2.026
	c-0.011-0.086-0.025-0.172-0.039-0.258c-0.015-0.092-0.023-0.184-0.042-0.276c-0.041-0.202-0.095-0.398-0.151-0.592
	c-0.01-0.036-0.017-0.072-0.027-0.107c-0.099-0.326-0.223-0.638-0.362-0.941c-0.027-0.059-0.057-0.117-0.085-0.176
	c-0.146-0.298-0.307-0.586-0.488-0.858c-0.006-0.009-0.011-0.019-0.017-0.028c-0.193-0.286-0.408-0.552-0.636-0.807
	c-0.045-0.051-0.091-0.1-0.138-0.149c-0.236-0.25-0.485-0.487-0.752-0.701c-0.006-0.005-0.011-0.011-0.017-0.016L165.169,24.037
	c-0.063-0.05-0.129-0.091-0.192-0.138c-0.121-0.091-0.242-0.181-0.369-0.265c-0.09-0.059-0.183-0.112-0.274-0.167
	c-0.119-0.071-0.237-0.142-0.359-0.206c-0.104-0.054-0.209-0.102-0.314-0.151c-0.115-0.054-0.23-0.108-0.349-0.156
	c-0.115-0.047-0.232-0.087-0.349-0.127c-0.113-0.039-0.225-0.08-0.34-0.114c-0.126-0.038-0.254-0.068-0.382-0.098
	c-0.109-0.026-0.217-0.053-0.328-0.075c-0.141-0.027-0.283-0.046-0.424-0.065c-0.101-0.013-0.201-0.029-0.303-0.039
	c-0.159-0.015-0.318-0.02-0.479-0.024c-0.072-0.002-0.142-0.011-0.215-0.011c-0.018,0-0.034,0.002-0.051,0.002
	c-0.162,0.001-0.323,0.013-0.483,0.024c-0.09,0.007-0.181,0.008-0.27,0.018c-0.138,0.015-0.274,0.04-0.411,0.063
	c-0.108,0.018-0.218,0.03-0.324,0.052c-0.105,0.022-0.208,0.054-0.311,0.08c-0.133,0.034-0.267,0.063-0.396,0.104
	c-0.113,0.036-0.224,0.082-0.335,0.123c-0.114,0.042-0.23,0.078-0.341,0.125c-0.643,0.271-1.25,0.638-1.807,1.091
	c-0.014,0.011-0.029,0.021-0.043,0.032c-0.112,0.093-0.217,0.195-0.324,0.295c-0.075,0.07-0.154,0.136-0.226,0.209
	c-0.075,0.075-0.145,0.158-0.216,0.238c-0.098,0.107-0.197,0.213-0.288,0.326c-0.012,0.015-0.026,0.028-0.038,0.042
	c-0.05,0.063-0.091,0.129-0.139,0.193c-0.09,0.121-0.181,0.241-0.264,0.367c-0.06,0.09-0.112,0.183-0.167,0.275
	c-0.071,0.118-0.142,0.237-0.207,0.359c-0.054,0.103-0.101,0.207-0.15,0.312c-0.055,0.116-0.109,0.232-0.158,0.351
	c-0.046,0.113-0.085,0.228-0.125,0.343c-0.04,0.115-0.081,0.23-0.116,0.349c-0.036,0.122-0.065,0.245-0.095,0.368
	c-0.027,0.114-0.056,0.227-0.078,0.343c-0.025,0.134-0.043,0.269-0.062,0.404c-0.015,0.108-0.031,0.215-0.042,0.324
	c-0.014,0.148-0.018,0.297-0.022,0.446c-0.002,0.081-0.012,0.16-0.012,0.242v40.955L41.038,151.029l-16.293-3.303l95.478-76.124
	c3.238-2.582,3.771-7.301,1.188-10.54c-2.582-3.238-7.299-3.771-10.54-1.188L2.825,146.019c-0.007,0.006-0.013,0.013-0.021,0.019
	c-0.03,0.024-0.059,0.05-0.088,0.075c-0.112,0.093-0.219,0.191-0.325,0.29c-0.074,0.069-0.148,0.136-0.219,0.208
	c-0.053,0.054-0.106,0.108-0.158,0.163c-0.035,0.038-0.067,0.079-0.102,0.117c-0.001,0.001-0.002,0.002-0.003,0.004
	c-0.079,0.089-0.158,0.177-0.234,0.27c-0.07,0.086-0.135,0.175-0.2,0.263c-0.063,0.086-0.13,0.169-0.19,0.257
	c-0.011,0.017-0.021,0.035-0.032,0.052c-0.005,0.008-0.01,0.017-0.015,0.025c-0.054,0.082-0.103,0.166-0.154,0.25
	c-0.075,0.125-0.15,0.249-0.218,0.379c-0.035,0.067-0.068,0.136-0.101,0.204c-0.026,0.054-0.052,0.107-0.076,0.162
	c-0.043,0.095-0.087,0.189-0.127,0.287c-0.046,0.112-0.084,0.226-0.125,0.34c-0.036,0.103-0.077,0.204-0.108,0.309
	c-0.005,0.017-0.01,0.034-0.015,0.051c-0.044,0.149-0.079,0.302-0.114,0.454c-0.015,0.066-0.036,0.129-0.05,0.196
	c-0.002,0.012-0.003,0.025-0.006,0.037c-0.019,0.095-0.032,0.192-0.047,0.288c-0.01,0.065-0.018,0.129-0.027,0.194
	c-0.004,0.031-0.009,0.062-0.013,0.093c-0.007,0.055-0.018,0.111-0.023,0.166c-0.017,0.177-0.022,0.356-0.026,0.535
	C0.007,151.78,0,151.853,0,151.925c0,0.125,0.012,0.251,0.019,0.377c0.007,0.125,0.009,0.251,0.022,0.375
	c0.008,0.072,0.023,0.144,0.033,0.216c0.003,0.021,0.006,0.041,0.009,0.062c0.009,0.063,0.018,0.125,0.029,0.188
	c0.016,0.093,0.028,0.186,0.047,0.277c0.011,0.055,0.029,0.11,0.042,0.165c0.044,0.188,0.091,0.376,0.149,0.559
	c0.004,0.012,0.006,0.025,0.01,0.037l44.811,139.195c0.009,0.029,0.025,0.055,0.035,0.084c0.112,0.334,0.245,0.663,0.406,0.982
	c0.01,0.021,0.019,0.042,0.03,0.063c0.159,0.31,0.347,0.609,0.552,0.898c0.044,0.063,0.09,0.123,0.135,0.184
	c0.208,0.275,0.428,0.542,0.679,0.792l0,0c0.005,0.005,0.011,0.009,0.016,0.014c0.247,0.246,0.511,0.464,0.782,0.668
	c0.059,0.044,0.117,0.088,0.178,0.131c0.287,0.204,0.583,0.39,0.89,0.548c0.015,0.008,0.031,0.014,0.046,0.021
	c0.306,0.155,0.62,0.283,0.94,0.394c0.057,0.02,0.112,0.041,0.169,0.059c0.33,0.105,0.665,0.187,1.004,0.245
	c0.066,0.011,0.132,0.019,0.198,0.029c0.356,0.052,0.714,0.086,1.073,0.086c0.003,0,0.005,0,0.008,0h216.365
	c0.362,0,0.724-0.035,1.083-0.087c0.065-0.01,0.129-0.017,0.193-0.028c0.34-0.059,0.676-0.14,1.007-0.246
	c0.056-0.018,0.111-0.039,0.167-0.059c0.32-0.111,0.636-0.239,0.941-0.394c0.015-0.008,0.031-0.014,0.046-0.021
	c0.307-0.158,0.603-0.345,0.89-0.548c0.06-0.042,0.119-0.086,0.178-0.131c0.271-0.204,0.534-0.422,0.782-0.668
	c0.005-0.005,0.011-0.009,0.016-0.014l0,0c0.25-0.25,0.471-0.518,0.679-0.792c0.046-0.061,0.091-0.122,0.135-0.184
	c0.206-0.29,0.393-0.588,0.552-0.898c0.011-0.021,0.019-0.042,0.029-0.063c0.161-0.319,0.294-0.648,0.406-0.982
	c0.01-0.029,0.025-0.055,0.035-0.084l44.811-139.195c0.003-0.01,0.004-0.019,0.007-0.029
	C320.738,153.824,320.816,153.486,320.875,153.142z M265.299,277.094l-18.14-18.14l36.574-93.387l18.689-3.788L265.299,277.094z
	 M36.851,165.485l17.095,57.199c1.186,3.968,5.363,6.221,9.333,5.039c3.969-1.186,6.225-5.365,5.038-9.333l-14.801-49.526
	l32.434,6.575l18.322,53.073l-48.583,48.583L18.566,161.779L36.851,165.485z M115.999,237.997h88.99l16.057,16.057l-126.753,5.649
	L115.999,237.997z M167.994,89.305l91.877,65.793l-15.178,3.077l-39.179-27.921c-3.372-2.404-8.058-1.618-10.46,1.755
	c-2.404,3.373-1.618,8.056,1.755,10.46l27.761,19.784l-56.577,11.469V89.305z M175.676,187.47l53.064-10.756l-22.446,41.375
	L175.676,187.47z M189.989,222.997h-58.99l29.495-29.496L189.989,222.997z M217.357,229.153l30.557-56.325l18.321-3.713
	l-30.651,78.265L217.357,229.153z M279.951,151.028L167.994,70.857V45.474l128.249,102.252L279.951,151.028z M152.994,173.723
	l-45.202-9.163l45.202-40.414V173.723z M145.312,187.47l-29.244,29.244l-13.055-37.818L145.312,187.47z M78.577,275.419
	l156.842-6.991l15.15,15.15H70.418L78.577,275.419z M152.994,89.306v14.719l-63.548,56.816l-28.328-5.742L152.994,89.306z"/>
<g>
</g>
<g>
</g>
<g>
</g>
<g>
</g>
<g>
</g>
<g>
</g>
<g>
</g>
<g>
</g>
<g>
</g>
<g>
</g>
<g>
</g>
<g>
</g>
<g>
</g>
<g>
</g>
<g>
</g>
</svg>
