<?xml version="1.0" encoding="iso-8859-1"?>
<!-- Generator: Adobe Illustrator 17.1.0, SVG Export Plug-In . SVG Version: 6.00 Build 0)  -->
<!DOCTYPE svg PUBLIC "-//W3C//DTD SVG 1.1//EN" "http://www.w3.org/Graphics/SVG/1.1/DTD/svg11.dtd">
<svg version="1.1" id="Capa_1" xmlns="http://www.w3.org/2000/svg" xmlns:xlink="http://www.w3.org/1999/xlink" x="0px" y="0px"
	 viewBox="0 0 266.677 266.677" style="enable-background:new 0 0 266.677 266.677;" xml:space="preserve">
<path d="M264.48,63.014c-2.929-2.928-7.678-2.928-10.606,0l-38.065,38.065l-30.576-30.576l32.762-32.762l16.057,16.058
	c2.929,2.928,7.678,2.928,10.606,0c2.929-2.93,2.929-7.678,0-10.607l-21.36-21.36c-1.464-1.464-3.384-2.196-5.303-2.196
	c-1.92,0-3.839,0.732-5.303,2.196L169.322,65.2c-0.002,0.002-0.004,0.005-0.006,0.007l-80.815,80.815
	c-9.76-7.478-21.632-11.539-34.134-11.539c-15.033,0-29.166,5.854-39.795,16.484c-2.929,2.929-2.929,7.677,0,10.606
	c2.929,2.928,7.678,2.929,10.606-0.001c7.797-7.796,18.163-12.09,29.189-12.09c11.026,0,21.392,4.294,29.189,12.091
	c7.796,7.796,12.09,18.162,12.09,29.188c0,11.025-4.294,21.393-12.09,29.188c-7.797,7.797-18.163,12.091-29.189,12.091
	c-11.026,0-21.392-4.294-29.189-12.091c-4.932-4.932-8.553-11.054-10.47-17.705c-1.148-3.979-5.301-6.275-9.285-5.128
	c-3.98,1.147-6.276,5.304-5.128,9.284c2.619,9.082,7.556,17.435,14.277,24.155c10.629,10.631,24.763,16.484,39.795,16.484
	s29.166-5.854,39.795-16.484c10.63-10.629,16.484-24.763,16.484-39.795c0-12.502-4.061-24.374-11.539-34.134l75.517-75.518
	l35.879,35.879c1.464,1.464,3.384,2.196,5.303,2.196c1.919,0,3.839-0.732,5.303-2.196l43.369-43.368
	C267.409,70.692,267.409,65.944,264.48,63.014z"/>
<g>
</g>
<g>
</g>
<g>
</g>
<g>
</g>
<g>
</g>
<g>
</g>
<g>
</g>
<g>
</g>
<g>
</g>
<g>
</g>
<g>
</g>
<g>
</g>
<g>
</g>
<g>
</g>
<g>
</g>
</svg>
