<?xml version="1.0" encoding="iso-8859-1"?>
<!-- Generator: Adobe Illustrator 17.1.0, SVG Export Plug-In . SVG Version: 6.00 Build 0)  -->
<!DOCTYPE svg PUBLIC "-//W3C//DTD SVG 1.1//EN" "http://www.w3.org/Graphics/SVG/1.1/DTD/svg11.dtd">
<svg version="1.1" id="Capa_1" xmlns="http://www.w3.org/2000/svg" xmlns:xlink="http://www.w3.org/1999/xlink" x="0px" y="0px"
	 viewBox="0 0 326.672 326.672" style="enable-background:new 0 0 326.672 326.672;" xml:space="preserve">
<g>
	<path d="M319.172,223.116h-14.591V85.689c0-17.271-14.052-31.323-31.323-31.323H106.334c-4.143,0-7.5,3.358-7.5,7.5
		s3.357,7.5,7.5,7.5h166.924c9.001,0,16.323,7.323,16.323,16.323v137.427H61.983V95.639h202.705v82.697c0,4.142,3.357,7.5,7.5,7.5
		s7.5-3.358,7.5-7.5V88.139c0-4.142-3.357-7.5-7.5-7.5H54.483c-4.143,0-7.5,3.358-7.5,7.5v134.977h-9.893V85.689
		c0-9,7.322-16.323,16.323-16.323c4.143,0,7.5-3.358,7.5-7.5s-3.357-7.5-7.5-7.5c-17.271,0-31.323,14.052-31.323,31.323v137.427H7.5
		c-4.143,0-7.5,3.358-7.5,7.5c0,22.988,18.702,41.69,41.689,41.69h243.293c22.987,0,41.689-18.702,41.689-41.69
		C326.672,226.474,323.314,223.116,319.172,223.116z M284.982,257.306H41.689c-12.113,0-22.368-8.113-25.617-19.19h13.519h267.49
		H310.6C307.351,249.193,297.096,257.306,284.982,257.306z"/>
	<path d="M111.367,159.377c0,28.656,23.313,51.969,51.969,51.969s51.969-23.313,51.969-51.969s-23.313-51.969-51.969-51.969
		S111.367,130.722,111.367,159.377z M200.305,159.377c0,20.385-16.584,36.969-36.969,36.969s-36.969-16.584-36.969-36.969
		s16.584-36.969,36.969-36.969S200.305,138.993,200.305,159.377z"/>
	<path d="M158.54,136.771v1.07c-7.542,1.682-10.296,7.242-10.296,12.191c0,9.391,7.993,12.031,13.829,13.959
		c4.105,1.356,6.598,2.298,6.598,3.947c0,0.991,0,2.648-5.057,2.648c-2.651,0-5.006-1.119-7.409-3.521
		c-0.686-0.686-1.961-1.961-4.229-1.961c-3.014,0-5.466,2.477-5.466,5.521c0,1.008,0.293,2.033,0.82,2.881
		c2.216,3.583,6.393,6.319,11.209,7.437v1.042c0,2.829,2.276,5.13,5.074,5.13c2.829,0,5.131-2.301,5.131-5.13v-0.977
		c7.195-1.437,11.416-6.201,11.416-13.07c0-9.925-8.644-12.766-14.363-14.646c-2.979-0.979-6.061-1.992-6.061-3.26
		c0-1.732,2.711-1.919,3.877-1.919c2.284,0,4.677,0.888,6.131,2.294c1.374,1.28,2.718,1.903,4.109,1.903
		c3.045,0,5.521-2.453,5.521-5.468c0-1.123-0.34-2.224-1.02-3.233c-1.976-2.791-5.342-4.774-9.611-5.701v-1.137
		c0-2.829-2.302-5.13-5.131-5.13C160.816,131.64,158.54,133.941,158.54,136.771z"/>
</g>
<g>
</g>
<g>
</g>
<g>
</g>
<g>
</g>
<g>
</g>
<g>
</g>
<g>
</g>
<g>
</g>
<g>
</g>
<g>
</g>
<g>
</g>
<g>
</g>
<g>
</g>
<g>
</g>
<g>
</g>
</svg>
