<?xml version="1.0" encoding="iso-8859-1"?>
<!-- Generator: Adobe Illustrator 17.1.0, SVG Export Plug-In . SVG Version: 6.00 Build 0)  -->
<!DOCTYPE svg PUBLIC "-//W3C//DTD SVG 1.1//EN" "http://www.w3.org/Graphics/SVG/1.1/DTD/svg11.dtd">
<svg version="1.1" id="Capa_1" xmlns="http://www.w3.org/2000/svg" xmlns:xlink="http://www.w3.org/1999/xlink" x="0px" y="0px"
	 viewBox="0 0 302.146 302.146" style="enable-background:new 0 0 302.146 302.146;" xml:space="preserve">
<g>
	<path d="M293.593,296.36c0.075-0.32,0.135-0.647,0.168-0.982c0.003-0.034,0.002-0.068,0.005-0.103
		c0.017-0.208,0.032-0.417,0.032-0.629v-153.45c0-2.763-1.519-5.301-3.952-6.608c-2.435-1.305-5.389-1.17-7.692,0.357l-9.388,6.223
		V7.5c0-4.143-3.358-7.5-7.5-7.5H36.881c-4.142,0-7.5,3.357-7.5,7.5v133.668l-9.388-6.223c-2.303-1.526-5.257-1.662-7.691-0.357
		c-2.434,1.308-3.953,3.846-3.953,6.608v153.45c0,0.212,0.014,0.421,0.032,0.629c0.003,0.034,0.002,0.068,0.005,0.103
		c0.032,0.335,0.093,0.662,0.168,0.982c0.015,0.065,0.033,0.129,0.05,0.194c0.085,0.324,0.186,0.642,0.312,0.947
		c0.002,0.005,0.003,0.01,0.005,0.015c0,0.001,0.001,0.002,0.002,0.004c0.131,0.316,0.288,0.618,0.46,0.911
		c0.036,0.061,0.072,0.12,0.109,0.18c0.176,0.281,0.363,0.554,0.573,0.809c0.004,0.004,0.008,0.009,0.012,0.013
		c0.204,0.246,0.428,0.473,0.662,0.691c0.057,0.053,0.115,0.106,0.174,0.158c0.243,0.214,0.497,0.416,0.766,0.597
		c0.008,0.005,0.016,0.009,0.023,0.015c0.266,0.177,0.548,0.332,0.837,0.475c0.059,0.029,0.117,0.058,0.177,0.085
		c0.594,0.274,1.23,0.471,1.896,0.582c0.077,0.013,0.153,0.025,0.23,0.035c0.331,0.044,0.665,0.076,1.008,0.076h270.449
		c0.343,0,0.677-0.031,1.008-0.076c0.077-0.01,0.154-0.022,0.23-0.035c0.666-0.111,1.301-0.308,1.896-0.582
		c0.06-0.027,0.118-0.056,0.177-0.085c0.289-0.143,0.57-0.298,0.837-0.475c0.008-0.005,0.016-0.009,0.023-0.015
		c0.27-0.181,0.523-0.383,0.766-0.597c0.059-0.052,0.116-0.104,0.174-0.158c0.233-0.218,0.458-0.446,0.662-0.691
		c0.004-0.004,0.008-0.009,0.012-0.013c0.21-0.255,0.397-0.528,0.573-0.809c0.037-0.06,0.074-0.119,0.109-0.18
		c0.172-0.292,0.328-0.594,0.46-0.911c0-0.001,0.001-0.002,0.002-0.004c0.002-0.005,0.003-0.01,0.005-0.015
		c0.126-0.306,0.226-0.623,0.312-0.947C293.561,296.49,293.578,296.426,293.593,296.36z M44.381,147.879V15h213.385v132.879
		c0,1.012,0.203,1.977,0.567,2.857l-40.97,27.158c-3.452,2.288-4.396,6.942-2.107,10.395c2.289,3.452,6.943,4.398,10.396,2.107
		l53.147-35.23V276.54L156.376,154.118c-2.929-2.928-7.678-2.928-10.606,0l-38.61,38.609l-63.346-41.991
		C44.178,149.855,44.381,148.891,44.381,147.879z M96.338,203.55l-72.99,72.99V155.166L96.338,203.55z M33.955,287.146
		l79.439-79.439c0.015-0.015,0.03-0.03,0.045-0.045l37.634-37.634l117.118,117.118H33.955z"/>
	<path d="M72.725,45.991h156.697c4.142,0,7.5-3.357,7.5-7.5s-3.358-7.5-7.5-7.5H72.725c-4.142,0-7.5,3.357-7.5,7.5
		S68.583,45.991,72.725,45.991z"/>
	<path d="M72.725,82.129h156.697c4.142,0,7.5-3.357,7.5-7.5s-3.358-7.5-7.5-7.5H72.725c-4.142,0-7.5,3.357-7.5,7.5
		S68.583,82.129,72.725,82.129z"/>
	<path d="M172.118,118.268c4.142,0,7.5-3.357,7.5-7.5s-3.358-7.5-7.5-7.5H72.725c-4.142,0-7.5,3.357-7.5,7.5s3.358,7.5,7.5,7.5
		H172.118z"/>
</g>
<g>
</g>
<g>
</g>
<g>
</g>
<g>
</g>
<g>
</g>
<g>
</g>
<g>
</g>
<g>
</g>
<g>
</g>
<g>
</g>
<g>
</g>
<g>
</g>
<g>
</g>
<g>
</g>
<g>
</g>
</svg>
