<?xml version="1.0" encoding="iso-8859-1"?>
<!-- Generator: Adobe Illustrator 17.1.0, SVG Export Plug-In . SVG Version: 6.00 Build 0)  -->
<!DOCTYPE svg PUBLIC "-//W3C//DTD SVG 1.1//EN" "http://www.w3.org/Graphics/SVG/1.1/DTD/svg11.dtd">
<svg version="1.1" id="Capa_1" xmlns="http://www.w3.org/2000/svg" xmlns:xlink="http://www.w3.org/1999/xlink" x="0px" y="0px"
	 viewBox="0 0 286.186 286.186" style="enable-background:new 0 0 286.186 286.186;" xml:space="preserve">
<path d="M256.553,113.461C256.553,50.898,205.655,0,143.093,0c-4.143,0-7.5,3.357-7.5,7.5s3.357,7.5,7.5,7.5
	c54.291,0,98.46,44.169,98.46,98.461c0,30.097-13.952,58.7-37.5,77.311h-6.829V92.954c0-2.868-1.636-5.485-4.215-6.742
	c-2.577-1.256-5.647-0.933-7.907,0.836l-41.698,32.627l-41.548-32.62c-2.26-1.772-5.331-2.101-7.911-0.846
	c-2.582,1.256-4.221,3.874-4.221,6.745v71.572c0,4.143,3.357,7.5,7.5,7.5s7.5-3.357,7.5-7.5v-56.148l34.04,26.726
	c2.714,2.131,6.534,2.135,9.254,0.007l34.206-26.765v82.426H82.132c-23.548-18.612-37.499-47.214-37.499-77.311
	c0-18.903,5.369-37.263,15.525-53.094c9.897-15.425,23.838-27.767,40.315-35.692c3.732-1.796,5.304-6.277,3.508-10.01
	c-1.795-3.733-6.28-5.303-10.01-3.508c-18.982,9.13-35.04,23.346-46.438,41.11C35.823,70.52,29.633,91.681,29.633,113.461
	c0,33.71,15.185,65.795,40.951,87.257v37.761v40.207c0,4.143,3.357,7.5,7.5,7.5h130.781c4.143,0,7.5-3.357,7.5-7.5v-40.207V200.07
	C241.665,178.614,256.553,146.836,256.553,113.461z M201.365,271.186H85.584v-25.207h70.509c4.143,0,7.5-3.357,7.5-7.5
	s-3.357-7.5-7.5-7.5H85.584v-25.207h115.781v32.707V271.186z"/>
<g>
</g>
<g>
</g>
<g>
</g>
<g>
</g>
<g>
</g>
<g>
</g>
<g>
</g>
<g>
</g>
<g>
</g>
<g>
</g>
<g>
</g>
<g>
</g>
<g>
</g>
<g>
</g>
<g>
</g>
</svg>
