<?xml version="1.0" encoding="iso-8859-1"?>
<!-- Generator: Adobe Illustrator 17.1.0, SVG Export Plug-In . SVG Version: 6.00 Build 0)  -->
<!DOCTYPE svg PUBLIC "-//W3C//DTD SVG 1.1//EN" "http://www.w3.org/Graphics/SVG/1.1/DTD/svg11.dtd">
<svg version="1.1" id="Capa_1" xmlns="http://www.w3.org/2000/svg" xmlns:xlink="http://www.w3.org/1999/xlink" x="0px" y="0px"
	 viewBox="0 0 321.393 321.393" style="enable-background:new 0 0 321.393 321.393;" xml:space="preserve">
<g>
	<path d="M161.548,0h-1.703c-50.61,0-91.784,41.174-91.784,91.784v44.379v177.729c0,4.143,3.357,7.5,7.5,7.5h170.271
		c4.143,0,7.5-3.357,7.5-7.5s-3.357-7.5-7.5-7.5H83.061V143.663h155.271v95.025c0,4.143,3.357,7.5,7.5,7.5s7.5-3.357,7.5-7.5
		V136.163V91.784C253.332,41.174,212.158,0,161.548,0z M215.094,128.663V91.782c0-29.523-24.02-53.543-53.544-53.543h-1.707
		c-29.523,0-53.543,24.02-53.543,53.543c0,4.143,3.357,7.5,7.5,7.5s7.5-3.357,7.5-7.5c0-21.253,17.29-38.543,38.543-38.543h1.707
		c21.253,0,38.544,17.29,38.544,38.543v36.881H83.061V91.784C83.061,49.445,117.506,15,159.845,15h1.703
		c42.339,0,76.784,34.445,76.784,76.784v36.879H215.094z"/>
	<path d="M160.696,170.631c-29.994,0-54.396,24.402-54.396,54.396c0,29.995,24.402,54.397,54.396,54.397
		s54.396-24.402,54.396-54.397C215.093,195.033,190.69,170.631,160.696,170.631z M160.696,185.631
		c8.157,0,15.742,2.492,22.035,6.754l-54.677,54.678c-4.262-6.293-6.754-13.879-6.754-22.036
		C121.3,203.304,138.973,185.631,160.696,185.631z M160.696,264.425c-8.156,0-15.742-2.492-22.035-6.754l54.677-54.679
		c4.262,6.293,6.754,13.878,6.754,22.035C200.093,246.751,182.42,264.425,160.696,264.425z"/>
</g>
<g>
</g>
<g>
</g>
<g>
</g>
<g>
</g>
<g>
</g>
<g>
</g>
<g>
</g>
<g>
</g>
<g>
</g>
<g>
</g>
<g>
</g>
<g>
</g>
<g>
</g>
<g>
</g>
<g>
</g>
</svg>
