<?xml version="1.0" encoding="iso-8859-1"?>
<!-- Generator: Adobe Illustrator 17.1.0, SVG Export Plug-In . SVG Version: 6.00 Build 0)  -->
<!DOCTYPE svg PUBLIC "-//W3C//DTD SVG 1.1//EN" "http://www.w3.org/Graphics/SVG/1.1/DTD/svg11.dtd">
<svg version="1.1" id="Capa_1" xmlns="http://www.w3.org/2000/svg" xmlns:xlink="http://www.w3.org/1999/xlink" x="0px" y="0px"
	 viewBox="0 0 297.903 297.903" style="enable-background:new 0 0 297.903 297.903;" xml:space="preserve">
<g>
	<path d="M148.952,165.088c4.142,0,7.5-3.358,7.5-7.5s-3.358-7.5-7.5-7.5c-23.355,0-42.356-19.001-42.356-42.356
		s19.001-42.356,42.356-42.356s42.356,19.001,42.356,42.356c0,11.747-4.943,23.069-13.561,31.063
		c-3.037,2.817-3.215,7.563-0.399,10.599c2.816,3.038,7.562,3.216,10.599,0.399c11.668-10.823,18.36-26.153,18.36-42.061
		c0-31.626-25.73-57.356-57.356-57.356s-57.356,25.73-57.356,57.356S117.325,165.088,148.952,165.088z"/>
	<path d="M153.33,137.721c4.142,0,7.5-3.358,7.5-7.5V85.232c0-3.034-1.827-5.768-4.63-6.929c-2.802-1.16-6.029-0.519-8.173,1.626
		l-14.583,14.583c-2.929,2.929-2.929,7.678,0,10.606c2.929,2.93,7.678,2.929,10.606,0l1.78-1.78v26.882
		C145.83,134.363,149.188,137.721,153.33,137.721z"/>
	<path d="M224.947,205.613c-2.071-3.587-6.66-4.815-10.245-2.745c-3.587,2.071-4.816,6.658-2.745,10.245l21.159,36.646
		l-22.974-4.575c-3.688-0.735-7.357,1.38-8.567,4.946l-7.525,22.184l-34.048-58.973c5.7-2.151,10.783-5.608,15.476-8.8
		c3.837-2.61,7.461-5.075,10.885-6.495c3.673-1.523,8.141-2.403,12.872-3.335c8.811-1.736,18.798-3.704,25.896-10.802
		c7.097-7.097,9.065-17.084,10.801-25.895c0.932-4.73,1.813-9.199,3.336-12.872c1.42-3.424,3.885-7.048,6.495-10.885
		c5.12-7.527,10.922-16.058,10.922-26.526s-5.803-18.999-10.922-26.526c-2.61-3.837-5.075-7.461-6.495-10.885
		c-1.523-3.673-2.403-8.142-3.335-12.872c-1.736-8.811-3.704-18.798-10.801-25.895c-7.097-7.098-17.084-9.065-25.896-10.802
		c-4.73-0.932-9.198-1.813-12.872-3.335c-3.424-1.42-7.048-3.885-10.885-6.495C167.951,5.803,159.419,0,148.952,0
		c-4.142,0-7.5,3.358-7.5,7.5s3.358,7.5,7.5,7.5c5.85,0,11.795,4.044,18.09,8.325c4.292,2.92,8.731,5.939,13.575,7.948
		c5.054,2.095,10.475,3.164,15.718,4.197c7.364,1.451,14.32,2.821,18.189,6.691c3.869,3.869,5.24,10.825,6.69,18.188
		c1.033,5.243,2.102,10.665,4.197,15.718c2.008,4.843,5.027,9.282,7.947,13.575c4.281,6.294,8.325,12.24,8.325,18.09
		s-4.044,11.795-8.325,18.09c-2.92,4.292-5.939,8.731-7.948,13.575c-2.095,5.054-3.164,10.475-4.197,15.718
		c-1.451,7.364-2.822,14.32-6.691,18.189c-3.87,3.87-10.825,5.24-18.189,6.691c-5.243,1.033-10.664,2.102-15.718,4.197
		c-4.843,2.008-9.282,5.027-13.575,7.947c-6.294,4.281-12.24,8.325-18.09,8.325s-11.795-4.044-18.09-8.325
		c-4.292-2.92-8.731-5.939-13.575-7.948c-5.054-2.095-10.475-3.164-15.718-4.197c-7.364-1.451-14.32-2.822-18.189-6.691
		c-3.869-3.869-5.24-10.825-6.69-18.188c-1.033-5.243-2.102-10.665-4.197-15.718c-2.008-4.843-5.027-9.282-7.947-13.574
		c-4.282-6.294-8.326-12.24-8.326-18.09s4.044-11.795,8.325-18.09c2.92-4.293,5.939-8.731,7.948-13.575
		c2.095-5.054,3.164-10.475,4.197-15.718c1.451-7.364,2.822-14.319,6.691-18.189c2.929-2.929,2.929-7.678,0-10.606
		c-2.929-2.93-7.678-2.929-10.606,0c-7.097,7.097-9.065,17.084-10.801,25.896c-0.932,4.73-1.813,9.199-3.336,12.872
		c-1.42,3.424-3.885,7.048-6.495,10.884c-5.12,7.527-10.922,16.059-10.922,26.526s5.803,18.999,10.923,26.526
		c2.609,3.836,5.074,7.46,6.494,10.884c1.523,3.673,2.403,8.142,3.335,12.872c1.736,8.811,3.704,18.798,10.801,25.895
		c2.708,2.708,5.837,4.666,9.161,6.152l-38.416,66.537c-1.472,2.55-1.316,5.726,0.399,8.119c1.715,2.393,4.671,3.559,7.561,2.986
		l32.759-6.523l10.73,31.632c0.946,2.789,3.436,4.766,6.367,5.055c0.247,0.024,0.493,0.036,0.738,0.036
		c2.66,0,5.145-1.415,6.493-3.75l40.386-69.951l40.386,69.951c1.348,2.335,3.833,3.75,6.493,3.75c0.245,0,0.491-0.012,0.738-0.036
		c2.931-0.289,5.421-2.266,6.367-5.055l10.73-31.632l32.759,6.523c2.887,0.576,5.845-0.593,7.561-2.986
		c1.715-2.394,1.871-5.569,0.399-8.119L224.947,205.613z M103.854,272.314l-7.525-22.184c-1.209-3.566-4.878-5.682-8.567-4.946
		l-22.974,4.575l31.998-55.422c0.633,0.127,1.262,0.251,1.884,0.374c4.73,0.933,9.198,1.813,12.872,3.336
		c3.424,1.42,7.048,3.885,10.885,6.495c4.693,3.192,9.776,6.649,15.476,8.8L103.854,272.314z"/>
</g>
<g>
</g>
<g>
</g>
<g>
</g>
<g>
</g>
<g>
</g>
<g>
</g>
<g>
</g>
<g>
</g>
<g>
</g>
<g>
</g>
<g>
</g>
<g>
</g>
<g>
</g>
<g>
</g>
<g>
</g>
</svg>
