<?xml version="1.0" encoding="iso-8859-1"?>
<!-- Generator: Adobe Illustrator 17.1.0, SVG Export Plug-In . SVG Version: 6.00 Build 0)  -->
<!DOCTYPE svg PUBLIC "-//W3C//DTD SVG 1.1//EN" "http://www.w3.org/Graphics/SVG/1.1/DTD/svg11.dtd">
<svg version="1.1" id="Capa_1" xmlns="http://www.w3.org/2000/svg" xmlns:xlink="http://www.w3.org/1999/xlink" x="0px" y="0px"
	 viewBox="0 0 307.906 307.906" style="enable-background:new 0 0 307.906 307.906;" xml:space="preserve">
<path d="M307.906,134.917c0-18.655-13.344-34.249-30.987-37.748V33.05c0-4.143-3.358-7.5-7.5-7.5h-41.292
	c-4.142,0-7.5,3.357-7.5,7.5v17.679V201.06c-16.458-13.58-48.736-32.604-101.608-34.266v-63.751
	c22.67-0.698,43.542-4.583,62.136-11.575c3.877-1.458,5.838-5.783,4.38-9.66c-1.458-3.878-5.786-5.836-9.66-4.381
	c-18.935,7.12-40.587,10.73-64.357,10.73H48.098h-1.763C20.786,88.157,0,108.943,0,134.492v0.784c0,4.143,3.358,7.5,7.5,7.5
	s7.5-3.357,7.5-7.5v-0.784c0-15.318,11.05-28.105,25.598-30.809v70.428v100.745c0,4.143,3.358,7.5,7.5,7.5h36.027
	c14.289,0,25.914-11.625,25.914-25.914v-0.186c0-2.474,0.732-3.328,2.688-5.613c2.506-2.927,6.293-7.351,6.293-15.367
	c0-8.019-3.786-12.444-6.291-15.373c-1.957-2.287-2.689-3.143-2.689-5.621s0.732-3.334,2.689-5.621
	c2.505-2.929,6.291-7.354,6.291-15.373v-11.482c37.025,1.278,62.484,11.854,77.623,20.817c13.248,7.844,20.992,15.769,23.985,19.173
	v14.989c0,4.143,3.358,7.5,7.5,7.5h41.292c4.142,0,7.5-3.357,7.5-7.5v-64.12C294.562,169.166,307.906,153.572,307.906,134.917z
	 M104.02,166.611H55.598v-63.454h48.422V166.611z M101.33,229.655c1.957,2.287,2.689,3.143,2.689,5.621
	c0,2.474-0.732,3.328-2.688,5.612c-2.506,2.928-6.293,7.352-6.293,15.368v0.186c0,6.018-4.896,10.914-10.914,10.914H55.598v-85.745
	h48.422v11.677c0,2.479-0.732,3.334-2.689,5.621c-2.505,2.929-6.291,7.354-6.291,15.373S98.825,226.727,101.33,229.655z
	 M261.919,229.285h-26.292v-10.18V50.729V40.55h26.292V229.285z M276.919,157.169v-44.505c9.283,3.137,15.987,11.924,15.987,22.252
	S286.202,154.032,276.919,157.169z"/>
<g>
</g>
<g>
</g>
<g>
</g>
<g>
</g>
<g>
</g>
<g>
</g>
<g>
</g>
<g>
</g>
<g>
</g>
<g>
</g>
<g>
</g>
<g>
</g>
<g>
</g>
<g>
</g>
<g>
</g>
</svg>
