<?xml version="1.0" encoding="iso-8859-1"?>
<!-- Generator: Adobe Illustrator 17.1.0, SVG Export Plug-In . SVG Version: 6.00 Build 0)  -->
<!DOCTYPE svg PUBLIC "-//W3C//DTD SVG 1.1//EN" "http://www.w3.org/Graphics/SVG/1.1/DTD/svg11.dtd">
<svg version="1.1" id="Capa_1" xmlns="http://www.w3.org/2000/svg" xmlns:xlink="http://www.w3.org/1999/xlink" x="0px" y="0px"
	 viewBox="0 0 276.667 276.667" style="enable-background:new 0 0 276.667 276.667;" xml:space="preserve">
<g>
	<path d="M269.167,22.391c-4.142,0-7.5,3.357-7.5,7.5v158.453h-92.192c-2.612,0-5.036,1.359-6.399,3.588l-24.742,40.466
		l-24.742-40.466c-1.363-2.229-3.787-3.588-6.399-3.588H15V37.391h162.436c4.142,0,7.5-3.357,7.5-7.5s-3.358-7.5-7.5-7.5H7.5
		c-4.142,0-7.5,3.357-7.5,7.5v165.953c0,4.143,3.358,7.5,7.5,7.5h95.487l28.947,47.344c1.363,2.229,3.787,3.588,6.399,3.588
		s5.036-1.359,6.399-3.588l28.947-47.344h95.487c4.142,0,7.5-3.357,7.5-7.5V29.891C276.667,25.749,273.309,22.391,269.167,22.391z"
		/>
	<path d="M116.815,137.478c1.464,1.464,3.384,2.196,5.303,2.196c1.919,0,3.839-0.732,5.303-2.196l10.912-10.911l10.912,10.911
		c1.464,1.464,3.384,2.196,5.303,2.196s3.839-0.732,5.303-2.196c2.929-2.93,2.929-7.678,0-10.607l-10.911-10.911l10.911-10.911
		c2.929-2.93,2.929-7.678,0-10.607c-2.929-2.927-7.678-2.929-10.606,0l-10.912,10.911l-10.912-10.911
		c-2.929-2.928-7.678-2.928-10.606,0c-2.929,2.93-2.929,7.678,0,10.607l10.911,10.911l-10.911,10.911
		C113.886,129.8,113.886,134.548,116.815,137.478z"/>
	<path d="M108.888,143.603c-2.835-3.019-7.583-3.167-10.601-0.332c-3.02,2.836-3.168,7.582-0.333,10.602
		c10.431,11.105,25.148,17.476,40.379,17.476c30.541,0,55.388-24.848,55.388-55.389s-24.847-55.388-55.388-55.388
		s-55.388,24.847-55.388,55.388c0,4.143,3.358,7.5,7.5,7.5s7.5-3.357,7.5-7.5c0-22.27,18.118-40.388,40.388-40.388
		s40.388,18.118,40.388,40.388c0,22.271-18.118,40.389-40.388,40.389C127.064,156.348,116.607,151.822,108.888,143.603z"/>
</g>
<g>
</g>
<g>
</g>
<g>
</g>
<g>
</g>
<g>
</g>
<g>
</g>
<g>
</g>
<g>
</g>
<g>
</g>
<g>
</g>
<g>
</g>
<g>
</g>
<g>
</g>
<g>
</g>
<g>
</g>
</svg>
