<?xml version="1.0" encoding="iso-8859-1"?>
<!-- Generator: Adobe Illustrator 17.1.0, SVG Export Plug-In . SVG Version: 6.00 Build 0)  -->
<!DOCTYPE svg PUBLIC "-//W3C//DTD SVG 1.1//EN" "http://www.w3.org/Graphics/SVG/1.1/DTD/svg11.dtd">
<svg version="1.1" id="Capa_1" xmlns="http://www.w3.org/2000/svg" xmlns:xlink="http://www.w3.org/1999/xlink" x="0px" y="0px"
	 viewBox="0 0 295.41 295.41" style="enable-background:new 0 0 295.41 295.41;" xml:space="preserve">
<path d="M293.634,14.683c-1.89-2.231-4.903-3.162-7.72-2.383L5.506,89.729c-3.993,1.103-6.336,5.233-5.233,9.226
	c1.102,3.992,5.231,6.338,9.226,5.233l264.777-73.112L172.113,250.956l-43.908-43.951l24.728-38.254
	c2.248-3.479,1.251-8.121-2.228-10.37s-8.12-1.253-10.37,2.228l-22.579,34.931l-35.479-35.48l102.915-43.594
	c3.813-1.616,5.596-6.018,3.98-9.832c-1.617-3.814-6.019-5.597-9.832-3.98L70.159,148.902l-17.48-17.497
	c-2.928-2.93-7.677-2.933-10.606-0.005c-2.931,2.928-2.933,7.676-0.005,10.606L62.55,162.51l26.019,115.026
	c0.741,3.278,3.572,5.662,6.928,5.836c0.131,0.007,0.261,0.01,0.391,0.01c2.075,0,4.001-0.867,5.387-2.304l43.596-36.167
	l24.216,24.24c1.419,1.42,3.333,2.199,5.306,2.199c0.434,0,0.871-0.038,1.306-0.114c2.412-0.427,4.464-2.004,5.496-4.226
	L294.712,22.69C295.943,20.039,295.522,16.914,293.634,14.683z M82.431,182.41l27.735,27.762l-12.851,38.041L82.431,182.41z
	 M111.494,253.109l10.503-31.094l12.226,12.238L111.494,253.109z"/>
<g>
</g>
<g>
</g>
<g>
</g>
<g>
</g>
<g>
</g>
<g>
</g>
<g>
</g>
<g>
</g>
<g>
</g>
<g>
</g>
<g>
</g>
<g>
</g>
<g>
</g>
<g>
</g>
<g>
</g>
</svg>
