<?xml version="1.0" encoding="iso-8859-1"?>
<!-- Generator: Adobe Illustrator 17.1.0, SVG Export Plug-In . SVG Version: 6.00 Build 0)  -->
<!DOCTYPE svg PUBLIC "-//W3C//DTD SVG 1.1//EN" "http://www.w3.org/Graphics/SVG/1.1/DTD/svg11.dtd">
<svg version="1.1" id="Capa_1" xmlns="http://www.w3.org/2000/svg" xmlns:xlink="http://www.w3.org/1999/xlink" x="0px" y="0px"
	 viewBox="0 0 315.557 315.557" style="enable-background:new 0 0 315.557 315.557;" xml:space="preserve">
<g>
	<path d="M157.778,269.378c-1.97,0-3.91,0.8-5.3,2.2c-1.4,1.39-2.2,3.33-2.2,5.3s0.8,3.91,2.2,5.3c1.39,1.4,3.33,2.2,5.3,2.2
		c1.97,0,3.91-0.8,5.3-2.2c1.4-1.39,2.2-3.33,2.2-5.3s-0.8-3.91-2.2-5.3C161.688,270.178,159.748,269.378,157.778,269.378z"/>
	<path d="M283.491,70.579c-0.003-0.151-0.011-0.302-0.023-0.454c-0.008-0.101-0.016-0.201-0.028-0.3
		c-0.017-0.14-0.039-0.279-0.064-0.418c-0.02-0.111-0.039-0.221-0.064-0.33c-0.027-0.121-0.06-0.242-0.093-0.362
		c-0.034-0.124-0.07-0.247-0.11-0.369c-0.034-0.102-0.073-0.203-0.111-0.304c-0.052-0.136-0.107-0.272-0.167-0.404
		c-0.039-0.086-0.081-0.172-0.124-0.257c-0.07-0.141-0.144-0.28-0.223-0.416c-0.022-0.038-0.039-0.077-0.061-0.115l-33.629-55.893
		C244.728,4.199,237.301,0,229.413,0H86.144c-7.888,0-15.315,4.199-19.382,10.959L33.132,66.851
		c-0.023,0.038-0.04,0.077-0.061,0.115c-0.079,0.136-0.152,0.275-0.223,0.416c-0.043,0.085-0.085,0.171-0.124,0.257
		c-0.06,0.133-0.114,0.268-0.167,0.404c-0.039,0.101-0.077,0.202-0.111,0.304c-0.041,0.121-0.076,0.245-0.11,0.369
		c-0.033,0.121-0.066,0.241-0.093,0.362c-0.024,0.109-0.044,0.219-0.064,0.33c-0.025,0.139-0.047,0.278-0.064,0.418
		c-0.012,0.099-0.02,0.2-0.028,0.3c-0.012,0.152-0.02,0.303-0.023,0.454c-0.001,0.046-0.007,0.091-0.007,0.138v34.897
		c0,15.3,9.398,28.441,22.722,33.968v132.275c0,24.096,19.604,43.699,43.7,43.699h118.596c24.096,0,43.7-19.604,43.7-43.699V139.583
		c13.324-5.527,22.722-18.668,22.722-33.968V70.717C283.498,70.67,283.492,70.625,283.491,70.579z M217.076,300.557H98.48
		c-15.825,0-28.7-12.874-28.7-28.699V142.363c3.492-0.035,6.868-0.557,10.064-1.505V251.34c0,4.143,3.358,7.5,7.5,7.5h140.866
		c4.142,0,7.5-3.357,7.5-7.5v-91.229c0-4.143-3.358-7.5-7.5-7.5s-7.5,3.357-7.5,7.5v83.729H94.845V134.874
		c0-0.832-0.141-1.63-0.391-2.377c1.532-1.428,2.943-2.985,4.214-4.654c6.721,8.825,17.336,14.531,29.259,14.531h0.591
		c11.923,0,22.539-5.706,29.259-14.531c6.721,8.825,17.336,14.531,29.26,14.531h0.591c11.923,0,22.539-5.706,29.259-14.531
		c6.65,8.733,17.116,14.402,28.888,14.52v129.495C245.776,287.683,232.901,300.557,217.076,300.557z M268.498,105.614
		c0,11.998-9.761,21.76-21.759,21.76h-0.592c-11.998,0-21.759-9.762-21.759-21.76c0-4.143-3.358-7.5-7.5-7.5s-7.5,3.357-7.5,7.5
		c0,11.998-9.761,21.76-21.759,21.76h-0.591c-11.999,0-21.76-9.762-21.76-21.76c0-4.143-3.358-7.5-7.5-7.5s-7.5,3.357-7.5,7.5
		c0,11.998-9.761,21.76-21.759,21.76h-0.591c-11.998,0-21.759-9.762-21.759-21.76c0-4.143-3.358-7.5-7.5-7.5s-7.5,3.357-7.5,7.5
		c0,11.998-9.761,21.76-21.759,21.76h-0.591c-11.998,0-21.759-9.762-21.759-21.76V72.799l32.556-54.107
		C80.985,16.415,83.487,15,86.144,15h143.269c2.657,0,5.159,1.415,6.53,3.692l26.79,44.524H98.668c-4.142,0-7.5,3.357-7.5,7.5
		s3.358,7.5,7.5,7.5h169.83V105.614z"/>
</g>
<g>
</g>
<g>
</g>
<g>
</g>
<g>
</g>
<g>
</g>
<g>
</g>
<g>
</g>
<g>
</g>
<g>
</g>
<g>
</g>
<g>
</g>
<g>
</g>
<g>
</g>
<g>
</g>
<g>
</g>
</svg>
