<?xml version="1.0" encoding="iso-8859-1"?>
<!-- Generator: Adobe Illustrator 17.1.0, SVG Export Plug-In . SVG Version: 6.00 Build 0)  -->
<!DOCTYPE svg PUBLIC "-//W3C//DTD SVG 1.1//EN" "http://www.w3.org/Graphics/SVG/1.1/DTD/svg11.dtd">
<svg version="1.1" id="Capa_1" xmlns="http://www.w3.org/2000/svg" xmlns:xlink="http://www.w3.org/1999/xlink" x="0px" y="0px"
	 viewBox="0 0 290.578 290.578" style="enable-background:new 0 0 290.578 290.578;" xml:space="preserve">
<path d="M237.709,33.18c-3.192-2.635-7.921-2.185-10.558,1.011c-2.637,3.195-2.185,7.922,1.011,10.559
	c14.359,11.85,25.792,26.378,33.835,42.56l-103.94,44.375l40.258-113.802c1.371-3.875-0.632-8.131-4.491-9.544
	C178.289,2.649,162.867,0,145.289,0C105.604,0,69.59,15.989,43.342,41.868c-0.274,0.207-0.537,0.436-0.788,0.686
	c-0.25,0.25-0.479,0.513-0.686,0.788C15.988,69.589,0,105.604,0,145.289c0,80.113,65.177,145.289,145.289,145.289
	s145.289-65.176,145.289-145.289C290.578,101.771,271.309,60.908,237.709,33.18z M145.289,15c13.092,0,24.816,1.627,36.338,5.079
	l-39.442,111.499L58.658,48.052C81.698,27.503,112.061,15,145.289,15z M15,145.289c0-33.229,12.503-63.591,33.052-86.63
	l87.969,87.969L76.532,255.909C39.618,232.882,15,191.91,15,145.289z M187.058,268.712l-25.267-91.747
	c-1.1-3.993-5.225-6.338-9.222-5.24c-3.993,1.1-6.34,5.229-5.239,9.222l25.266,91.743c-8.809,1.886-17.943,2.888-27.307,2.888
	c-19.876,0-38.723-4.481-55.595-12.474l60.937-111.94l117.251-50.058c5.034,13.988,7.696,28.901,7.696,44.183
	C275.578,202.528,238.476,251.264,187.058,268.712z"/>
<g>
</g>
<g>
</g>
<g>
</g>
<g>
</g>
<g>
</g>
<g>
</g>
<g>
</g>
<g>
</g>
<g>
</g>
<g>
</g>
<g>
</g>
<g>
</g>
<g>
</g>
<g>
</g>
<g>
</g>
</svg>
