<?xml version="1.0" encoding="iso-8859-1"?>
<!-- Generator: Adobe Illustrator 17.1.0, SVG Export Plug-In . SVG Version: 6.00 Build 0)  -->
<!DOCTYPE svg PUBLIC "-//W3C//DTD SVG 1.1//EN" "http://www.w3.org/Graphics/SVG/1.1/DTD/svg11.dtd">
<svg version="1.1" id="Capa_1" xmlns="http://www.w3.org/2000/svg" xmlns:xlink="http://www.w3.org/1999/xlink" x="0px" y="0px"
	 viewBox="0 0 368.554 368.554" style="enable-background:new 0 0 368.554 368.554;" xml:space="preserve">
<g>
	<path d="M311.964,127.192H247.61c-4.142,0-7.5,3.358-7.5,7.5v91.67H56.589C33.657,226.362,15,207.705,15,184.773v-0.992
		c0-22.932,18.657-41.589,41.589-41.589H200.61c4.142,0,7.5-3.358,7.5-7.5s-3.358-7.5-7.5-7.5H56.589
		C25.386,127.192,0,152.578,0,183.781v0.992c0,31.203,25.386,56.589,56.589,56.589h255.375c31.204,0,56.589-25.386,56.589-56.589
		v-0.992C368.554,152.578,343.168,127.192,311.964,127.192z M353.554,184.773c0,22.932-18.657,41.589-41.589,41.589H255.11v-84.17
		h56.854c22.933,0,41.589,18.657,41.589,41.589V184.773z"/>
	<path d="M316.143,192.232c1.652-3.52,2.58-7.445,2.58-11.584c0-15.09-12.276-27.366-27.366-27.366s-27.367,12.276-27.367,27.366
		s12.277,27.367,27.367,27.367c5.5,0,10.621-1.637,14.916-4.44l9.5,9.5c1.464,1.464,3.384,2.197,5.303,2.197
		s3.839-0.732,5.303-2.197c2.929-2.929,2.929-7.678,0-10.606L316.143,192.232z M278.99,180.648c0-6.819,5.548-12.366,12.367-12.366
		s12.366,5.547,12.366,12.366c0,2.667-0.857,5.132-2.298,7.155c-0.055,0.052-0.113,0.097-0.167,0.151
		c-0.398,0.398-0.737,0.831-1.027,1.287c-2.249,2.323-5.393,3.774-8.874,3.774C284.538,193.015,278.99,187.467,278.99,180.648z"/>
</g>
<g>
</g>
<g>
</g>
<g>
</g>
<g>
</g>
<g>
</g>
<g>
</g>
<g>
</g>
<g>
</g>
<g>
</g>
<g>
</g>
<g>
</g>
<g>
</g>
<g>
</g>
<g>
</g>
<g>
</g>
</svg>
