<?xml version="1.0" encoding="iso-8859-1"?>
<!-- Generator: Adobe Illustrator 17.1.0, SVG Export Plug-In . SVG Version: 6.00 Build 0)  -->
<!DOCTYPE svg PUBLIC "-//W3C//DTD SVG 1.1//EN" "http://www.w3.org/Graphics/SVG/1.1/DTD/svg11.dtd">
<svg version="1.1" id="Capa_1" xmlns="http://www.w3.org/2000/svg" xmlns:xlink="http://www.w3.org/1999/xlink" x="0px" y="0px"
	 viewBox="0 0 288.889 288.889" style="enable-background:new 0 0 288.889 288.889;" xml:space="preserve">
<path d="M249.775,0h-1.449c-1.269,0-2.517,0.322-3.627,0.936c-27.918,15.424-63.522,23.919-100.255,23.919
	S72.107,16.359,44.189,0.936C43.079,0.322,41.831,0,40.563,0h-1.449c-4.143,0-7.5,3.357-7.5,7.5v202.593
	c0,2.489,1.234,4.815,3.296,6.211l105.325,71.292c0.286,0.194,0.591,0.363,0.903,0.517c0.058,0.028,0.115,0.057,0.173,0.083
	c0.307,0.142,0.622,0.268,0.949,0.367c0.012,0.004,0.025,0.006,0.038,0.01c0.301,0.09,0.612,0.156,0.928,0.208
	c0.076,0.013,0.152,0.024,0.229,0.035c0.324,0.043,0.653,0.073,0.989,0.073s0.665-0.03,0.989-0.073
	c0.077-0.01,0.153-0.022,0.229-0.035c0.316-0.052,0.627-0.118,0.928-0.208c0.013-0.004,0.025-0.006,0.038-0.01
	c0.328-0.1,0.643-0.226,0.95-0.368c0.058-0.027,0.115-0.055,0.172-0.083c0.314-0.155,0.62-0.325,0.907-0.521l105.322-71.311
	c2.061-1.395,3.295-3.722,3.295-6.21V7.5C257.275,3.357,253.918,0,249.775,0z M136.944,39.732v82.843H46.613V19.024
	C72.99,31.546,104.45,38.765,136.944,39.732z M46.613,137.575h90.331v129.681l-90.331-61.144V137.575z M242.275,206.092
	l-90.331,61.162V137.575h62.028c4.143,0,7.5-3.357,7.5-7.5s-3.357-7.5-7.5-7.5h-62.028V39.732
	c32.495-0.967,63.954-8.186,90.331-20.708V206.092z"/>
<g>
</g>
<g>
</g>
<g>
</g>
<g>
</g>
<g>
</g>
<g>
</g>
<g>
</g>
<g>
</g>
<g>
</g>
<g>
</g>
<g>
</g>
<g>
</g>
<g>
</g>
<g>
</g>
<g>
</g>
</svg>
