<?xml version="1.0" encoding="iso-8859-1"?>
<!-- Generator: Adobe Illustrator 17.1.0, SVG Export Plug-In . SVG Version: 6.00 Build 0)  -->
<!DOCTYPE svg PUBLIC "-//W3C//DTD SVG 1.1//EN" "http://www.w3.org/Graphics/SVG/1.1/DTD/svg11.dtd">
<svg version="1.1" id="Capa_1" xmlns="http://www.w3.org/2000/svg" xmlns:xlink="http://www.w3.org/1999/xlink" x="0px" y="0px"
	 viewBox="0 0 291.25 291.25" style="enable-background:new 0 0 291.25 291.25;" xml:space="preserve">
<g>
	<path d="M290.037,95.366c-1.384-2.127-3.749-3.41-6.287-3.41h-33.333c-4.142,0-7.5,3.358-7.5,7.5s3.358,7.5,7.5,7.5h21.807
		l-42.827,96.646H105.952L53.942,96.188c-1.253-2.588-3.875-4.231-6.75-4.231H7.5c-4.142,0-7.5,3.358-7.5,7.5s3.358,7.5,7.5,7.5
		h34.99L94.5,214.371c1.253,2.588,3.875,4.231,6.75,4.231h133.026c2.967,0,5.655-1.749,6.857-4.461l49.474-111.646
		C291.635,100.175,291.42,97.493,290.037,95.366z"/>
	<path d="M112.021,228.593c-14.279,0-25.895,11.616-25.895,25.895c0,14.279,11.616,25.895,25.895,25.895
		s25.895-11.616,25.895-25.895C137.917,240.209,126.3,228.593,112.021,228.593z M112.021,265.383
		c-6.007,0-10.895-4.888-10.895-10.895c0-6.007,4.888-10.895,10.895-10.895s10.895,4.888,10.895,10.895
		C122.917,260.495,118.029,265.383,112.021,265.383z"/>
	<path d="M221.132,228.593c-14.279,0-25.895,11.616-25.895,25.895c0,14.279,11.616,25.895,25.895,25.895
		s25.895-11.616,25.895-25.895C247.027,240.209,235.411,228.593,221.132,228.593z M221.132,265.383
		c-6.007,0-10.895-4.888-10.895-10.895c0-6.007,4.888-10.895,10.895-10.895s10.895,4.888,10.895,10.895
		C232.027,260.495,227.14,265.383,221.132,265.383z"/>
	<path d="M150.681,165.632c42.669,0,77.382-34.713,77.382-77.382s-34.713-77.382-77.382-77.382S73.299,45.581,73.299,88.25
		S108.012,165.632,150.681,165.632z M150.681,25.867c34.398,0,62.382,27.984,62.382,62.382s-27.984,62.382-62.382,62.382
		S88.299,122.647,88.299,88.25S116.283,25.867,150.681,25.867z"/>
	<path d="M118.4,95.009c0,3.585,2.71,6.42,6.239,6.614c3.645,15.097,14.091,22.747,31.08,22.747c10.65,0,20.532-4.352,25.802-11.373
		c0.943-1.278,1.441-2.788,1.441-4.366c0-4.234-3.444-7.678-7.678-7.678c-2.071,0-3.942,0.901-5.911,2.86
		c-4.186,4.279-7.376,5.583-13.654,5.583c-7.367,0-11.6-2.293-13.91-7.762h8.154c3.714,0,6.624-2.91,6.624-6.624
		c0-2.915-1.792-5.334-4.358-6.241c2.54-0.927,4.358-3.368,4.358-6.225c0-3.714-2.91-6.624-6.624-6.624h-8.421
		c2.354-6.069,6.836-8.816,14.178-8.816c5.816,0,9.361,1.588,13.073,5.852c1.593,1.844,3.552,2.779,5.82,2.779
		c4.234,0,7.678-3.402,7.678-7.584c0-1.601-0.469-3.048-1.49-4.572c-2.917-4.275-10.056-11.448-25.082-11.448
		c-16.924,0-27.675,8.22-31.211,23.81c-3.464,0.255-6.108,3.064-6.108,6.605c0,2.857,1.818,5.297,4.358,6.225
		C120.191,89.675,118.4,92.094,118.4,95.009z"/>
</g>
<g>
</g>
<g>
</g>
<g>
</g>
<g>
</g>
<g>
</g>
<g>
</g>
<g>
</g>
<g>
</g>
<g>
</g>
<g>
</g>
<g>
</g>
<g>
</g>
<g>
</g>
<g>
</g>
<g>
</g>
</svg>
