<?xml version="1.0" encoding="iso-8859-1"?>
<!-- Generator: Adobe Illustrator 17.1.0, SVG Export Plug-In . SVG Version: 6.00 Build 0)  -->
<!DOCTYPE svg PUBLIC "-//W3C//DTD SVG 1.1//EN" "http://www.w3.org/Graphics/SVG/1.1/DTD/svg11.dtd">
<svg version="1.1" id="Capa_1" xmlns="http://www.w3.org/2000/svg" xmlns:xlink="http://www.w3.org/1999/xlink" x="0px" y="0px"
	 viewBox="0 0 291.25 291.25" style="enable-background:new 0 0 291.25 291.25;" xml:space="preserve">
<g>
	<path d="M290.037,95.366c-1.384-2.127-3.749-3.41-6.287-3.41h-33.333c-4.142,0-7.5,3.358-7.5,7.5s3.358,7.5,7.5,7.5h21.807
		l-42.827,96.646H105.952L53.942,96.188c-1.253-2.588-3.875-4.231-6.75-4.231H7.5c-4.142,0-7.5,3.358-7.5,7.5s3.358,7.5,7.5,7.5
		h34.99L94.5,214.371c1.253,2.588,3.875,4.231,6.75,4.231h133.026c2.967,0,5.655-1.749,6.857-4.461l49.474-111.646
		C291.635,100.175,291.42,97.493,290.037,95.366z"/>
	<path d="M112.021,228.593c-14.279,0-25.895,11.616-25.895,25.895c0,14.279,11.616,25.895,25.895,25.895
		s25.895-11.616,25.895-25.895C137.917,240.209,126.3,228.593,112.021,228.593z M112.021,265.383
		c-6.007,0-10.895-4.888-10.895-10.895c0-6.007,4.888-10.895,10.895-10.895s10.895,4.888,10.895,10.895
		C122.917,260.495,118.029,265.383,112.021,265.383z"/>
	<path d="M221.132,228.593c-14.279,0-25.895,11.616-25.895,25.895c0,14.279,11.616,25.895,25.895,25.895
		s25.895-11.616,25.895-25.895C247.027,240.209,235.411,228.593,221.132,228.593z M221.132,265.383
		c-6.007,0-10.895-4.888-10.895-10.895c0-6.007,4.888-10.895,10.895-10.895s10.895,4.888,10.895,10.895
		C232.027,260.495,227.14,265.383,221.132,265.383z"/>
	<path d="M150.681,165.632c42.669,0,77.382-34.713,77.382-77.382s-34.713-77.382-77.382-77.382S73.299,45.581,73.299,88.25
		S108.012,165.632,150.681,165.632z M150.681,25.867c34.398,0,62.382,27.984,62.382,62.382s-27.984,62.382-62.382,62.382
		S88.299,122.647,88.299,88.25S116.283,25.867,150.681,25.867z"/>
	<path d="M144.573,120.98v2.796c0,3.658,2.936,6.634,6.545,6.634c3.658,0,6.634-2.976,6.634-6.634v-2.726
		c11.438-1.835,17.94-8.792,17.94-19.348c0-14.563-12.479-18.665-21.59-21.659c-6.537-2.148-10.506-3.656-10.506-6.48
		c0-2.825,2.742-4.445,7.522-4.445c4.782,0,8.598,2.043,10.607,3.988c1.882,1.755,3.676,2.608,5.485,2.608
		c3.997,0,7.248-3.214,7.248-7.165c0-1.478-0.45-2.931-1.339-4.256c-3.017-4.262-8.544-7.338-15.368-8.61v-2.961
		c0-3.658-2.976-6.634-6.634-6.634c-3.609,0-6.545,2.976-6.545,6.634v2.863c-8.188,1.569-16.181,6.958-16.181,17.978
		c0,13.726,11.995,17.687,20.752,20.58c7.036,2.324,11.349,3.932,11.349,7.56c0,1.814,0,5.59-9.375,5.59
		c-4.509,0-8.648-1.947-12.654-5.953c-0.996-0.996-2.664-2.664-5.635-2.664c-3.948,0-7.16,3.251-7.16,7.249
		c0,1.32,0.384,2.664,1.076,3.777C130.141,115.196,136.985,119.48,144.573,120.98z"/>
</g>
<g>
</g>
<g>
</g>
<g>
</g>
<g>
</g>
<g>
</g>
<g>
</g>
<g>
</g>
<g>
</g>
<g>
</g>
<g>
</g>
<g>
</g>
<g>
</g>
<g>
</g>
<g>
</g>
<g>
</g>
</svg>
