<?xml version="1.0" encoding="iso-8859-1"?>
<!-- Generator: Adobe Illustrator 17.1.0, SVG Export Plug-In . SVG Version: 6.00 Build 0)  -->
<!DOCTYPE svg PUBLIC "-//W3C//DTD SVG 1.1//EN" "http://www.w3.org/Graphics/SVG/1.1/DTD/svg11.dtd">
<svg version="1.1" id="Capa_1" xmlns="http://www.w3.org/2000/svg" xmlns:xlink="http://www.w3.org/1999/xlink" x="0px" y="0px"
	 viewBox="0 0 320.479 320.479" style="enable-background:new 0 0 320.479 320.479;" xml:space="preserve">
<g>
	<path d="M320.469,306.348L310.462,113.64c-0.041-0.79-0.208-1.545-0.473-2.25V87.411c0-44.757-36.412-81.169-81.169-81.169h-1.488
		c-8.433,0-16.568,1.295-24.22,3.692c-7.652-2.397-15.788-3.692-24.22-3.692h-1.488c-44.757,0-81.169,36.412-81.169,81.169v26.617
		c0,0.473,0.049,0.934,0.133,1.382l-1.094,21.056c-0.215,4.137,2.965,7.664,7.102,7.879c4.098,0.208,7.664-2.965,7.879-7.102
		l0.815-15.716h42.111h93.438l9.229,177.708H143.174h-41.332l0.402-7.731c0.215-4.136-2.965-7.664-7.102-7.879
		c-4.134-0.232-7.664,2.964-7.879,7.102l-0.812,15.62c-0.106,2.054,0.635,4.061,2.051,5.553c1.416,1.491,3.383,2.336,5.439,2.336
		h49.231h120.573h49.231c2.057,0,4.023-0.845,5.439-2.336S320.575,308.402,320.469,306.348z M227.332,21.242h1.488
		c36.485,0,66.169,29.684,66.169,66.169v19.117h-34.929V87.411c0-27.259-13.521-51.405-34.194-66.132
		C226.356,21.269,226.841,21.242,227.332,21.242z M203.112,25.854c24.536,9.688,41.949,33.62,41.949,61.558v19.117h-83.897V87.411
		C161.163,59.474,178.576,35.542,203.112,25.854z M177.403,21.242h1.488c0.491,0,0.976,0.026,1.465,0.037
		c-20.673,14.727-34.194,38.873-34.194,66.132v19.117h-34.929V87.411C111.234,50.926,140.918,21.242,177.403,21.242z
		 M270.868,299.236l-9.228-177.708h34.21l9.229,177.708H270.868z"/>
	<path d="M208.181,260.986V159.779c0-4.143-3.357-7.5-7.5-7.5H7.5c-4.143,0-7.5,3.357-7.5,7.5v101.206c0,4.143,3.357,7.5,7.5,7.5
		h193.181C204.823,268.486,208.181,265.128,208.181,260.986z M193.181,253.486H15v-86.206h178.181V253.486z"/>
	<path d="M104.091,246.633c19.988,0,36.25-16.262,36.25-36.25s-16.262-36.25-36.25-36.25s-36.25,16.262-36.25,36.25
		S84.103,246.633,104.091,246.633z M104.091,189.133c11.718,0,21.25,9.532,21.25,21.25s-9.532,21.25-21.25,21.25
		s-21.25-9.532-21.25-21.25S92.373,189.133,104.091,189.133z"/>
</g>
<g>
</g>
<g>
</g>
<g>
</g>
<g>
</g>
<g>
</g>
<g>
</g>
<g>
</g>
<g>
</g>
<g>
</g>
<g>
</g>
<g>
</g>
<g>
</g>
<g>
</g>
<g>
</g>
<g>
</g>
</svg>
