<?xml version="1.0" encoding="iso-8859-1"?>
<!-- Generator: Adobe Illustrator 17.1.0, SVG Export Plug-In . SVG Version: 6.00 Build 0)  -->
<!DOCTYPE svg PUBLIC "-//W3C//DTD SVG 1.1//EN" "http://www.w3.org/Graphics/SVG/1.1/DTD/svg11.dtd">
<svg version="1.1" id="Capa_1" xmlns="http://www.w3.org/2000/svg" xmlns:xlink="http://www.w3.org/1999/xlink" x="0px" y="0px"
	 viewBox="0 0 291.25 291.25" style="enable-background:new 0 0 291.25 291.25;" xml:space="preserve">
<g>
	<path d="M290.037,95.366c-1.384-2.127-3.749-3.41-6.287-3.41h-33.333c-4.142,0-7.5,3.358-7.5,7.5s3.358,7.5,7.5,7.5h21.807
		l-42.827,96.646H105.952L53.942,96.188c-1.253-2.588-3.875-4.231-6.75-4.231H7.5c-4.142,0-7.5,3.358-7.5,7.5s3.358,7.5,7.5,7.5
		h34.99L94.5,214.371c1.253,2.588,3.875,4.231,6.75,4.231h133.026c2.967,0,5.655-1.749,6.857-4.461l49.474-111.646
		C291.635,100.175,291.42,97.493,290.037,95.366z"/>
	<path d="M112.021,228.593c-14.279,0-25.895,11.616-25.895,25.895c0,14.279,11.616,25.895,25.895,25.895
		s25.895-11.616,25.895-25.895C137.917,240.209,126.3,228.593,112.021,228.593z M112.021,265.383
		c-6.007,0-10.895-4.888-10.895-10.895c0-6.007,4.888-10.895,10.895-10.895s10.895,4.888,10.895,10.895
		C122.917,260.495,118.029,265.383,112.021,265.383z"/>
	<path d="M221.132,228.593c-14.279,0-25.895,11.616-25.895,25.895c0,14.279,11.616,25.895,25.895,25.895
		s25.895-11.616,25.895-25.895C247.027,240.209,235.411,228.593,221.132,228.593z M221.132,265.383
		c-6.007,0-10.895-4.888-10.895-10.895c0-6.007,4.888-10.895,10.895-10.895s10.895,4.888,10.895,10.895
		C232.027,260.495,227.14,265.383,221.132,265.383z"/>
	<path d="M150.681,165.632c42.669,0,77.382-34.713,77.382-77.382s-34.713-77.382-77.382-77.382S73.299,45.581,73.299,88.25
		S108.012,165.632,150.681,165.632z M150.681,25.867c34.398,0,62.382,27.984,62.382,62.382s-27.984,62.382-62.382,62.382
		S88.299,122.647,88.299,88.25S116.283,25.867,150.681,25.867z"/>
	<path d="M115.55,108.657l24.584-20.321l12.281,15.042c2.57,3.148,7.18,3.675,10.396,1.191l32.366-25.013
		c3.277-2.533,3.881-7.243,1.348-10.521c-2.533-3.277-7.243-3.88-10.521-1.348l-26.588,20.548l-12.435-15.231
		c-1.263-1.547-3.091-2.526-5.078-2.721c-1.991-0.197-3.971,0.412-5.51,1.684l-30.4,25.129c-3.193,2.639-3.642,7.367-1.002,10.559
		c1.483,1.794,3.625,2.722,5.785,2.722C112.458,110.376,114.151,109.813,115.55,108.657z"/>
</g>
<g>
</g>
<g>
</g>
<g>
</g>
<g>
</g>
<g>
</g>
<g>
</g>
<g>
</g>
<g>
</g>
<g>
</g>
<g>
</g>
<g>
</g>
<g>
</g>
<g>
</g>
<g>
</g>
<g>
</g>
</svg>
