<?xml version="1.0" encoding="iso-8859-1"?>
<!-- Generator: Adobe Illustrator 17.1.0, SVG Export Plug-In . SVG Version: 6.00 Build 0)  -->
<!DOCTYPE svg PUBLIC "-//W3C//DTD SVG 1.1//EN" "http://www.w3.org/Graphics/SVG/1.1/DTD/svg11.dtd">
<svg version="1.1" id="Capa_1" xmlns="http://www.w3.org/2000/svg" xmlns:xlink="http://www.w3.org/1999/xlink" x="0px" y="0px"
	 viewBox="0 0 291.92 291.92" style="enable-background:new 0 0 291.92 291.92;" xml:space="preserve">
<g>
	<path d="M261.272,50.903H30.647C13.748,50.903,0,64.651,0,81.551v128.818c0,16.899,13.748,30.648,30.647,30.648h230.625
		c16.899,0,30.647-13.749,30.647-30.648V81.551C291.92,64.651,278.172,50.903,261.272,50.903z M276.92,210.369
		c0,8.628-7.02,15.648-15.647,15.648H30.647c-8.628,0-15.647-7.02-15.647-15.648V81.551c0-8.628,7.02-15.648,15.647-15.648h230.625
		c8.628,0,15.647,7.02,15.647,15.648V210.369z"/>
	<path d="M233.517,75.664H31.183c-4.143,0-7.5,3.358-7.5,7.5v125.593c0,4.142,3.357,7.5,7.5,7.5H192.96c4.143,0,7.5-3.358,7.5-7.5
		s-3.357-7.5-7.5-7.5H38.683V90.664h187.334v118.093c0,4.142,3.357,7.5,7.5,7.5s7.5-3.358,7.5-7.5V83.164
		C241.017,79.021,237.659,75.664,233.517,75.664z"/>
	<path d="M257.75,138.46c-1.98,0-3.91,0.8-5.311,2.2c-1.39,1.39-2.189,3.32-2.189,5.3s0.8,3.91,2.189,5.3
		c1.4,1.4,3.33,2.2,5.311,2.2c1.97,0,3.899-0.8,5.3-2.2c1.39-1.39,2.2-3.32,2.2-5.3s-0.811-3.91-2.2-5.3
		C261.649,139.26,259.72,138.46,257.75,138.46z"/>
	<path d="M209.216,175.621l-38.696-14.784c-1.639-0.626-3.444-0.659-5.104-0.09l-48.463,16.576l-20.854-21.574
		c-1.737-1.798-4.257-2.613-6.718-2.169l-38.334,6.882c-4.077,0.732-6.789,4.63-6.057,8.707c0.731,4.078,4.634,6.789,8.707,6.057
		l34.396-6.175l21.386,22.124c1.438,1.487,3.394,2.288,5.394,2.288c0.813,0,1.632-0.132,2.426-0.404l50.403-17.239l36.16,13.815
		c3.87,1.481,8.204-0.46,9.683-4.329C215.023,181.434,213.085,177.099,209.216,175.621z"/>
	<path d="M211.292,117.099l-39.823,15.678l-19.627-24.804c-1.356-1.714-3.394-2.751-5.577-2.84c-2.222-0.09-4.299,0.78-5.789,2.378
		l-24.174,25.919L96.368,98.878c-1.944-3.371-6.142-4.69-9.668-3.048l-37.5,17.5c-3.753,1.751-5.376,6.214-3.624,9.968
		c1.751,3.753,6.212,5.377,9.968,3.625l31.269-14.592l21.563,37.377c1.188,2.06,3.283,3.434,5.646,3.704
		c0.284,0.032,0.568,0.048,0.852,0.048c2.066,0,4.057-0.855,5.483-2.385l25.137-26.952l17.664,22.324
		c2.051,2.592,5.559,3.536,8.629,2.325l45-17.716c3.854-1.517,5.749-5.872,4.231-9.726S215.142,115.58,211.292,117.099z"/>
</g>
<g>
</g>
<g>
</g>
<g>
</g>
<g>
</g>
<g>
</g>
<g>
</g>
<g>
</g>
<g>
</g>
<g>
</g>
<g>
</g>
<g>
</g>
<g>
</g>
<g>
</g>
<g>
</g>
<g>
</g>
</svg>
