<?xml version="1.0" encoding="iso-8859-1"?>
<!-- Generator: Adobe Illustrator 17.1.0, SVG Export Plug-In . SVG Version: 6.00 Build 0)  -->
<!DOCTYPE svg PUBLIC "-//W3C//DTD SVG 1.1//EN" "http://www.w3.org/Graphics/SVG/1.1/DTD/svg11.dtd">
<svg version="1.1" id="Capa_1" xmlns="http://www.w3.org/2000/svg" xmlns:xlink="http://www.w3.org/1999/xlink" x="0px" y="0px"
	 viewBox="0 0 291.92 291.92" style="enable-background:new 0 0 291.92 291.92;" xml:space="preserve">
<g>
	<path d="M261.272,50.903H30.647C13.748,50.903,0,64.651,0,81.551c0,4.142,3.357,7.5,7.5,7.5s7.5-3.358,7.5-7.5
		c0-8.628,7.02-15.648,15.647-15.648h230.625c8.628,0,15.647,7.02,15.647,15.648v128.818c0,8.628-7.02,15.648-15.647,15.648H30.647
		c-8.628,0-15.647-7.02-15.647-15.648V120.46c0-4.142-3.357-7.5-7.5-7.5s-7.5,3.358-7.5,7.5v89.909
		c0,16.899,13.748,30.648,30.647,30.648h230.625c16.899,0,30.647-13.749,30.647-30.648V81.551
		C291.92,64.651,278.172,50.903,261.272,50.903z"/>
	<path d="M194.96,75.664H31.183c-4.143,0-7.5,3.358-7.5,7.5v125.593c0,4.142,3.357,7.5,7.5,7.5h202.334c4.143,0,7.5-3.358,7.5-7.5
		V83.164c0-4.142-3.357-7.5-7.5-7.5s-7.5,3.358-7.5,7.5v118.093H38.683V90.664H194.96c4.143,0,7.5-3.358,7.5-7.5
		S199.103,75.664,194.96,75.664z"/>
	<path d="M263.05,151.26c1.4-1.39,2.2-3.33,2.2-5.3c0-1.97-0.8-3.91-2.2-5.3c-1.4-1.4-3.33-2.2-5.3-2.2c-1.98,0-3.91,0.8-5.311,2.2
		c-1.39,1.39-2.189,3.32-2.189,5.3c0,1.97,0.8,3.91,2.189,5.3c1.4,1.4,3.33,2.2,5.311,2.2
		C259.72,153.46,261.649,152.66,263.05,151.26z"/>
	<path d="M184.539,117.816c-6.979-0.296-13.578,2.956-17.621,8.667l-15.165,21.421c-2.927-6.447-9.022-10.777-16.141-11.39
		c-7.462-0.642-14.517,2.933-18.41,9.333l-8.258,13.573c-0.444,0.73-1.098,1.031-1.94,0.894c-0.844-0.137-1.367-0.628-1.559-1.461
		l-6.142-26.842c-1.788-7.814-7.791-13.593-15.667-15.081c-7.878-1.49-15.576,1.701-20.093,8.324l-13.432,19.701
		c-2.333,3.423-1.45,8.088,1.973,10.422c3.422,2.332,8.087,1.45,10.422-1.972l13.431-19.701c1.615-2.369,3.973-2.213,4.913-2.035
		c0.938,0.177,3.191,0.892,3.831,3.687l6.142,26.842c1.542,6.742,6.95,11.815,13.777,12.923c0.92,0.149,1.836,0.222,2.745,0.222
		c5.839,0,11.302-3.012,14.413-8.125l8.258-13.573c1.333-2.192,3.454-2.258,4.309-2.185c0.852,0.074,2.934,0.501,3.877,2.901
		l0.132,0.333c1.916,4.871,6.334,8.288,11.53,8.918c5.196,0.631,10.304-1.633,13.328-5.905l15.968-22.556
		c1.578-2.228,3.871-2.387,4.771-2.346c0.909,0.037,3.173,0.376,4.564,2.725l13.442,22.694c2.113,3.564,6.713,4.741,10.275,2.631
		c3.563-2.111,4.741-6.711,2.631-10.275L201.4,127.884C197.834,121.864,191.531,118.101,184.539,117.816z"/>
</g>
<g>
</g>
<g>
</g>
<g>
</g>
<g>
</g>
<g>
</g>
<g>
</g>
<g>
</g>
<g>
</g>
<g>
</g>
<g>
</g>
<g>
</g>
<g>
</g>
<g>
</g>
<g>
</g>
<g>
</g>
</svg>
