<?xml version="1.0" encoding="iso-8859-1"?>
<!-- Generator: Adobe Illustrator 17.1.0, SVG Export Plug-In . SVG Version: 6.00 Build 0)  -->
<!DOCTYPE svg PUBLIC "-//W3C//DTD SVG 1.1//EN" "http://www.w3.org/Graphics/SVG/1.1/DTD/svg11.dtd">
<svg version="1.1" id="Capa_1" xmlns="http://www.w3.org/2000/svg" xmlns:xlink="http://www.w3.org/1999/xlink" x="0px" y="0px"
	 viewBox="0 0 300.547 300.547" style="enable-background:new 0 0 300.547 300.547;" xml:space="preserve">
<g>
	<path d="M209.571,0c-4.142,0-7.5,3.358-7.5,7.5s3.358,7.5,7.5,7.5c15.825,0,28.7,12.875,28.7,28.699v213.148
		c0,15.825-12.875,28.699-28.7,28.699H90.976c-15.825,0-28.7-12.875-28.7-28.699V43.699C62.276,27.875,75.15,15,90.976,15h74.798
		c4.142,0,7.5-3.358,7.5-7.5s-3.358-7.5-7.5-7.5H90.976c-24.096,0-43.7,19.604-43.7,43.699v213.148
		c0,24.096,19.604,43.699,43.7,43.699h118.596c24.096,0,43.7-19.604,43.7-43.699V43.699C253.271,19.604,233.667,0,209.571,0z"/>
	<path d="M228.207,236.33V41.276c0-4.142-3.358-7.5-7.5-7.5H79.84c-4.142,0-7.5,3.358-7.5,7.5v151.003c0,4.142,3.358,7.5,7.5,7.5
		s7.5-3.358,7.5-7.5V48.776h125.866V228.83H79.84c-4.142,0-7.5,3.358-7.5,7.5s3.358,7.5,7.5,7.5h140.866
		C224.849,243.83,228.207,240.472,228.207,236.33z"/>
	<path d="M144.973,256.563c-1.4,1.4-2.2,3.33-2.2,5.31c0,1.97,0.8,3.9,2.2,5.3c1.39,1.4,3.33,2.2,5.3,2.2c1.97,0,3.91-0.8,5.3-2.2
		c1.4-1.4,2.2-3.33,2.2-5.3c0-1.98-0.8-3.91-2.2-5.31c-1.39-1.39-3.33-2.19-5.3-2.19
		C148.303,254.374,146.363,255.173,144.973,256.563z"/>
	<path d="M150.863,165.351c-6.322,0-12.104-2.708-17.677-8.281c-1.329-1.329-3.336-3.337-6.984-3.337
		c-4.843,0-8.783,3.994-8.783,8.902c0,1.62,0.471,3.268,1.321,4.634c4.56,7.38,13.887,13.098,24.168,14.944v4.492
		c0,4.452,3.568,8.073,7.954,8.073c4.452,0,8.074-3.622,8.074-8.073v-4.424c15.411-2.226,24.19-11.366,24.19-25.339
		c0-19.006-16.479-24.422-28.512-28.376c-9.187-3.019-14.765-5.169-14.765-9.565c0-4.363,4.014-6.865,11.013-6.865
		c5.611,0,11.307,2.138,14.896,5.611c2.401,2.24,4.563,3.283,6.802,3.283c4.909,0,8.902-3.943,8.902-8.79
		c0-1.82-0.557-3.613-1.646-5.235c-4.041-5.709-11.576-9.795-20.881-11.383V90.9c0-4.452-3.622-8.074-8.074-8.074
		c-4.386,0-7.954,3.622-7.954,8.074v4.578c-13.711,2.249-21.817,10.916-21.817,23.522c0,17.877,15.184,22.892,27.383,26.921
		c9.858,3.256,15.9,5.53,15.9,11.021C164.375,160.857,162.839,165.351,150.863,165.351z"/>
</g>
<g>
</g>
<g>
</g>
<g>
</g>
<g>
</g>
<g>
</g>
<g>
</g>
<g>
</g>
<g>
</g>
<g>
</g>
<g>
</g>
<g>
</g>
<g>
</g>
<g>
</g>
<g>
</g>
<g>
</g>
</svg>
