<?xml version="1.0" encoding="iso-8859-1"?>
<!-- Generator: Adobe Illustrator 17.1.0, SVG Export Plug-In . SVG Version: 6.00 Build 0)  -->
<!DOCTYPE svg PUBLIC "-//W3C//DTD SVG 1.1//EN" "http://www.w3.org/Graphics/SVG/1.1/DTD/svg11.dtd">
<svg version="1.1" id="Capa_1" xmlns="http://www.w3.org/2000/svg" xmlns:xlink="http://www.w3.org/1999/xlink" x="0px" y="0px"
	 viewBox="0 0 300.547 300.547" style="enable-background:new 0 0 300.547 300.547;" xml:space="preserve">
<g>
	<path d="M209.571,0H90.976C66.88,0,47.276,19.604,47.276,43.699c0,4.142,3.357,7.5,7.5,7.5s7.5-3.358,7.5-7.5
		C62.276,27.875,75.15,15,90.976,15h118.596c15.825,0,28.699,12.875,28.699,28.699v213.148c0,15.825-12.874,28.699-28.699,28.699
		H90.976c-15.825,0-28.699-12.875-28.699-28.699V94.636c0-4.142-3.357-7.5-7.5-7.5s-7.5,3.358-7.5,7.5v162.211
		c0,24.096,19.604,43.699,43.699,43.699h118.596c24.096,0,43.699-19.604,43.699-43.699V43.699C253.271,19.604,233.667,0,209.571,0z"
		/>
	<path d="M220.707,196.773c4.143,0,7.5-3.358,7.5-7.5V41.276c0-4.142-3.357-7.5-7.5-7.5H79.84c-4.143,0-7.5,3.358-7.5,7.5V236.33
		c0,4.142,3.357,7.5,7.5,7.5h140.867c4.143,0,7.5-3.358,7.5-7.5s-3.357-7.5-7.5-7.5H87.34V48.776h125.867v140.498
		C213.207,193.416,216.564,196.773,220.707,196.773z"/>
	<path d="M144.974,256.563c-1.4,1.4-2.2,3.33-2.2,5.31c0,1.97,0.8,3.9,2.2,5.3c1.39,1.4,3.329,2.2,5.3,2.2c1.97,0,3.91-0.8,5.3-2.2
		c1.4-1.39,2.2-3.33,2.2-5.3c0-1.98-0.8-3.91-2.2-5.31c-1.39-1.39-3.33-2.19-5.3-2.19
		C148.303,254.373,146.363,255.173,144.974,256.563z"/>
	<path d="M98.606,138.803c0,28.489,23.178,51.667,51.667,51.667s51.667-23.178,51.667-51.667c0-28.489-23.178-51.667-51.667-51.667
		S98.606,110.314,98.606,138.803z M186.94,138.803c0,20.218-16.448,36.667-36.667,36.667s-36.667-16.449-36.667-36.667
		c0-20.218,16.448-36.667,36.667-36.667S186.94,118.585,186.94,138.803z"/>
	<path d="M142.773,119.011v19.167c0,4.142,3.357,7.5,7.5,7.5s7.5-3.358,7.5-7.5v-19.167c0-4.142-3.357-7.5-7.5-7.5
		S142.773,114.869,142.773,119.011z"/>
	<path d="M150.273,151.093c-1.98,0-3.91,0.8-5.3,2.2c-1.4,1.39-2.2,3.33-2.2,5.3c0,1.98,0.8,3.91,2.2,5.3
		c1.39,1.4,3.319,2.2,5.3,2.2c1.979,0,3.91-0.8,5.3-2.2c1.4-1.39,2.2-3.32,2.2-5.3s-0.8-3.91-2.2-5.3
		C154.184,151.893,152.253,151.093,150.273,151.093z"/>
</g>
<g>
</g>
<g>
</g>
<g>
</g>
<g>
</g>
<g>
</g>
<g>
</g>
<g>
</g>
<g>
</g>
<g>
</g>
<g>
</g>
<g>
</g>
<g>
</g>
<g>
</g>
<g>
</g>
<g>
</g>
</svg>
