<?xml version="1.0" encoding="iso-8859-1"?>
<!-- Generator: Adobe Illustrator 17.1.0, SVG Export Plug-In . SVG Version: 6.00 Build 0)  -->
<!DOCTYPE svg PUBLIC "-//W3C//DTD SVG 1.1//EN" "http://www.w3.org/Graphics/SVG/1.1/DTD/svg11.dtd">
<svg version="1.1" id="Capa_1" xmlns="http://www.w3.org/2000/svg" xmlns:xlink="http://www.w3.org/1999/xlink" x="0px" y="0px"
	 viewBox="0 0 276.667 276.667" style="enable-background:new 0 0 276.667 276.667;" xml:space="preserve">
<g>
	<path d="M269.167,22.391H7.5c-4.142,0-7.5,3.357-7.5,7.5v165.953c0,4.143,3.358,7.5,7.5,7.5h36.47c4.142,0,7.5-3.357,7.5-7.5
		s-3.358-7.5-7.5-7.5H15V37.391h246.667v150.953h-92.192c-2.612,0-5.036,1.359-6.399,3.588l-24.742,40.466l-24.742-40.466
		c-2.161-3.534-6.777-4.647-10.311-2.486c-3.534,2.16-4.647,6.776-2.487,10.311l31.141,50.932c1.363,2.229,3.787,3.588,6.399,3.588
		s5.036-1.359,6.399-3.588l28.947-47.344h95.487c4.142,0,7.5-3.357,7.5-7.5V29.891C276.667,25.748,273.309,22.391,269.167,22.391z"
		/>
	<path d="M163.482,97.341c-2.929-2.928-7.678-2.928-10.606,0l-21.326,21.327l-7.76-7.76c-2.929-2.93-7.678-2.929-10.606-0.001
		c-2.929,2.929-2.929,7.678,0,10.606l13.063,13.063c1.406,1.407,3.314,2.197,5.303,2.197s3.897-0.79,5.303-2.196l26.629-26.63
		C166.412,105.019,166.412,100.271,163.482,97.341z"/>
	<path d="M193.753,115.959c0-30.559-24.861-55.42-55.42-55.42s-55.42,24.861-55.42,55.42c0,30.56,24.861,55.421,55.42,55.421
		S193.753,146.519,193.753,115.959z M97.913,115.959c0-22.288,18.132-40.42,40.42-40.42s40.42,18.132,40.42,40.42
		s-18.132,40.421-40.42,40.421S97.913,138.247,97.913,115.959z"/>
</g>
<g>
</g>
<g>
</g>
<g>
</g>
<g>
</g>
<g>
</g>
<g>
</g>
<g>
</g>
<g>
</g>
<g>
</g>
<g>
</g>
<g>
</g>
<g>
</g>
<g>
</g>
<g>
</g>
<g>
</g>
</svg>
