<?xml version="1.0" encoding="iso-8859-1"?>
<!-- Generator: Adobe Illustrator 17.1.0, SVG Export Plug-In . SVG Version: 6.00 Build 0)  -->
<!DOCTYPE svg PUBLIC "-//W3C//DTD SVG 1.1//EN" "http://www.w3.org/Graphics/SVG/1.1/DTD/svg11.dtd">
<svg version="1.1" id="Capa_1" xmlns="http://www.w3.org/2000/svg" xmlns:xlink="http://www.w3.org/1999/xlink" x="0px" y="0px"
	 viewBox="0 0 337.525 337.525" style="enable-background:new 0 0 337.525 337.525;" xml:space="preserve">
<g>
	<path d="M292.194,132.192c-3.168-2.668-7.9-2.263-10.568,0.906l-58.019,68.893c-2.474-0.864-5.129-1.339-7.894-1.339
		c-3.779,0-7.356,0.88-10.54,2.442l-54.427-55.188c-2.908-2.95-7.656-2.982-10.606-0.074c-2.949,2.908-2.982,7.657-0.073,10.606
		l54.362,55.122c-1.742,3.325-2.734,7.102-2.734,11.109c0,13.244,10.775,24.019,24.019,24.019s24.019-10.775,24.019-24.019
		c0-5.024-1.553-9.691-4.201-13.551l57.57-68.359C295.768,139.592,295.362,134.861,292.194,132.192z M215.712,233.689
		c-4.973,0-9.019-4.046-9.019-9.019c0-2.383,0.936-4.547,2.451-6.161c0.125-0.108,0.251-0.213,0.37-0.33
		c0.084-0.083,0.158-0.173,0.237-0.259c1.591-1.406,3.674-2.267,5.959-2.267c4.973,0,9.019,4.045,9.019,9.018
		S220.685,233.689,215.712,233.689z"/>
	<path d="M139.572,118.522c-1.806-9.529-9.421-17.145-18.95-18.95c-1.534-0.291-3.092-0.438-4.63-0.438
		c-7.178,0-13.922,3.173-18.504,8.705c-4.581,5.53-6.431,12.8-5.076,19.944c0.623,3.284,1.948,6.332,3.792,9.002l-61.995,75.866
		c-3.096-1.457-6.548-2.275-10.19-2.275C10.775,210.375,0,221.15,0,234.394s10.775,24.019,24.019,24.019
		s24.019-10.775,24.019-24.019c0-4.131-1.049-8.021-2.893-11.42l63.005-77.102c1.043,0.357,2.114,0.651,3.214,0.86
		c1.534,0.291,3.091,0.438,4.629,0.438c7.178,0,13.922-3.173,18.504-8.705C139.076,132.935,140.926,125.666,139.572,118.522z
		 M24.019,243.412c-4.973,0-9.019-4.046-9.019-9.019s4.046-9.019,9.019-9.019s9.019,4.046,9.019,9.019
		S28.991,243.412,24.019,243.412z M122.943,128.898c-2.108,2.545-5.429,3.732-8.788,3.097c-3.413-0.647-6.359-3.594-7.006-7.006
		c-0.527-2.781,0.145-5.474,1.891-7.582c1.723-2.08,4.256-3.273,6.952-3.273c0.604,0,1.221,0.059,1.837,0.176
		c3.413,0.647,6.359,3.593,7.006,7.006C125.361,124.096,124.69,126.789,122.943,128.898z"/>
	<path d="M337.091,98.501c-1.806-9.528-9.421-17.144-18.95-18.95c-1.534-0.291-3.092-0.438-4.63-0.438
		c-7.178,0-13.922,3.173-18.504,8.705c-4.581,5.53-6.431,12.799-5.076,19.944c1.806,9.529,9.422,17.144,18.95,18.95
		c1.534,0.291,3.092,0.438,4.63,0.438c7.178,0,13.922-3.173,18.504-8.705C336.595,112.915,338.445,105.645,337.091,98.501z
		 M320.462,108.877c-2.108,2.545-5.423,3.735-8.789,3.097c-3.413-0.647-6.359-3.593-7.006-7.006
		c-0.527-2.781,0.145-5.473,1.891-7.582c1.723-2.08,4.256-3.273,6.952-3.273c0.604,0,1.221,0.059,1.836,0.176
		c3.413,0.647,6.359,3.593,7.006,7.006C322.88,104.075,322.209,106.768,320.462,108.877z"/>
</g>
<g>
</g>
<g>
</g>
<g>
</g>
<g>
</g>
<g>
</g>
<g>
</g>
<g>
</g>
<g>
</g>
<g>
</g>
<g>
</g>
<g>
</g>
<g>
</g>
<g>
</g>
<g>
</g>
<g>
</g>
</svg>
