<?xml version="1.0" encoding="iso-8859-1"?>
<!-- Generator: Adobe Illustrator 17.1.0, SVG Export Plug-In . SVG Version: 6.00 Build 0)  -->
<!DOCTYPE svg PUBLIC "-//W3C//DTD SVG 1.1//EN" "http://www.w3.org/Graphics/SVG/1.1/DTD/svg11.dtd">
<svg version="1.1" id="Capa_1" xmlns="http://www.w3.org/2000/svg" xmlns:xlink="http://www.w3.org/1999/xlink" x="0px" y="0px"
	 viewBox="0 0 288.334 288.334" style="enable-background:new 0 0 288.334 288.334;" xml:space="preserve">
<g>
	<path d="M280.834,75.667c-4.143,0-7.5,3.357-7.5,7.5v190.167H15V86.244l64.058,64.058c2.93,2.928,7.678,2.928,10.607,0
		l40.213-40.214l65.297,65.297c1.465,1.464,3.385,2.196,5.304,2.196c1.92,0,3.839-0.732,5.304-2.196
		c2.929-2.93,2.929-7.678,0-10.607l-70.601-70.6c-2.93-2.928-7.678-2.928-10.607,0l-40.213,40.214l-68.959-68.96
		c-0.129-0.129-0.266-0.246-0.402-0.363V15h265.834c4.143,0,7.5-3.357,7.5-7.5s-3.357-7.5-7.5-7.5H7.5C3.357,0,0,3.357,0,7.5
		v273.334c0,4.143,3.357,7.5,7.5,7.5h273.334c4.143,0,7.5-3.357,7.5-7.5V83.167C288.334,79.024,284.977,75.667,280.834,75.667z"/>
	<path d="M238.838,160.297l-49.748,49.748c-2.145,2.146-2.786,5.371-1.625,8.174c1.16,2.803,3.896,4.63,6.929,4.63h49.748
		c4.143,0,7.5-3.357,7.5-7.5v-49.748c0-3.033-1.827-5.769-4.63-6.929C244.209,157.509,240.983,158.152,238.838,160.297z
		 M236.642,207.849H212.5l24.142-24.142V207.849z"/>
</g>
<g>
</g>
<g>
</g>
<g>
</g>
<g>
</g>
<g>
</g>
<g>
</g>
<g>
</g>
<g>
</g>
<g>
</g>
<g>
</g>
<g>
</g>
<g>
</g>
<g>
</g>
<g>
</g>
<g>
</g>
</svg>
