<?xml version="1.0" encoding="iso-8859-1"?>
<!-- Generator: Adobe Illustrator 17.1.0, SVG Export Plug-In . SVG Version: 6.00 Build 0)  -->
<!DOCTYPE svg PUBLIC "-//W3C//DTD SVG 1.1//EN" "http://www.w3.org/Graphics/SVG/1.1/DTD/svg11.dtd">
<svg version="1.1" id="Capa_1" xmlns="http://www.w3.org/2000/svg" xmlns:xlink="http://www.w3.org/1999/xlink" x="0px" y="0px"
	 viewBox="0 0 366.062 366.062" style="enable-background:new 0 0 366.062 366.062;" xml:space="preserve">
<g>
	<path d="M203.404,170.754c-2.783-1.04-5.671-1.567-8.583-1.567c-5.375,0-10.641,1.862-14.855,5.175l-45.924-40.299
		c0.253-0.871,0.477-1.755,0.634-2.668c2.245-13.051-6.546-25.497-19.598-27.744c-1.352-0.232-2.729-0.351-4.092-0.351
		c-11.715,0-21.662,8.39-23.652,19.948c-0.965,5.611,0.114,11.107,2.689,15.732c-0.085,0.1-0.175,0.195-0.256,0.301l-44.383,57.919
		c-2.52,3.287-1.896,7.995,1.392,10.515c1.36,1.043,2.965,1.547,4.556,1.547c2.254,0,4.482-1.012,5.959-2.938l43.78-57.133
		c1.829,0.831,3.791,1.445,5.86,1.802c1.353,0.232,2.73,0.351,4.095,0.351c5.396,0,10.403-1.796,14.444-4.846l46.169,40.515
		c-0.576,2.169-0.86,4.437-0.821,6.758c0.163,9.697,6.376,18.494,15.46,21.891c2.783,1.04,5.671,1.567,8.584,1.567
		c6.385,0,12.624-2.621,17.118-7.19c4.552-4.63,6.997-10.807,6.886-17.394C218.701,182.947,212.487,174.15,203.404,170.754z
		 M119.892,128.851c-0.747,4.341-4.477,7.492-8.867,7.492c-0.514,0-1.035-0.045-1.551-0.134c-4.9-0.843-8.201-5.517-7.357-10.417
		c0.747-4.341,4.478-7.492,8.869-7.492c0.514,0,1.034,0.045,1.548,0.134C117.434,119.278,120.736,123.951,119.892,128.851z
		 M201.283,199.521c-2.48,2.523-6.299,3.381-9.753,2.089c-3.253-1.216-5.656-4.619-5.715-8.093
		c-0.055-3.246,1.375-5.394,2.584-6.623c1.691-1.721,4.032-2.707,6.422-2.707c1.112,0,2.232,0.208,3.33,0.618
		c3.253,1.216,5.657,4.619,5.716,8.093C203.922,196.144,202.492,198.29,201.283,199.521z"/>
	<path d="M32.59,213.061c-2.782-1.04-5.67-1.567-8.581-1.567c-6.386,0-12.625,2.621-17.118,7.191
		c-4.553,4.63-6.998,10.807-6.887,17.393c0.163,9.697,6.376,18.494,15.46,21.891c2.783,1.04,5.671,1.567,8.584,1.567
		c6.385,0,12.624-2.621,17.118-7.19c4.552-4.63,6.997-10.807,6.886-17.394C47.887,225.255,41.675,216.458,32.59,213.061z
		 M30.469,241.829c-2.48,2.523-6.299,3.381-9.753,2.089c-3.253-1.216-5.656-4.619-5.715-8.093c-0.055-3.246,1.375-5.394,2.584-6.623
		c1.692-1.721,4.033-2.708,6.423-2.708c1.112,0,2.232,0.208,3.328,0.617c3.254,1.217,5.658,4.621,5.717,8.095
		C33.108,238.452,31.678,240.598,30.469,241.829z"/>
	<path d="M365.491,199.763c-1.16-2.803-3.896-4.63-6.929-4.63h-21.998v-10.24c0-4.143-3.357-7.5-7.5-7.5s-7.5,3.357-7.5,7.5v17.74
		c0,4.143,3.357,7.5,7.5,7.5h11.392l-34.522,34.522l-34.522-34.522h11.392c4.143,0,7.5-3.357,7.5-7.5v-46.872h38.762
		c4.143,0,7.5-3.357,7.5-7.5s-3.357-7.5-7.5-7.5h-46.262c-4.143,0-7.5,3.357-7.5,7.5v46.872h-21.998
		c-3.033,0-5.769,1.827-6.929,4.63c-1.161,2.803-0.52,6.028,1.625,8.174l52.629,52.629c1.465,1.464,3.385,2.196,5.304,2.196
		s3.839-0.732,5.304-2.196l52.629-52.629C366.01,205.791,366.652,202.566,365.491,199.763z"/>
</g>
<g>
</g>
<g>
</g>
<g>
</g>
<g>
</g>
<g>
</g>
<g>
</g>
<g>
</g>
<g>
</g>
<g>
</g>
<g>
</g>
<g>
</g>
<g>
</g>
<g>
</g>
<g>
</g>
<g>
</g>
</svg>
