<?xml version="1.0" encoding="iso-8859-1"?>
<!-- Generator: Adobe Illustrator 17.1.0, SVG Export Plug-In . SVG Version: 6.00 Build 0)  -->
<!DOCTYPE svg PUBLIC "-//W3C//DTD SVG 1.1//EN" "http://www.w3.org/Graphics/SVG/1.1/DTD/svg11.dtd">
<svg version="1.1" id="Capa_1" xmlns="http://www.w3.org/2000/svg" xmlns:xlink="http://www.w3.org/1999/xlink" x="0px" y="0px"
	 viewBox="0 0 267.422 267.422" style="enable-background:new 0 0 267.422 267.422;" xml:space="preserve">
<g>
	<path d="M156.896,104.185c-4.048-0.865-8.035,1.717-8.901,5.768c-6.075,28.448-22.097,54.141-45.113,72.345
		c-23.203,18.351-52.759,28.458-83.223,28.458c-4.143,0-7.5,3.358-7.5,7.5s3.357,7.5,7.5,7.5c33.827,0,66.687-11.255,92.527-31.692
		c25.749-20.365,43.676-49.124,50.479-80.978C163.528,109.035,160.946,105.05,156.896,104.185z"/>
	<path d="M195.934,81.328c2.439-4.645,2.105-10.212-0.872-14.532l-25.148-36.475c-2.627-3.81-6.958-6.084-11.586-6.084
		s-8.959,2.275-11.586,6.085l-25.147,36.474c-2.978,4.319-3.313,9.887-0.873,14.532c2.438,4.645,7.213,7.53,12.459,7.53h50.295
		C188.721,88.858,193.495,85.972,195.934,81.328z M134.945,73.858l23.382-33.915l23.383,33.915H134.945z"/>
	<path d="M247.795,212.953c-2.928-2.93-7.677-2.929-10.606,0c-2.929,2.929-2.929,7.678,0.001,10.606l17.43,17.429
		c1.464,1.464,3.384,2.197,5.303,2.197s3.839-0.732,5.304-2.197c2.929-2.929,2.929-7.678-0.001-10.606L247.795,212.953z"/>
	<path d="M188.136,163.9c-2.929,2.929-2.929,7.678,0.001,10.606l16.057,16.056c1.464,1.465,3.384,2.197,5.303,2.197
		s3.839-0.732,5.304-2.197c2.929-2.929,2.929-7.678-0.001-10.606L198.742,163.9C195.814,160.97,191.065,160.971,188.136,163.9z"/>
	<path d="M265.226,163.9c-2.929-2.929-7.677-2.929-10.607,0l-66.482,66.482c-2.929,2.929-2.929,7.678,0,10.606
		c1.465,1.465,3.384,2.197,5.304,2.197c1.919,0,3.839-0.732,5.304-2.197l66.482-66.482
		C268.154,171.578,268.154,166.829,265.226,163.9z"/>
	<path d="M82.786,111.518c0-22.824-18.568-41.393-41.393-41.393S0,88.694,0,111.518s18.569,41.393,41.394,41.393
		S82.786,134.342,82.786,111.518z M15,111.518c0-14.553,11.84-26.393,26.394-26.393c14.553,0,26.393,11.84,26.393,26.393
		s-11.84,26.393-26.393,26.393C26.84,137.911,15,126.071,15,111.518z"/>
</g>
<g>
</g>
<g>
</g>
<g>
</g>
<g>
</g>
<g>
</g>
<g>
</g>
<g>
</g>
<g>
</g>
<g>
</g>
<g>
</g>
<g>
</g>
<g>
</g>
<g>
</g>
<g>
</g>
<g>
</g>
</svg>
