<?xml version="1.0" encoding="iso-8859-1"?>
<!-- Generator: Adobe Illustrator 17.1.0, SVG Export Plug-In . SVG Version: 6.00 Build 0)  -->
<!DOCTYPE svg PUBLIC "-//W3C//DTD SVG 1.1//EN" "http://www.w3.org/Graphics/SVG/1.1/DTD/svg11.dtd">
<svg version="1.1" id="Capa_1" xmlns="http://www.w3.org/2000/svg" xmlns:xlink="http://www.w3.org/1999/xlink" x="0px" y="0px"
	 viewBox="0 0 266.533 266.533" style="enable-background:new 0 0 266.533 266.533;" xml:space="preserve">
<g>
	<path d="M133.267,0c-4.143,0-7.5,3.358-7.5,7.5s3.357,7.5,7.5,7.5c65.213,0,118.267,53.054,118.267,118.267
		s-53.054,118.267-118.267,118.267S15,198.479,15,133.267c0-44.166,24.328-84.34,63.49-104.845c3.67-1.921,5.087-6.454,3.166-10.124
		c-1.922-3.67-6.456-5.084-10.123-3.166C27.41,38.235,0,83.501,0,133.267c0,73.483,59.783,133.267,133.267,133.267
		s133.267-59.783,133.267-133.267S206.75,0,133.267,0z"/>
	<path d="M84.271,125.767h-32.88c-4.143,0-7.5,3.358-7.5,7.5s3.357,7.5,7.5,7.5h32.88c3.252,21.336,20.159,38.243,41.495,41.495
		v32.88c0,4.142,3.357,7.5,7.5,7.5s7.5-3.358,7.5-7.5v-32.897c8.892-1.365,17.316-5.123,24.271-10.936
		c3.179-2.656,3.602-7.386,0.945-10.564s-7.387-3.602-10.564-0.945c-4.252,3.554-9.292,6.012-14.651,7.204v-26.237h74.375
		c4.143,0,7.5-3.358,7.5-7.5s-3.357-7.5-7.5-7.5h-32.88c-3.252-21.336-20.159-38.243-41.495-41.495v-32.88
		c0-4.142-3.357-7.5-7.5-7.5s-7.5,3.358-7.5,7.5v32.88C104.43,87.524,87.524,104.43,84.271,125.767z M125.767,167
		c-13.046-2.899-23.334-13.188-26.233-26.233h26.233V167z M167,125.767h-26.233V99.533C153.813,102.432,164.101,112.721,167,125.767
		z M125.767,99.533v26.233H99.533C102.432,112.721,112.721,102.432,125.767,99.533z"/>
</g>
<g>
</g>
<g>
</g>
<g>
</g>
<g>
</g>
<g>
</g>
<g>
</g>
<g>
</g>
<g>
</g>
<g>
</g>
<g>
</g>
<g>
</g>
<g>
</g>
<g>
</g>
<g>
</g>
<g>
</g>
</svg>
