<?xml version="1.0" encoding="iso-8859-1"?>
<!-- Generator: Adobe Illustrator 17.1.0, SVG Export Plug-In . SVG Version: 6.00 Build 0)  -->
<!DOCTYPE svg PUBLIC "-//W3C//DTD SVG 1.1//EN" "http://www.w3.org/Graphics/SVG/1.1/DTD/svg11.dtd">
<svg version="1.1" id="Capa_1" xmlns="http://www.w3.org/2000/svg" xmlns:xlink="http://www.w3.org/1999/xlink" x="0px" y="0px"
	 viewBox="0 0 310.906 310.906" style="enable-background:new 0 0 310.906 310.906;" xml:space="preserve">
<g>
	<path d="M184.749,89.135c1.936,2.965,4.562,15.092,5.838,20.986c0.952,4.396,1.774,8.192,2.576,10.741
		c4.776,14.881,25.329,11.647,37.156,8.395c17.367-4.776,51.938-20.25,47.947-37.597c-0.929-4.037-4.954-6.554-8.991-5.627
		c-3.807,0.876-6.265,4.506-5.753,8.303c-1.781,4.18-17.569,15.001-36.922,20.387c-12.793,3.56-18.211,2.125-19.19,1.443
		c-0.577-1.896-1.348-5.456-2.163-9.218c-2.771-12.795-5.014-22.225-8.646-27.021c-2.438-3.251-6.018-5.228-10.354-5.714
		c-6.314-0.708-13.832,1.907-19.631,6.83c-11.25,9.564-23.171,22.049-34.7,34.124c-4.835,5.064-9.402,9.848-13.851,14.348
		c-0.168,0.17-0.326,0.346-0.474,0.527l-1.549,1.55c-0.153,0.129-0.302,0.265-0.447,0.408c-4.499,4.447-9.281,9.013-14.344,13.847
		c-12.075,11.53-24.562,23.452-34.131,34.708c-4.905,5.779-7.519,13.287-6.821,19.595c0.48,4.338,2.448,7.924,5.68,10.364
		c4.825,3.653,14.254,5.897,27.049,8.668c3.789,0.82,7.372,1.596,9.219,2.163c0.682,0.976,2.125,6.402-1.449,19.229
		c-5.367,19.266-16.119,34.986-20.33,36.861c-4.213-0.96-8.462-1.639-12.58-2.296c-7.378-1.178-14.347-2.291-20.499-4.827
		c-0.349-0.147-1.106-0.724-1.713-1.186c-0.601-0.458-1.282-0.976-2.053-1.487c-0.042-0.028-0.085-0.056-0.128-0.083
		c-23.233-14.742-33.496-44.423-26.144-75.617c0.95-4.032-1.548-8.07-5.58-9.021c-4.028-0.95-8.07,1.548-9.02,5.579
		c-8.832,37.473,3.976,73.446,32.632,91.676c0.414,0.278,0.809,0.585,1.206,0.888c1.28,0.974,2.874,2.187,5.026,3.095
		c7.829,3.229,16.002,4.534,23.907,5.796c4.258,0.68,8.281,1.322,12.224,2.25c0.933,0.214,1.86,0.316,2.78,0.316
		c16.217-0.001,30.311-31.852,34.824-48.291c7.559-27.531-2.023-35.08-8.45-37.143c-2.506-0.789-6.303-1.611-10.698-2.563
		c-5.882-1.274-17.971-3.892-20.976-5.833c-0.277-1.182,0.44-5.024,3.324-8.421c9.06-10.657,21.259-22.306,33.058-33.57
		c4.928-4.705,9.593-9.159,14.036-13.54c0.191-0.157,0.375-0.323,0.551-0.5l2.536-2.537c0.202-0.202,0.39-0.412,0.563-0.63
		c4.358-4.422,8.79-9.063,13.47-13.965c11.264-11.796,22.911-23.995,33.563-33.051C179.726,89.589,183.562,88.862,184.749,89.135z"
		/>
	<path d="M28.654,150.47c1.411,1.2,3.137,1.786,4.854,1.786c2.124,0,4.234-0.897,5.717-2.642
		c13.893-16.341,28.961-32.942,44.787-49.343c0.218-0.227,0.419-0.462,0.604-0.708c0.176-0.166,0.353-0.335,0.528-0.511
		c0.191-0.191,0.376-0.384,0.559-0.578c0.228-0.174,0.449-0.364,0.66-0.568c16.388-15.813,32.986-30.879,49.34-44.784
		C157.563,34.508,184.446,26,209.454,29.786c19.015,2.876,34.703,12.685,44.174,27.619c2.218,3.498,6.852,4.535,10.35,2.317
		s4.536-6.852,2.317-10.35c-11.833-18.658-31.222-30.881-54.597-34.417c-29.308-4.434-60.55,5.315-85.716,26.744
		c-16.288,13.849-32.813,28.831-49.133,44.544c-0.417,0.285-0.808,0.614-1.164,0.983c-0.221,0.229-0.433,0.458-0.645,0.688
		c-0.165,0.178-0.328,0.358-0.502,0.533c-0.18,0.18-0.363,0.346-0.542,0.511c-0.227,0.209-0.451,0.417-0.67,0.628
		c-0.384,0.371-0.724,0.778-1.017,1.215c-15.711,16.319-30.682,32.832-44.51,49.098C25.115,143.054,25.498,147.787,28.654,150.47z"
		/>
	<path d="M271.126,208.134c-2.929-2.929-7.678-2.929-10.606,0l-13.937,13.937l-13.937-13.937c-2.929-2.929-7.678-2.929-10.606,0
		c-2.929,2.929-2.929,7.678,0,10.606l13.937,13.937l-13.937,13.937c-2.929,2.929-2.929,7.678,0,10.606
		c1.464,1.464,3.384,2.197,5.303,2.197s3.839-0.732,5.303-2.197l13.937-13.937l13.937,13.937c1.464,1.464,3.384,2.197,5.303,2.197
		s3.839-0.732,5.303-2.197c2.929-2.929,2.929-7.678,0-10.606l-13.937-13.937l13.937-13.937
		C274.055,215.812,274.055,211.063,271.126,208.134z"/>
	<path d="M288.612,183.982c-3.136-2.709-7.872-2.362-10.579,0.773c-2.708,3.135-2.361,7.871,0.773,10.579
		c10.867,9.387,17.1,22.998,17.1,37.343c0,27.197-22.126,49.323-49.323,49.323s-49.323-22.126-49.323-49.323
		s22.126-49.323,49.323-49.323c4.142,0,7.5-3.358,7.5-7.5s-3.358-7.5-7.5-7.5c-35.468,0-64.323,28.855-64.323,64.323
		S211.115,297,246.583,297s64.323-28.855,64.323-64.323C310.906,213.969,302.78,196.221,288.612,183.982z"/>
</g>
<g>
</g>
<g>
</g>
<g>
</g>
<g>
</g>
<g>
</g>
<g>
</g>
<g>
</g>
<g>
</g>
<g>
</g>
<g>
</g>
<g>
</g>
<g>
</g>
<g>
</g>
<g>
</g>
<g>
</g>
</svg>
