<?xml version="1.0" encoding="iso-8859-1"?>
<!-- Generator: Adobe Illustrator 17.1.0, SVG Export Plug-In . SVG Version: 6.00 Build 0)  -->
<!DOCTYPE svg PUBLIC "-//W3C//DTD SVG 1.1//EN" "http://www.w3.org/Graphics/SVG/1.1/DTD/svg11.dtd">
<svg version="1.1" id="Capa_1" xmlns="http://www.w3.org/2000/svg" xmlns:xlink="http://www.w3.org/1999/xlink" x="0px" y="0px"
	 viewBox="0 0 310.908 310.908" style="enable-background:new 0 0 310.908 310.908;" xml:space="preserve">
<g>
	<path d="M184.751,89.136c1.936,2.965,4.562,15.092,5.838,20.986c0.952,4.396,1.774,8.192,2.576,10.741
		c4.776,14.881,25.33,11.647,37.157,8.394c17.367-4.776,51.937-20.25,47.938-37.628c-0.912-3.889-1.551-7.898-2.227-12.143
		c-1.262-7.926-2.567-16.121-5.806-23.94c-0.883-2.152-2.117-3.768-3.107-5.066c-0.329-0.431-0.64-0.838-0.871-1.181
		c-11.837-18.616-31.207-30.812-54.551-34.343c-29.306-4.435-60.548,5.315-85.715,26.744C109.696,55.548,93.171,70.53,76.85,86.244
		c-0.417,0.285-0.808,0.614-1.164,0.983c-0.221,0.229-0.433,0.458-0.645,0.688c-0.165,0.178-0.328,0.358-0.5,0.53
		c-0.181,0.181-0.365,0.348-0.544,0.514c-0.227,0.209-0.451,0.417-0.671,0.629c-0.384,0.371-0.724,0.778-1.017,1.214
		c-15.711,16.32-30.681,32.832-44.506,49.093C6.372,165.054-3.381,196.291,1.046,225.594c3.528,23.353,15.724,42.732,34.344,54.577
		c0.414,0.278,0.808,0.584,1.205,0.887c1.28,0.975,2.873,2.187,5.025,3.095c7.83,3.229,16.003,4.534,23.907,5.796
		c4.258,0.68,8.28,1.322,12.224,2.25c0.933,0.214,1.859,0.316,2.78,0.316c16.217-0.001,30.311-31.852,34.824-48.291
		c7.559-27.531-2.023-35.08-8.45-37.143c-2.506-0.789-6.303-1.611-10.698-2.563c-5.882-1.274-17.971-3.892-20.976-5.833
		c-0.277-1.182,0.44-5.024,3.328-8.426c2.681-3.158,2.293-7.891-0.864-10.571c-3.158-2.682-7.891-2.293-10.571,0.864
		c-4.905,5.779-7.519,13.287-6.821,19.595c0.48,4.338,2.448,7.924,5.68,10.364c4.825,3.653,14.254,5.897,27.049,8.668
		c3.789,0.82,7.372,1.596,9.219,2.163c0.682,0.976,2.125,6.402-1.449,19.228c-5.367,19.266-16.119,34.987-20.33,36.862
		c-4.213-0.96-8.463-1.639-12.58-2.296c-7.378-1.178-14.347-2.291-20.499-4.827c-0.349-0.147-1.105-0.723-1.713-1.186
		c-0.601-0.458-1.282-0.976-2.053-1.488c-0.042-0.028-0.085-0.056-0.128-0.083c-14.938-9.479-24.749-25.175-27.622-44.199
		c-3.778-25.006,4.731-51.881,23.349-73.739c13.893-16.341,28.961-32.942,44.787-49.343c0.219-0.227,0.42-0.463,0.604-0.708
		c0.175-0.165,0.351-0.334,0.527-0.51c0.191-0.191,0.376-0.384,0.559-0.578c0.228-0.174,0.449-0.364,0.66-0.568
		c16.388-15.813,32.986-30.879,49.34-44.784c21.861-18.614,48.741-27.121,73.751-23.337c19.015,2.877,34.703,12.686,44.174,27.62
		c0.026,0.042,0.053,0.083,0.08,0.124c0.511,0.772,1.03,1.451,1.487,2.05c0.432,0.566,1.023,1.34,1.164,1.684
		c2.571,6.207,3.683,13.189,4.86,20.581c0.655,4.113,1.331,8.359,2.282,12.541c-1.885,4.216-17.625,14.973-36.9,20.336
		c-12.793,3.56-18.211,2.125-19.19,1.443c-0.577-1.896-1.348-5.456-2.163-9.218c-2.771-12.795-5.014-22.225-8.646-27.021
		c-2.438-3.251-6.018-5.228-10.354-5.714c-6.311-0.708-13.832,1.907-19.631,6.83c-11.25,9.564-23.171,22.05-34.699,34.124
		c-4.835,5.064-9.403,9.848-13.851,14.348c-0.167,0.169-0.326,0.346-0.474,0.526l-1.69,1.693c-0.111,0.099-0.219,0.201-0.326,0.308
		c-2.929,2.929-2.918,7.689,0.011,10.618c1.407,1.407,3.314,2.197,5.303,2.197c0,0,0.001,0,0.002,0c1.99,0,3.898-0.792,5.304-2.2
		l2.536-2.537c0.198-0.198,0.383-0.405,0.555-0.622c4.361-4.424,8.794-9.068,13.478-13.973c11.263-11.796,22.91-23.994,33.562-33.05
		C179.728,89.59,183.567,88.863,184.751,89.136z"/>
	<path d="M264.815,211.587l-26.273,26.273l-10.187-10.187c-2.929-2.929-7.678-2.929-10.606,0c-2.929,2.929-2.929,7.678,0,10.606
		l15.49,15.49c1.464,1.464,3.384,2.197,5.303,2.197s3.839-0.732,5.303-2.197l31.577-31.577c2.929-2.929,2.929-7.678,0-10.606
		C272.492,208.658,267.743,208.658,264.815,211.587z"/>
	<path d="M246.584,168.355c-35.468,0-64.323,28.855-64.323,64.323s28.855,64.323,64.323,64.323s64.323-28.855,64.323-64.323
		S282.052,168.355,246.584,168.355z M246.584,282.002c-27.197,0-49.323-22.126-49.323-49.323s22.126-49.323,49.323-49.323
		s49.323,22.126,49.323,49.323S273.781,282.002,246.584,282.002z"/>
</g>
<g>
</g>
<g>
</g>
<g>
</g>
<g>
</g>
<g>
</g>
<g>
</g>
<g>
</g>
<g>
</g>
<g>
</g>
<g>
</g>
<g>
</g>
<g>
</g>
<g>
</g>
<g>
</g>
<g>
</g>
</svg>
