<?xml version="1.0" encoding="iso-8859-1"?>
<!-- Generator: Adobe Illustrator 17.1.0, SVG Export Plug-In . SVG Version: 6.00 Build 0)  -->
<!DOCTYPE svg PUBLIC "-//W3C//DTD SVG 1.1//EN" "http://www.w3.org/Graphics/SVG/1.1/DTD/svg11.dtd">
<svg version="1.1" id="Capa_1" xmlns="http://www.w3.org/2000/svg" xmlns:xlink="http://www.w3.org/1999/xlink" x="0px" y="0px"
	 viewBox="0 0 312.742 312.742" style="enable-background:new 0 0 312.742 312.742;" xml:space="preserve">
<g>
	<path d="M81.598,109.71c-2.152-8.568-7.658-15.562-14.906-19.74c4.436-5.26,7.117-12.046,7.117-19.45
		c0-16.661-13.555-30.215-30.215-30.215S13.38,53.859,13.38,70.52c0,7.404,2.681,14.19,7.117,19.45
		c-7.247,4.179-12.753,11.173-14.906,19.74l-5.366,21.366c-0.563,2.242-0.061,4.617,1.36,6.439s3.604,2.888,5.914,2.888H79.69
		c0.005,0,0.012,0,0.02,0c4.143,0,7.5-3.358,7.5-7.5c0-0.829-0.134-1.626-0.382-2.372L81.598,109.71z M43.595,55.305
		c8.39,0,15.215,6.825,15.215,15.215s-6.825,15.215-15.215,15.215S28.38,78.91,28.38,70.52S35.205,55.305,43.595,55.305z
		 M17.116,125.403l3.024-12.039c1.867-7.436,8.526-12.629,16.193-12.629h14.521c7.667,0,14.326,5.193,16.193,12.629l3.024,12.039
		H17.116z"/>
	<path d="M280.227,70.403h-172.5c-4.143,0-7.5,3.358-7.5,7.5v55c0,4.142,3.357,7.5,7.5,7.5s7.5-3.358,7.5-7.5v-47.5h157.5v40
		H145.371c-4.143,0-7.5,3.358-7.5,7.5s3.357,7.5,7.5,7.5h134.855c4.143,0,7.5-3.358,7.5-7.5v-55
		C287.727,73.761,284.369,70.403,280.227,70.403z"/>
	<path d="M305.242,70.403c-4.143,0-7.5,3.358-7.5,7.5v55c0,4.142,3.357,7.5,7.5,7.5s7.5-3.358,7.5-7.5v-55
		C312.742,73.761,309.385,70.403,305.242,70.403z"/>
	<path d="M81.598,241.744c-2.152-8.568-7.658-15.562-14.906-19.74c4.436-5.26,7.117-12.046,7.117-19.45
		c0-16.661-13.555-30.215-30.215-30.215S13.38,185.894,13.38,202.554c0,7.404,2.681,14.19,7.117,19.45
		c-7.247,4.179-12.753,11.173-14.906,19.74L0.226,263.11c-0.563,2.242-0.061,4.617,1.36,6.439s3.604,2.888,5.914,2.888H79.69
		c0.005,0,0.012,0,0.02,0c4.143,0,7.5-3.358,7.5-7.5c0-0.829-0.134-1.626-0.382-2.372L81.598,241.744z M43.595,187.339
		c8.39,0,15.215,6.825,15.215,15.215s-6.825,15.215-15.215,15.215s-15.215-6.825-15.215-15.215S35.205,187.339,43.595,187.339z
		 M17.116,257.437l3.024-12.039c1.867-7.436,8.526-12.629,16.193-12.629h14.521c7.667,0,14.326,5.193,16.193,12.629l3.024,12.039
		H17.116z"/>
	<path d="M200.177,217.437c4.143,0,7.5-3.358,7.5-7.5s-3.357-7.5-7.5-7.5h-92.45c-4.143,0-7.5,3.358-7.5,7.5v55
		c0,4.142,3.357,7.5,7.5,7.5h92.45c4.143,0,7.5-3.358,7.5-7.5v-27.5c0-4.142-3.357-7.5-7.5-7.5s-7.5,3.358-7.5,7.5v20h-77.45v-40
		H200.177z"/>
	<path d="M225.192,202.437c-4.143,0-7.5,3.358-7.5,7.5v55c0,4.142,3.357,7.5,7.5,7.5s7.5-3.358,7.5-7.5v-55
		C232.692,205.795,229.335,202.437,225.192,202.437z"/>
</g>
<g>
</g>
<g>
</g>
<g>
</g>
<g>
</g>
<g>
</g>
<g>
</g>
<g>
</g>
<g>
</g>
<g>
</g>
<g>
</g>
<g>
</g>
<g>
</g>
<g>
</g>
<g>
</g>
<g>
</g>
</svg>
