<?xml version="1.0" encoding="iso-8859-1"?>
<!-- Generator: Adobe Illustrator 17.1.0, SVG Export Plug-In . SVG Version: 6.00 Build 0)  -->
<!DOCTYPE svg PUBLIC "-//W3C//DTD SVG 1.1//EN" "http://www.w3.org/Graphics/SVG/1.1/DTD/svg11.dtd">
<svg version="1.1" id="Capa_1" xmlns="http://www.w3.org/2000/svg" xmlns:xlink="http://www.w3.org/1999/xlink" x="0px" y="0px"
	 viewBox="0 0 372.605 372.605" style="enable-background:new 0 0 372.605 372.605;" xml:space="preserve">
<g>
	<path d="M127.2,238.662c-3.934-1.277-8.17,0.876-9.449,4.816c-1.28,3.939,0.877,8.17,4.816,9.449
		C138.063,257.961,145,264.738,145,269.222c0,9.104-25.321,22.328-65,22.328s-65-13.225-65-22.328
		c0-3.413,3.887-7.604,10.398-11.209c6.384-3.536,15.01-6.417,24.836-8.354l-3.047,17.532c-0.379,2.181,0.226,4.418,1.65,6.112
		s3.525,2.672,5.739,2.672h50.846c2.214,0,4.314-0.978,5.739-2.672s2.029-3.932,1.65-6.112l-3.359-19.33
		c-1.268-7.294-5.109-13.56-10.492-17.947c4.237-4.597,6.83-10.731,6.83-17.461c0-14.222-11.569-25.791-25.791-25.791
		s-25.791,11.569-25.791,25.791c0,6.73,2.594,12.864,6.83,17.461c-1.269,1.034-2.45,2.172-3.534,3.404
		c-0.163,0.01-0.326,0.017-0.491,0.038C22.38,237.892,0,251.97,0,269.222c0,24.245,41.218,37.328,80,37.328s80-13.083,80-37.328
		C160,261.787,155.739,247.931,127.2,238.662z M63.493,260.976l1.833-10.547c1.227-7.06,7.318-12.185,14.485-12.185h0.377
		c7.166,0,13.259,5.125,14.485,12.186l1.833,10.546H63.493z M80,201.662c5.95,0,10.791,4.841,10.791,10.791
		S85.95,223.244,80,223.244s-10.791-4.841-10.791-10.791S74.05,201.662,80,201.662z"/>
	<path d="M315.081,233.297c-1.078-1.224-2.254-2.355-3.515-3.383c4.237-4.597,6.83-10.731,6.83-17.461
		c0-14.222-11.569-25.791-25.791-25.791s-25.791,11.569-25.791,25.791c0,6.73,2.594,12.864,6.83,17.461
		c-1.261,1.028-2.436,2.158-3.514,3.382c-14.454,1.856-27.55,5.522-37.332,10.5c-9.212,4.688-20.193,12.903-20.193,25.426
		c0,24.245,41.218,37.328,80,37.328s80-13.083,80-37.328C372.605,251.807,350.058,237.761,315.081,233.297z M292.605,201.662
		c5.95,0,10.791,4.841,10.791,10.791s-4.841,10.791-10.791,10.791s-10.791-4.841-10.791-10.791S286.655,201.662,292.605,201.662z
		 M292.605,291.55c-39.679,0-65-13.225-65-22.328c0-3.728,4.484-8.235,11.995-12.058c6.242-3.176,14.233-5.736,23.24-7.506
		l-3.047,17.534c-0.709,4.081,2.024,7.964,6.105,8.674c0.435,0.075,0.866,0.111,1.293,0.111c3.578,0,6.747-2.57,7.381-6.217
		l3.359-19.33c1.227-7.061,7.319-12.186,14.485-12.186h0.377c7.167,0,13.259,5.125,14.485,12.186l1.833,10.546h-16.507
		c-4.143,0-7.5,3.357-7.5,7.5s3.357,7.5,7.5,7.5h25.423c2.214,0,4.314-0.978,5.739-2.672s2.029-3.932,1.65-6.112l-3.047-17.535
		c22.008,4.349,35.235,12.989,35.235,19.565C357.605,278.325,332.284,291.55,292.605,291.55z"/>
	<path d="M241.92,168.141c-1.443-3.884-5.762-5.862-9.644-4.417c-12.523,4.656-28.851,7.22-45.974,7.22
		c-39.679,0-65-13.225-65-22.329c0-5.665,11.011-14.882,35.238-19.581l-3.05,17.552c-0.379,2.181,0.226,4.418,1.65,6.112
		s3.525,2.672,5.739,2.672h50.846c2.214,0,4.314-0.978,5.739-2.672s2.029-3.932,1.65-6.112l-3.047-17.535
		c22.009,4.348,35.235,12.989,35.235,19.564c0,4.143,3.357,7.5,7.5,7.5s7.5-3.357,7.5-7.5c0-17.415-22.547-31.46-57.524-35.924
		c-1.078-1.224-2.254-2.355-3.515-3.383c4.237-4.597,6.83-10.731,6.83-17.461c0-14.222-11.569-25.791-25.791-25.791
		s-25.791,11.569-25.791,25.791c0,6.73,2.594,12.864,6.83,17.461c-1.278,1.042-2.469,2.19-3.559,3.432
		c-0.285,0.006-0.572,0.023-0.861,0.062c-34.925,4.661-56.62,18.384-56.62,35.813c0,24.246,41.218,37.329,80,37.329
		c18.863,0,37.046-2.897,51.2-8.159C241.386,176.341,243.363,172.023,241.92,168.141z M169.796,140.369l1.833-10.546
		c1.227-7.061,7.319-12.186,14.485-12.186h0.377c7.166,0,13.259,5.125,14.485,12.186l1.833,10.546H169.796z M186.303,81.056
		c5.95,0,10.791,4.841,10.791,10.791s-4.841,10.791-10.791,10.791s-10.791-4.841-10.791-10.791S180.353,81.056,186.303,81.056z"/>
</g>
<g>
</g>
<g>
</g>
<g>
</g>
<g>
</g>
<g>
</g>
<g>
</g>
<g>
</g>
<g>
</g>
<g>
</g>
<g>
</g>
<g>
</g>
<g>
</g>
<g>
</g>
<g>
</g>
<g>
</g>
</svg>
