<?xml version="1.0" encoding="iso-8859-1"?>
<!-- Generator: Adobe Illustrator 17.1.0, SVG Export Plug-In . SVG Version: 6.00 Build 0)  -->
<!DOCTYPE svg PUBLIC "-//W3C//DTD SVG 1.1//EN" "http://www.w3.org/Graphics/SVG/1.1/DTD/svg11.dtd">
<svg version="1.1" id="Capa_1" xmlns="http://www.w3.org/2000/svg" xmlns:xlink="http://www.w3.org/1999/xlink" x="0px" y="0px"
	 viewBox="0 0 297.5 297.5" style="enable-background:new 0 0 297.5 297.5;" xml:space="preserve">
<path d="M290,237.083h-16.19V117.917c0-4.142-3.358-7.5-7.5-7.5h-53.333c-4.142,0-7.5,3.358-7.5,7.5v87.784
	c0,4.142,3.358,7.5,7.5,7.5s7.5-3.358,7.5-7.5v-80.284h38.333v111.667h-45.833h-30.061V117.917c0-4.142-3.358-7.5-7.5-7.5
	s-7.5,3.358-7.5,7.5v119.167h-38.333V60.417h45.833c4.142,0,7.5-3.358,7.5-7.5s-3.358-7.5-7.5-7.5h-53.333
	c-4.142,0-7.5,3.358-7.5,7.5v184.167H92.023v-82.5c0-4.142-3.358-7.5-7.5-7.5H31.19c-4.142,0-7.5,3.358-7.5,7.5v82.5H7.5
	c-4.142,0-7.5,3.358-7.5,7.5s3.358,7.5,7.5,7.5h23.69h53.333h37.561h53.333h37.561h53.333H290c4.142,0,7.5-3.358,7.5-7.5
	S294.142,237.083,290,237.083z M38.69,237.083v-75h38.333v75H38.69z"/>
<g>
</g>
<g>
</g>
<g>
</g>
<g>
</g>
<g>
</g>
<g>
</g>
<g>
</g>
<g>
</g>
<g>
</g>
<g>
</g>
<g>
</g>
<g>
</g>
<g>
</g>
<g>
</g>
<g>
</g>
</svg>
