<?xml version="1.0" encoding="iso-8859-1"?>
<!-- Generator: Adobe Illustrator 17.1.0, SVG Export Plug-In . SVG Version: 6.00 Build 0)  -->
<!DOCTYPE svg PUBLIC "-//W3C//DTD SVG 1.1//EN" "http://www.w3.org/Graphics/SVG/1.1/DTD/svg11.dtd">
<svg version="1.1" id="Capa_1" xmlns="http://www.w3.org/2000/svg" xmlns:xlink="http://www.w3.org/1999/xlink" x="0px" y="0px"
	 viewBox="0 0 297.5 297.5" style="enable-background:new 0 0 297.5 297.5;" xml:space="preserve">
<path d="M260.996,149.649c4.142,0,7.5-3.357,7.5-7.5v-20.066c0-4.143-3.358-7.5-7.5-7.5h-93.659H44.004V38.689h75v38.334H69.75
	c-4.142,0-7.5,3.357-7.5,7.5s3.358,7.5,7.5,7.5h56.754c0.007,0,0.013-0.001,0.019-0.001h40.814c4.142,0,7.5-3.357,7.5-7.5V31.189
	c0-4.143-3.358-7.5-7.5-7.5h-40.833h0h-82.5V7.5c0-4.143-3.358-7.5-7.5-7.5s-7.5,3.357-7.5,7.5v114.573c0,0.003,0,0.006,0,0.01
	v53.334c0,0.003,0,0.006,0,0.01v37.55v53.334V290c0,4.143,3.358,7.5,7.5,7.5s7.5-3.357,7.5-7.5v-16.189h170.162
	c0.007,0,0.013-0.001,0.019-0.001h46.81c4.142,0,7.5-3.357,7.5-7.5v-53.333c0-4.143-3.358-7.5-7.5-7.5h-46.829
	c-4.142,0-7.5,3.357-7.5,7.5v45.834H44.004v-38.334H175.75c4.142,0,7.5-3.357,7.5-7.5s-3.358-7.5-7.5-7.5H44.004v-22.56h123.333
	c0.007,0,0.013-0.001,0.019-0.001h93.639c4.142,0,7.5-3.357,7.5-7.5s-3.358-7.5-7.5-7.5h-86.159v-38.333h78.659v12.566
	C253.496,146.292,256.854,149.649,260.996,149.649z M159.837,77.022h-25.833V38.689h25.833V77.022z M253.496,258.81h-31.829v-38.333
	h31.829V258.81z M44.004,129.583h115.833v38.334H44.004V129.583z"/>
<g>
</g>
<g>
</g>
<g>
</g>
<g>
</g>
<g>
</g>
<g>
</g>
<g>
</g>
<g>
</g>
<g>
</g>
<g>
</g>
<g>
</g>
<g>
</g>
<g>
</g>
<g>
</g>
<g>
</g>
</svg>
