<?xml version="1.0" encoding="iso-8859-1"?>
<!-- Generator: Adobe Illustrator 17.1.0, SVG Export Plug-In . SVG Version: 6.00 Build 0)  -->
<!DOCTYPE svg PUBLIC "-//W3C//DTD SVG 1.1//EN" "http://www.w3.org/Graphics/SVG/1.1/DTD/svg11.dtd">
<svg version="1.1" id="Capa_1" xmlns="http://www.w3.org/2000/svg" xmlns:xlink="http://www.w3.org/1999/xlink" x="0px" y="0px"
	 viewBox="0 0 249.998 249.998" style="enable-background:new 0 0 249.998 249.998;" xml:space="preserve">
<g>
	<path d="M248.094,70.387c-31.297-35.069-76.163-55.184-123.095-55.184S33.201,35.317,1.904,70.387
		c-2.758,3.091-2.488,7.832,0.602,10.59c3.09,2.758,7.832,2.489,10.589-0.602C41.55,48.49,82.337,30.203,124.999,30.203
		s83.449,18.287,111.903,50.172c1.481,1.66,3.535,2.506,5.598,2.506c1.777,0,3.561-0.628,4.991-1.904
		C250.582,78.219,250.851,73.477,248.094,70.387z"/>
	<path d="M124.999,114.218c-22.427,0-43.308,10.13-57.289,27.794c-2.571,3.247-2.022,7.964,1.226,10.535
		c3.25,2.571,7.965,2.022,10.536-1.227c11.118-14.046,27.712-22.103,45.527-22.103s34.409,8.057,45.527,22.103
		c1.48,1.871,3.672,2.846,5.886,2.846c1.63,0,3.272-0.529,4.65-1.619c3.248-2.571,3.797-7.288,1.226-10.535
		C168.307,124.348,147.426,114.218,124.999,114.218z"/>
	<path d="M124.999,62.919c-34.767,0-67.538,15.324-89.908,42.043c-2.659,3.176-2.24,7.906,0.936,10.565
		c3.176,2.657,7.906,2.239,10.565-0.937c19.513-23.306,48.091-36.672,78.407-36.672s58.894,13.366,78.407,36.672
		c1.483,1.772,3.611,2.686,5.754,2.686c1.698,0,3.407-0.574,4.811-1.749c3.176-2.659,3.595-7.39,0.936-10.565
		C192.537,78.243,159.766,62.919,124.999,62.919z"/>
	<path d="M124.999,161.344c-20.25,0-36.726,16.475-36.726,36.726s16.475,36.726,36.726,36.726c4.142,0,7.5-3.357,7.5-7.5
		s-3.358-7.5-7.5-7.5c-11.979,0-21.726-9.746-21.726-21.726s9.746-21.726,21.726-21.726s21.726,9.746,21.726,21.726
		c0,4.143,3.358,7.5,7.5,7.5s7.5-3.357,7.5-7.5C161.725,177.818,145.249,161.344,124.999,161.344z"/>
</g>
<g>
</g>
<g>
</g>
<g>
</g>
<g>
</g>
<g>
</g>
<g>
</g>
<g>
</g>
<g>
</g>
<g>
</g>
<g>
</g>
<g>
</g>
<g>
</g>
<g>
</g>
<g>
</g>
<g>
</g>
</svg>
